<?xml version="1.0" standalone="no"?>
<!DOCTYPE svg PUBLIC "-//W3C//DTD SVG 1.1//EN" "http://www.w3.org/Graphics/SVG/1.1/DTD/svg11.dtd" >
<svg xmlns="http://www.w3.org/2000/svg" xmlns:xlink="http://www.w3.org/1999/xlink" version="1.1">
<metadata></metadata>
<defs>
<font id="lemonmilklight_italic" horiz-adv-x="914" >
<font-face units-per-em="2048" ascent="1638" descent="-410" />
<missing-glyph horiz-adv-x="546" />
<glyph unicode=" "  horiz-adv-x="546" />
<glyph unicode="&#x09;" horiz-adv-x="546" />
<glyph unicode="&#xa0;" horiz-adv-x="546" />
<glyph unicode="!" horiz-adv-x="449" d="M121 155q12 59 58 99q47 41 103 41t87 -42q31 -41 19 -102q-12 -60 -57 -99q-47 -41 -104 -41q-55 0 -87 42q-31 41 -19 102zM257 530q44 277 55 348q8 56 24.5 168t25.5 168l24 168q8 56 26 168h226l-241 -1020h-140z" />
<glyph unicode="&#x22;" horiz-adv-x="589" d="M295 1175l54 431h207l-115 -431h-146zM605 1175l52 431h209l-116 -431h-145z" />
<glyph unicode="#" horiz-adv-x="1107" d="M109 372l32 104h164h51l17 55l97 309l23 70h-67h-149l34 106h165h50l17 54l130 406h98l-125 -390l-22 -70h67h214h51l18 54l129 406h97l-124 -390l-22 -70h66h149l-34 -106h-163h-51l-17 -54l-99 -309l-23 -71h67h149l-33 -104h-163h-51l-17 -55l-81 -254h-98l75 238 l23 71h-67h-215h-50l-18 -55l-80 -254h-99l76 238l23 71h-66h-148zM453 476h67h214h51l17 55l99 309l22 70h-66h-215h-51l-17 -54l-97 -309z" />
<glyph unicode="$" horiz-adv-x="859" d="M124 420h189q0 -8 3 -24q9 -44 33 -72q23 -34 57 -49q36 -17 77 -17q39 0 82 17q40 17 77 48v1q37 31 61 72q24 40 33 87q8 39 0 85q-8 38 -31 73q-24 32 -58 50q-33 16 -74 17l-4 1q-85 0 -146 31q-62 28 -109 93q-46 60 -61 137q-14 77 3 162q15 76 48 138 q32 64 87 122q56 58 114 94q60 36 128 55l46 12l9 48l20 105h110l-20 -105l-10 -48l42 -12q59 -18 104 -54q46 -39 77 -95q30 -57 39 -121q5 -38 2 -76h-188q-1 4 -3 23q-8 41 -31 73q-48 67 -135 67q-43 0 -84 -18q-42 -18 -77 -50q-38 -34 -60 -72t-32 -86q-9 -48 -2 -87 q9 -39 32 -72q26 -36 58 -50q32 -17 77 -17q79 0 144 -31q65 -34 109 -93q44 -60 61 -137q13 -72 -4 -162q-15 -77 -48 -141q-36 -69 -86 -122q-54 -59 -113 -95q-59 -37 -126 -55l-46 -12l-10 -48l-19 -102h-110l20 102l9 48l-41 12q-59 16 -106 55q-45 36 -77 95 q-30 56 -39 122q-6 36 -1 78z" />
<glyph unicode="%" horiz-adv-x="1298" d="M81 47l1187 1519h121l-1187 -1519h-121zM285 1183q-10 44 2 106q12 59 39 105q28 50 73 89q47 41 96 61q49 21 103 21t94 -21q38 -18 71 -61q30 -42 39 -89q9 -49 -2 -105q-12 -61 -39 -106q-28 -48 -74 -90q-48 -42 -95 -61q-52 -20 -101 -20q-53 0 -96 20 q-43 21 -72 61q-31 44 -38 90zM387 1289q-12 -72 23 -119q36 -49 102 -49q60 0 119 50q55 51 69 118l1 2q1 1 1 2q13 67 -29 120q-39 46 -93 47h-1h-2h-2q-57 -2 -111 -45q-63 -52 -76 -122v-2q0 1 -0.5 0t-0.5 -2zM744 241q-10 55 2 121q12 64 45 121t83 101q48 44 110 71 q57 23 117 23q58 0 107 -23q49 -26 81 -71q34 -46 46 -101q10 -55 -2 -121t-45 -121q-30 -54 -85 -102q-49 -45 -109 -70q-53 -22 -116 -22q-64 0 -109 22q-49 24 -81 70q-33 43 -44 102zM838 362q-18 -97 25 -156q43 -60 134 -60q87 0 156 60q69 63 87 156q18 94 -26 156 q-46 60 -133 60q-89 0 -157 -60q-66 -57 -86 -156z" />
<glyph unicode="&#x26;" horiz-adv-x="1287" d="M141 327q-16 82 3 175h-1q26 118 96 194q72 79 145 141l6 5l6 4l11 9h1l9 7l49 38l-23 47q-24 49 -34 126q-10 74 -1 134q13 71 53 132q35 49 90 99q63 55 149 93q84 36 145 36q60 0 117 -23q52 -22 96 -66q41 -44 63 -101q12 -33 18 -63l-198 -43h-1q-13 29 -30 49 q-20 21 -47 32q-28 11 -58 11q-65 0 -120 -38q-115 -82 -91 -192q12 -55 48 -136q38 -84 63 -130q43 -79 98 -159q66 -96 112 -151l46 -56q45 49 59 95q13 41 37 141l2 6l166 3q-28 -116 -53 -185q-22 -62 -97 -172l44 -34q19 -16 47 -36q31 -22 54 -34q41 -21 72 -29 l-39 -195q-42 6 -84 24q-53 19 -99 53l-11 7l1 -1l3 -2q0 1 -8 7q-68 51 -100 86q-74 -75 -122 -103q-51 -29 -146 -56q-107 -30 -192 -30q-90 0 -163 35q-76 34 -125 100q-51 66 -66 146zM312 497q-10 -49 4 -104q12 -51 43 -92q28 -35 81 -52q31 -10 103 -13q69 -3 106 8 q62 15 104 36q43 22 93 80q-5 6 -17.5 18.5t-18.5 19.5q-22 24 -36 39q-79 88 -123 160q-40 66 -101 184l-45 -31l-7 -4q-50 -33 -112 -91q-56 -51 -74 -158z" />
<glyph unicode="'" horiz-adv-x="280" d="M295 1175l54 431h207l-115 -431h-146z" />
<glyph unicode="(" horiz-adv-x="575" d="M186 410q2 186 43 396q39 205 111 397q70 187 165 337q95 153 189 237q68 59 137 86l1 -169q-46 -20 -90 -71q-61 -71 -123 -202q-58 -120 -109 -283q-45 -145 -82 -332q-34 -172 -47 -331q-13 -157 -1 -284q12 -140 44 -201q24 -50 63 -70l-66 -169q-61 27 -104 86 q-60 81 -97 235q-37 148 -34 338z" />
<glyph unicode=")" horiz-adv-x="542" d="M55 -228l1 139q44 24 84 70q59 66 126 205q66 143 111 286q50 163 83 334q34 170 46 334q12 151 1 286q-14 136 -46 206q-20 43 -57 71l54 138q45 -24 84 -75q59 -82 95 -232q35 -156 34 -334q-3 -183 -44 -394t-109 -393q-69 -179 -164 -334q-96 -151 -185 -231 q-58 -50 -114 -76z" />
<glyph unicode="*" horiz-adv-x="602" d="M269 1195l181 92l82 41l-66 42l-146 91l70 83l87 -83l65 -64l12 105l17 154h104l-43 -154l-28 -105l90 64l121 83l35 -83l-180 -91l-81 -42l65 -41l145 -92l-68 -82l-88 84l-66 63l-12 -104l-17 -155h-104l43 155l29 104l-91 -63l-119 -84z" />
<glyph unicode="+" horiz-adv-x="785" d="M154 606l31 158h224h58l12 63l66 342h147l-66 -342l-12 -63h58h225l-30 -158h-225h-59l-12 -62l-67 -343h-147l67 343l12 62h-58h-224z" />
<glyph unicode="," horiz-adv-x="406" d="M38.5 -170q0.5 0 3.5 -5h-1h-1q-2 5 -1.5 5zM74 146q14 68 69 119q55 49 120 49v1q63 -1 101 -52q38 -53 24 -121v-4q-4 -21 -17 -66q-11 -38 -42 -84q-39 -59 -79 -96q-52 -46 -125 -72q-14 -3 -38 0q34 25 63 62q28 36 24 87l-2 24l-20 7q-46 14 -67 58q-21 38 -11 88z " />
<glyph unicode="-" horiz-adv-x="690" d="M154 606l31 158h617l-30 -158h-618z" />
<glyph unicode="." horiz-adv-x="388" d="M76 155q14 68 65 113q53 47 115 47q60 0 95 -47q35 -48 22 -113q-14 -68 -65 -113q-50 -46 -114 -46q-63 0 -97 46q-35 47 -21 113z" />
<glyph unicode="/" horiz-adv-x="785" d="M-31 -158l990 1930h171l-990 -1930h-171z" />
<glyph unicode="0" horiz-adv-x="1142" d="M184 514q-11 144 18 293q30 150 95 291t153 243q90 106 200 162q104 55 224 55q117 0 202 -55q89 -57 137 -162q49 -103 59 -243q12 -137 -18 -291q-29 -151 -96 -293t-153 -242q-87 -105 -200 -163q-109 -55 -224 -55q-116 0 -202 55t-136 163q-49 102 -59 242zM371 579 q6 -112 43 -191v-1q33 -66 82 -97q52 -34 124 -34q73 0 137 34q60 29 120 97v1q67 79 118 190q50 109 73 229q23 119 16 228q-7 110 -44 191q-29 62 -83 97q-52 34 -123 34q-72 0 -136 -34q-67 -34 -121 -97q-66 -76 -117 -191q-50 -111 -73 -228q-23 -122 -16 -228z" />
<glyph unicode="1" horiz-adv-x="473" d="M208 63l229 1174l16 83l-78 -23l-82 -24l40 207l357 103l-296 -1520h-186z" />
<glyph unicode="2" horiz-adv-x="1046" d="M49 63l39 83q153 102 327 228t302 251q123 118 211 233q85 110 100 189q12 63 0 119q-9 54 -42 102q-33 44 -82 68q-53 24 -107 24q-56 0 -116 -24q-57 -24 -107 -68h-1q-54 -50 -82 -102q-15 -25 -28 -57h-188q21 68 59 134q54 94 136 166q79 70 176 111q96 39 191 39 t175 -39q80 -40 132 -111q53 -75 71 -166q18 -96 -1 -196q-23 -115 -104 -237q-88 -133 -232 -267q-80 -74 -168 -146q-100 -82 -173 -136h517l-38 -198h-967z" />
<glyph unicode="3" horiz-adv-x="949" d="M115 355l197 52q2 -8 3 -11l4 -10q32 -75 112 -104q39 -14 80 -14q50 0 102 20q50 20 95 57q42 35 71 84q59 98 44 199q-15 103 -78 166q-69 72 -190 96l18 28q107 26 182 85q91 73 111 194q19 120 -75 166q-33 15 -65 15q-103 0 -172 -94l-181 44q17 32 41 63 q46 60 103 101q57 44 121 66q65 22 127 22q74 0 135 -29q62 -33 103 -87q41 -57 55 -128q13 -74 -2 -152q-12 -62 -43 -125q-31 -62 -74 -112l-44 -50q44 -43 69 -79q25 -37 42 -113q35 -180 -69 -357q-105 -176 -291 -251q-86 -34 -176 -34q-75 0 -138 24q-67 27 -115 73 q-50 50 -78 113q-17 38 -24 82z" />
<glyph unicode="4" horiz-adv-x="1155" d="M116 408l688 1149l202 -2l-566 -949h82h321h58l12 63l110 564h184l-110 -564l-12 -63h59h93l-39 -198h-93h-58l-12 -62l-55 -283h-185l55 283l12 62h-57h-689z" />
<glyph unicode="5" horiz-adv-x="989" d="M95 303l207 67q27 -46 66 -72q56 -38 137 -38q62 0 116 22q55 22 108 66q48 42 83 98q32 53 44 117q12 61 2 117q-11 55 -45 98q-35 46 -69 68q-51 30 -139 27q-86 -3 -150 -28q-57 -22 -146 -89l-90 54l212 740h693l-39 -198h-493h-53l-15 -56l-54 -190l-27 -94l89 28 q36 13 69 18q29 3 78 3q186 0 300 -152q114 -150 75 -345q-21 -106 -72 -192q-52 -87 -139 -161v-1q-90 -76 -180 -111q-95 -37 -196 -37q-79 0 -139 22q-64 20 -116 63q-55 43 -87 98q-17 25 -30 58z" />
<glyph unicode="6" horiz-adv-x="1029" d="M154 558q11 60 35 118q25 58 62 114l2 3l6 9l15 22l13 19l8 12l508 695l210 -2l-287 -394l-63 -86l91 -8q87 -7 158 -46q71 -42 120 -113q48 -71 65 -158q14 -83 -5 -185q-20 -104 -72 -194q-53 -90 -134 -161q-82 -73 -174 -111q-90 -36 -188 -36q-97 0 -172 36 q-78 38 -131 110q-108 147 -67 356zM339 441q11 -56 43 -99q33 -44 79 -66q43 -22 104 -22q60 0 114 22q55 23 105 67q47 42 82 99q31 53 43 117q13 67 3 118q-12 55 -44 99q-34 45 -78 67q-45 22 -106 22l-2 -1q-61 0 -112 -22q-60 -26 -105 -67q-51 -46 -82 -99 q-31 -54 -43 -118q-12 -60 -1 -117z" />
<glyph unicode="7" horiz-adv-x="960" d="M300 1358l38 192h887l-729 -1494h-195l591 1221l39 81h-79h-552z" />
<glyph unicode="8" horiz-adv-x="954" d="M143 345q-15 82 4 178q19 99 70 186q52 85 134 155l46 38l-22 45q-25 45 -32 105q-6 55 6 119q14 76 54 146q39 67 103 124t131 84q66 28 143 28q75 0 131 -28q57 -29 99 -84q41 -59 54 -124q12 -66 -3 -146q-12 -64 -40 -119q-25 -49 -52 -80q-51 -59 -62 -71 q40 -48 65 -87q27 -41 40 -104q18 -82 -2 -187q-19 -98 -66 -178q-47 -82 -124 -150q-79 -69 -159 -102q-81 -33 -172 -33q-90 0 -159 33q-69 35 -120 102q-52 69 -67 150zM329 418q8 -47 37 -85q28 -38 69 -58q37 -19 91 -19q50 0 97 19q52 22 92 58q41 35 72 86 q29 50 39 103q10 51 1 103q-11 51 -38 86q-29 39 -67 59q-87 43 -194 -3q-51 -22 -91 -60q-47 -43 -70 -86q-27 -46 -37 -101q-11 -59 -1 -102zM534 1102q6 -32 27 -59q20 -28 48 -40q28 -14 60 -14l1 -1q31 0 68 14q30 11 63 40q31 28 50 60q21 34 28 71q8 36 0 71 q-7 30 -27 59q-20 27 -47 40q-31 14 -62 14q-33 0 -69 -14q-34 -14 -63 -40q-32 -29 -49 -59q-20 -33 -28 -71q-7 -37 0 -71z" />
<glyph unicode="9" horiz-adv-x="1029" d="M245 869q-15 82 5 184q21 108 71 193q52 90 135 164q81 72 173 111q90 37 187 37q96 0 173 -37q73 -36 130 -112q55 -74 73 -163q16 -91 -3 -193q-12 -61 -36 -118q-22 -53 -61 -111q-2 -3 -4.5 -6t-3.5 -5t-2 -3q-4 -6 -6 -10q-1 -2 -4 -6t-4 -6h-1q-2 -2 -3.5 -6 t-2.5 -5t-2.5 -3.5t-2.5 -3.5q-3 -3 -3 -5l-4 -5l-510 -697h-211l287 394l62 86l-90 7q-94 8 -159 47q-70 40 -119 113q-49 71 -64 159zM433 937q11 -56 43 -99q36 -48 79 -67q43 -22 104 -22h1q59 0 112 22q53 21 106 67q47 42 82 99q31 53 43 117q12 63 2 117 q-11 53 -43 99q-32 42 -79 68q-49 23 -105 23t-114 -23q-57 -23 -105 -68q-48 -42 -81 -99q-31 -54 -43 -117q-12 -66 -2 -117z" />
<glyph unicode=":" horiz-adv-x="406" d="M95 207q14 67 66 113q53 47 114 47t96 -47t21 -113q-14 -68 -65 -113q-53 -47 -114 -47t-96 47q-35 48 -22 113zM272 1120q13 66 66 113t114 47t96 -47t22 -113q-14 -67 -66 -113q-53 -46 -114 -46q-62 0 -96 46q-35 48 -22 113z" />
<glyph unicode=";" horiz-adv-x="395" d="M94 202q12 64 62 108q51 45 110 45v1q55 -1 91 -47q34 -49 22 -111h1l-1 -3q-3 -19 -16 -63q-10 -35 -41 -81v-1q-38 -56 -75 -90q-46 -40 -112 -66q65 62 59 136l-2 31l-27 10q-40 13 -62 53q-18 32 -9 78zM274 1120q12 59 59 102q47 42 103 42t87 -42q31 -41 19 -102 q-12 -59 -59 -102q-47 -42 -103 -42t-87 42q-31 41 -19 102z" />
<glyph unicode="&#x3c;" horiz-adv-x="938" d="M154 650l980 542l-33 -173l-570 -315l-97 -54l76 -54l447 -314l-34 -174z" />
<glyph unicode="=" horiz-adv-x="709" d="M107 363l31 158h637l-31 -158h-637zM201 849l31 158h637l-31 -158h-637z" />
<glyph unicode="&#x3e;" horiz-adv-x="938" d="M57 108l34 174l569 314l98 54l-77 54l-447 315l34 173l770 -542z" />
<glyph unicode="?" horiz-adv-x="975" d="M321 1185q17 54 45 101q43 74 115 138v1q72 63 148 95q72 31 158 31q79 0 146 -32q62 -30 111 -95v1q46 -64 61 -139q15 -74 -3 -164q-9 -45 -21 -70q-15 -33 -32 -53q-27 -31 -51 -57q-49 -47 -56 -53h-1q-19 -18 -55 -47q-84 -71 -146 -139q-67 -73 -85 -184h-181 q24 103 73 176q27 42 66 81q44 44 87 83q30 27 59 54q11 10 31 30l31 31v1q32 32 58 71t34 76q9 44 1 87q-9 39 -33 73q-27 33 -58 49q-34 17 -77 17q-44 0 -84 -17q-38 -15 -77 -49q-35 -30 -60 -73q-3 -4 -7 -12l-6 -12h-191zM373 155q12 59 58 99q47 41 103 41t87 -42 q31 -41 19 -102q-12 -60 -57 -99q-47 -41 -104 -41q-55 0 -87 42q-31 41 -19 102z" />
<glyph unicode="@" horiz-adv-x="1888" d="M192 422q-32 171 9 380q41 208 138 381q100 174 251 309q154 136 333 210q174 70 366 70q201 0 350 -67q147 -67 247 -199q98 -134 129 -314q27 -171 -13 -376q-6 -29 -13 -55q-58 -223 -198 -367q-150 -155 -339 -155h-19q-15 0 -15 2q-97 6 -158 79t-58 175 q-55 -40 -98 -59q-44 -20 -105 -18q-143 2 -222 111q-42 54 -54 121q-12 66 3 144q30 151 152 267q113 109 238 109q72 0 126 -24t92 -59l16 84h139l-107 -553q-8 -40 -6 -78q3 -66 37 -100q31 -37 82 -37q12 0 32 5q106 29 190 147q44 62 73 136t39 128q32 167 13 299 q-23 143 -105 257q-79 105 -203 160q-118 51 -278 51q-158 0 -299 -55q-146 -59 -268 -166q-125 -110 -205 -252q-77 -138 -111 -310q-32 -164 -8 -309q26 -144 107 -252q80 -110 202 -165q100 -47 263 -56t285 24l29 -171q-145 -47 -349 -34q-205 13 -329 70 q-152 71 -250 203q-101 135 -131 309zM874 794q-18 -90 29 -155q46 -64 130 -64q89 0 158 60q63 56 86 157q18 97 -25 156q-42 60 -131 62l-4 1q-83 0 -154 -64q-71 -63 -89 -153z" />
<glyph unicode="A" horiz-adv-x="1261" d="M49 63l886 1501l302 -1501h-198l-55 245h-294h-293l-150 -245h-198zM496 468h225h227q-27 128 -55 301q-30 186 -53 302q-87 -146 -173 -302q-97 -175 -171 -301z" />
<glyph unicode="B" horiz-adv-x="1035" d="M103 63l289 1487h256h104q72 0 133 -30q62 -32 100 -86q39 -54 54 -119q6 -31 6 -64q0 -38 -8 -80q-7 -36 -32 -90q-26 -55 -61 -103l-42 -59l52 -28q28 -17 51 -34q21 -18 34 -35q46 -66 61 -145q7 -35 7 -74q0 -46 -10 -95q-19 -96 -63 -170q-46 -81 -117 -144 q-72 -64 -153 -98q-81 -33 -162 -33h-197h-60h-47h-195zM323 253h59h59h198q45 0 92 19t86 55q36 30 67 83q29 53 37 98q5 28 5 53q0 23 -4 44q-9 47 -35 84q-26 35 -63 55q-38 22 -81 25q-46 3 -91 3q-29 0 -87 -2h-42q-7 0 -21 -0.5t-20 -0.5h-58l-12 -62l-76 -391z M456 937l61 3q35 2 93 6q9 1 23 1l4 1q44 6 71 18q32 15 70 48q33 31 53 66q22 37 29 78q4 23 4 43q0 18 -3 34q-7 35 -27 66q-21 27 -51 43q-30 15 -68 15h-104h-14h-59l-12 -62l-57 -295z" />
<glyph unicode="C" horiz-adv-x="1228" d="M188 516q-12 61 -12 126q0 78 17 163q30 158 107 289q76 131 202 246q123 110 260 167q97 40 203 51h75q68 0 138 -14q64 -15 123 -45q55 -29 107 -71q38 -34 52 -49l-161 -143q-47 50 -108 81q-85 41 -188 41q-104 0 -206 -41q-103 -44 -189 -122q-89 -79 -147 -179h-1 q-56 -96 -79 -212q-12 -63 -12 -121q0 -48 8 -92q19 -96 79 -178q56 -80 142 -121q87 -41 189 -41q103 0 206 41q80 33 140 80l104 -143q-27 -21 -71 -49q-63 -41 -135 -71q-69 -30 -139 -44q-70 -15 -145 -15q-145 0 -258 55t-194 166q-83 111 -107 245z" />
<glyph unicode="D" horiz-adv-x="1158" d="M103 63l289 1486h340h40q128 -7 228 -56q118 -56 197 -162l1 -1q73 -98 91 -238q7 -55 7 -111q0 -87 -17 -176q-28 -146 -101 -286q-72 -138 -184 -238l-1 -1q-116 -104 -260 -161q-141 -56 -289 -56h-341zM325 261h59h99h1q112 0 210 37q98 36 184 112q86 78 139 177 q52 94 77 220q14 71 14 136q0 43 -6 83q-15 99 -71 176q-55 74 -141 114q-84 37 -197 37h-97h-59l-12 -62l-188 -968z" />
<glyph unicode="E" d="M102 59l291 1494h787l-39 -198h-544h-58l-12 -62l-63 -325l-12 -63h58h393l-38 -198h-394h-58l-12 -62l-63 -325l-12 -63h58h544l-39 -198h-544h-243z" />
<glyph unicode="F" d="M102 59l114 586l63 323l114 585h787l-39 -198h-544h-58l-12 -62l-63 -325l-12 -63h58h393l-38 -198h-394h-58l-12 -62l-63 -324l-50 -262h-186z" />
<glyph unicode="G" horiz-adv-x="1474" d="M187 515q-11 57 -11 121q0 79 17 169q29 155 107 290q73 129 202 245q124 112 259 167q114 48 238 55l1 -2h41q73 0 138 -15q71 -17 123 -44q53 -26 107 -71q23 -19 52 -49l-160 -143q-45 48 -108 80q-84 41 -189 41q-108 0 -205 -41q-101 -42 -190 -122 q-91 -82 -147 -179q-59 -102 -80 -212q-12 -58 -12 -115q0 -49 9 -97q18 -96 78 -179q59 -82 143 -122q87 -41 189 -41q81 0 164 27q78 24 156 77q57 39 113 97q52 54 93 117l56 89h-92h-369l36 185h16h639q-28 -163 -96 -293q-81 -158 -218 -279q-124 -110 -260 -166 q-131 -55 -280 -55t-258 55q-115 56 -195 166q-84 113 -107 244z" />
<glyph unicode="H" horiz-adv-x="1166" d="M103 63l289 1487h184l-113 -583l-12 -62h58h501h58l12 62l113 583h184l-289 -1487h-184l113 583l12 62h-57h-502h-57l-12 -62l-114 -583h-184z" />
<glyph unicode="I" horiz-adv-x="367" d="M103 63l289 1487h185l-289 -1487h-185z" />
<glyph unicode="J" horiz-adv-x="936" d="M59 116l127 174q12 -10 26 -15q41 -23 87 -27q7 -1 23 -3q5 -1 22 -1h3h4q16 0 21 1q9 1 24 3q61 8 117 36q63 32 110 75q63 55 105 125q40 69 55 148l7 33l56 291v1l110 593l185 -1l-109 -588h-1l-64 -331q-24 -121 -83 -226q-62 -104 -156 -188q-93 -83 -200 -128 q-103 -42 -214 -44h-6h-5q-83 0 -155 26q-50 18 -89 46z" />
<glyph unicode="K" horiz-adv-x="995" d="M103 63l289 1487h183l-147 -761l558 761h213l-534 -725l-25 -35l15 -32l316 -695h-224l-322 710l-139 -710h-183z" />
<glyph unicode="L" d="M103 63l289 1487h185l-238 -1228l-13 -63h58h544l-38 -196h-787z" />
<glyph unicode="M" horiz-adv-x="1534" d="M103 63l292 1503l460 -1113l893 1113l-293 -1503h-185l165 845l-649 -811l-333 811l-165 -845h-185z" />
<glyph unicode="N" horiz-adv-x="1270" d="M102 59l293 1506l705 -1021l34 177l162 832h185l-295 -1517l-702 1035l-22 -114l-174 -898h-186z" />
<glyph unicode="O" horiz-adv-x="1478" d="M188 516q-12 61 -12 126q0 78 17 163q30 158 107 289q76 131 202 246q123 110 260 167q131 55 280 55q148 0 258 -55q111 -55 195 -168q83 -113 108 -244q12 -64 13 -131q0 -77 -17 -159q-30 -157 -108 -290q-75 -132 -203 -244q-125 -111 -260 -166t-280 -55 q-146 0 -259 55t-194 166q-83 111 -107 245zM377 595q18 -97 79 -179q56 -80 142 -121q87 -41 190 -41q102 0 204 41q97 39 190 121q95 85 148 179q59 98 81 212q12 58 12 113q0 50 -10 99q-20 97 -78 179q-56 77 -144 122q-85 41 -188 41q-104 0 -206 -41 q-101 -43 -189 -122q-95 -85 -148 -179q-56 -96 -79 -212q-12 -63 -12 -121q0 -47 8 -91z" />
<glyph unicode="P" horiz-adv-x="1063" d="M103 63l82 421l110 564l97 502h243h225q98 0 172 -37q75 -37 130 -111q55 -75 73 -162q7 -38 7 -81q0 -53 -11 -112q-21 -107 -71 -193q-51 -87 -134 -161q-83 -73 -175 -111q-90 -36 -186 -36h-225h-58l-12 -62l-82 -421h-185zM420 743h58l225 -1q60 0 113 22 q54 21 105 67q51 48 81 99q30 49 44 117q6 34 6 65q0 28 -5 51q-9 49 -42 99q-31 45 -78 68q-46 23 -105 23h-225h-58l-12 -62l-47 -243l-47 -243z" />
<glyph unicode="Q" horiz-adv-x="1522" d="M188 516q-11 59 -11 124q0 78 16 165q29 155 107 290q73 129 202 245q123 110 260 167q131 55 279 55t259 -55q112 -55 195 -167q82 -114 108 -245q11 -63 11 -128q0 -79 -16 -162q-27 -139 -91 -259q-66 -122 -165 -222l-70 -71l76 -29q49 -19 102 -29q36 -8 72 -12 l-52 -192q-122 13 -204 42q-87 30 -154 82l-22 19l-33 -15q-75 -35 -151 -51q-82 -17 -158 -17q-150 0 -259 55q-113 55 -194 166q-84 113 -107 244zM377 595q18 -99 78 -178h1q56 -80 142 -121q82 -41 189 -41q30 0 39 1q30 3 39 5l126 18l-74 90q-42 47 -57 62 q-31 30 -57 46q-27 17 -62 29q-6 0 -9 1q-6 2 -8 3l49 195q24 -5 54 -13q49 -17 93 -44q41 -27 79 -64q24 -23 80 -89q3 -5 11 -15t11 -13q1 -3 7 -13q2 -3 5.5 -8.5t5.5 -7.5l33 -51l53 51q83 78 133 170q51 93 72 200q11 59 11 116q0 48 -8 95q-19 98 -79 179 q-59 78 -143 122q-87 41 -189 41q-105 0 -205 -41q-101 -42 -190 -122q-91 -82 -147 -179q-59 -101 -80 -211q-12 -58 -12 -116q0 -49 9 -97z" />
<glyph unicode="R" horiz-adv-x="1064" d="M104 63l288 1487h432q104 0 188 -39q81 -38 135 -107q55 -76 70 -147q7 -33 6 -71q0 -48 -10 -104l-8 -42q-16 -80 -49 -142q-32 -60 -89 -129q-45 -53 -84 -79q-37 -26 -95 -48l-70 -28l25 -64l198 -487h-231l-214 521h-205l-101 -521h-186zM429 784h58l70 -1h46h100v-1 q56 0 104 20q41 19 91 63q51 45 78 96q27 47 39 111q7 34 7 66q0 21 -3 42q-9 44 -41 90v1q-29 39 -88 62q-54 21 -123 21h-169h-58l-12 -63l-87 -445z" />
<glyph unicode="S" horiz-adv-x="901" d="M107 359l193 43q14 -68 68 -110t122 -42q44 3 89 21q44 18 83 46q39 29 68 71q28 41 37 90q4 18 4 36q0 20 -5 39q-9 35 -30 59q-23 26 -54 46q-30 19 -65 34q-29 12 -70 25q-84 26 -149 71t-104 113q-27 48 -36 107q-4 23 -4 48q0 36 8 77q17 88 63 166q47 78 113 137 q68 61 146 93q79 33 162 33q71 0 135 -28q62 -27 106 -77q75 -85 82 -208l-192 -42q-6 44 -34 85q-48 66 -135 66q-44 0 -84 -17q-43 -18 -78 -49t-60 -74q-24 -43 -33 -86q-6 -33 -3 -62q3 -27 14 -49t29 -40q20 -20 38 -31q29 -18 45 -25q32 -14 47 -20q6 -2 22 -7.5 t26 -9.5q40 -16 41 -16q49 -21 88 -45q37 -23 75 -63q33 -35 57 -79q21 -39 29 -97q3 -22 3 -44q0 -33 -7 -68q-16 -87 -68 -169q-50 -79 -120 -137q-69 -57 -153 -90q-87 -34 -164 -34q-90 0 -165 39q-77 40 -124 111q-47 70 -56 163z" />
<glyph unicode="T" horiz-adv-x="996" d="M299 1353l39 197h310h303h310l-38 -197h-311h-58l-12 -62l-239 -1228h-185l239 1228l12 62h-59h-311z" />
<glyph unicode="U" horiz-adv-x="1277" d="M210 410q-8 45 -8 94q0 62 13 132l63 326l114 588h187l-114 -588l-57 -291l-6 -34q-8 -42 -8 -82q0 -34 6 -66q12 -65 55 -125q40 -57 100 -85q58 -29 132 -29q70 0 143 29q68 28 132 85q65 55 106 125q40 69 55 148l7 34l57 291l114 588h187l-114 -588l-64 -326 q-24 -121 -83 -226q-62 -105 -158 -190v-1q-102 -88 -203 -129q-102 -43 -217 -43q-116 0 -203 42q-89 43 -152 131q-64 85 -84 190z" />
<glyph unicode="V" horiz-adv-x="1249" d="M338 1550h95h96l196 -1024l594 1024h195l-881 -1500z" />
<glyph unicode="W" horiz-adv-x="1660" d="M338 1550h199l136 -931l449 880l106 -880l497 931h200l-809 -1512l-105 907l-453 -905z" />
<glyph unicode="X" horiz-adv-x="1077" d="M49 63l517 714l23 31l-11 30l-239 712h212l151 -449l32 -94l69 94l327 449h212l-518 -712l-23 -31l11 -31l241 -713h-212l-153 449l-31 95l-69 -95l-328 -450z" />
<glyph unicode="Y" horiz-adv-x="1106" d="M338 1550h208l154 -526l31 -105l72 105l359 526h209l-580 -829l-12 -30l-122 -628h-183l122 628l-2 30z" />
<glyph unicode="Z" horiz-adv-x="1054" d="M49 63l919 1290h-125h-518l39 197h956l-924 -1291h77h578l-38 -196h-964z" />
<glyph unicode="[" horiz-adv-x="813" d="M293 806q24 123 119 207q95 85 209 85q110 0 174 -85q63 -85 39 -207q-24 -120 -120 -206q-95 -85 -207 -85t-175 85t-39 206z" />
<glyph unicode="\" horiz-adv-x="748" d="M344 1772h134l240 -1930h-134z" />
<glyph unicode="]" horiz-adv-x="813" d="M293 806q24 123 119 207q95 85 209 85q110 0 174 -85q63 -85 39 -207q-24 -120 -120 -206q-95 -85 -207 -85t-175 85t-39 206z" />
<glyph unicode="^" horiz-adv-x="696" d="M221 995l434 590l207 -590h-127l-93 264l-32 91l-68 -91l-195 -264h-126z" />
<glyph unicode="_" horiz-adv-x="984" d="M-12 -63l24 127h985l-24 -127h-985z" />
<glyph unicode="`" horiz-adv-x="403" d="M343 1578l185 90l71 -476l-94 -44z" />
<glyph unicode="a" horiz-adv-x="1261" d="M49 63l886 1501l302 -1501h-198l-55 245h-294h-293l-150 -245h-198zM496 468h225h227q-27 128 -55 301q-30 186 -53 302q-87 -146 -173 -302q-97 -175 -171 -301z" />
<glyph unicode="b" horiz-adv-x="1035" d="M103 63l289 1487h256h104q72 0 133 -30q62 -32 100 -86q39 -54 54 -119q6 -31 6 -64q0 -38 -8 -80q-7 -36 -32 -90q-26 -55 -61 -103l-42 -59l52 -28q28 -17 51 -34q21 -18 34 -35q46 -66 61 -145q7 -35 7 -74q0 -46 -10 -95q-19 -96 -63 -170q-46 -81 -117 -144 q-72 -64 -153 -98q-81 -33 -162 -33h-197h-60h-47h-195zM323 253h59h59h198q45 0 92 19t86 55q36 30 67 83q29 53 37 98q5 28 5 53q0 23 -4 44q-9 47 -35 84q-26 35 -63 55q-38 22 -81 25q-46 3 -91 3q-29 0 -87 -2h-42q-7 0 -21 -0.5t-20 -0.5h-58l-12 -62l-76 -391z M456 937l61 3q35 2 93 6q9 1 23 1l4 1q44 6 71 18q32 15 70 48q33 31 53 66q22 37 29 78q4 23 4 43q0 18 -3 34q-7 35 -27 66q-21 27 -51 43q-30 15 -68 15h-104h-14h-59l-12 -62l-57 -295z" />
<glyph unicode="c" horiz-adv-x="1228" d="M188 516q-12 61 -12 126q0 78 17 163q30 158 107 289q76 131 202 246q123 110 260 167q97 40 203 51h75q68 0 138 -14q64 -15 123 -45q55 -29 107 -71q38 -34 52 -49l-161 -143q-47 50 -108 81q-85 41 -188 41q-104 0 -206 -41q-103 -44 -189 -122q-89 -79 -147 -179h-1 q-56 -96 -79 -212q-12 -63 -12 -121q0 -48 8 -92q19 -96 79 -178q56 -80 142 -121q87 -41 189 -41q103 0 206 41q80 33 140 80l104 -143q-27 -21 -71 -49q-63 -41 -135 -71q-69 -30 -139 -44q-70 -15 -145 -15q-145 0 -258 55t-194 166q-83 111 -107 245z" />
<glyph unicode="d" horiz-adv-x="1158" d="M103 63l289 1486h340h40q128 -7 228 -56q118 -56 197 -162l1 -1q73 -98 91 -238q7 -55 7 -111q0 -87 -17 -176q-28 -146 -101 -286q-72 -138 -184 -238l-1 -1q-116 -104 -260 -161q-141 -56 -289 -56h-341zM325 261h59h99h1q112 0 210 37q98 36 184 112q86 78 139 177 q52 94 77 220q14 71 14 136q0 43 -6 83q-15 99 -71 176q-55 74 -141 114q-84 37 -197 37h-97h-59l-12 -62l-188 -968z" />
<glyph unicode="e" d="M102 59l291 1494h787l-39 -198h-544h-58l-12 -62l-63 -325l-12 -63h58h393l-38 -198h-394h-58l-12 -62l-63 -325l-12 -63h58h544l-39 -198h-544h-243z" />
<glyph unicode="f" d="M102 59l114 586l63 323l114 585h787l-39 -198h-544h-58l-12 -62l-63 -325l-12 -63h58h393l-38 -198h-394h-58l-12 -62l-63 -324l-50 -262h-186z" />
<glyph unicode="g" horiz-adv-x="1474" d="M187 515q-11 57 -11 121q0 79 17 169q29 155 107 290q73 129 202 245q124 112 259 167q114 48 238 55l1 -2h41q73 0 138 -15q71 -17 123 -44q53 -26 107 -71q23 -19 52 -49l-160 -143q-45 48 -108 80q-84 41 -189 41q-108 0 -205 -41q-101 -42 -190 -122 q-91 -82 -147 -179q-59 -102 -80 -212q-12 -58 -12 -115q0 -49 9 -97q18 -96 78 -179q59 -82 143 -122q87 -41 189 -41q81 0 164 27q78 24 156 77q57 39 113 97q52 54 93 117l56 89h-92h-369l36 185h16h639q-28 -163 -96 -293q-81 -158 -218 -279q-124 -110 -260 -166 q-131 -55 -280 -55t-258 55q-115 56 -195 166q-84 113 -107 244z" />
<glyph unicode="h" horiz-adv-x="1166" d="M103 63l289 1487h184l-113 -583l-12 -62h58h501h58l12 62l113 583h184l-289 -1487h-184l113 583l12 62h-57h-502h-57l-12 -62l-114 -583h-184z" />
<glyph unicode="i" horiz-adv-x="367" d="M103 63l289 1487h185l-289 -1487h-185z" />
<glyph unicode="j" horiz-adv-x="936" d="M59 116l127 174q12 -10 26 -15q41 -23 87 -27q7 -1 23 -3q5 -1 22 -1h3h4q16 0 21 1q9 1 24 3q61 8 117 36q63 32 110 75q63 55 105 125q40 69 55 148l7 33l56 291v1l110 593l185 -1l-109 -588h-1l-64 -331q-24 -121 -83 -226q-62 -104 -156 -188q-93 -83 -200 -128 q-103 -42 -214 -44h-6h-5q-83 0 -155 26q-50 18 -89 46z" />
<glyph unicode="k" horiz-adv-x="995" d="M103 63l289 1487h183l-147 -761l558 761h213l-534 -725l-25 -35l15 -32l316 -695h-224l-322 710l-139 -710h-183z" />
<glyph unicode="l" d="M103 63l289 1487h185l-238 -1228l-13 -63h58h544l-38 -196h-787z" />
<glyph unicode="m" horiz-adv-x="1534" d="M103 63l292 1503l460 -1113l893 1113l-293 -1503h-185l165 845l-649 -811l-333 811l-165 -845h-185z" />
<glyph unicode="n" horiz-adv-x="1270" d="M102 59l293 1506l705 -1021l34 177l162 832h185l-295 -1517l-702 1035l-22 -114l-174 -898h-186z" />
<glyph unicode="o" horiz-adv-x="1478" d="M188 516q-12 61 -12 126q0 78 17 163q30 158 107 289q76 131 202 246q123 110 260 167q131 55 280 55q148 0 258 -55q111 -55 195 -168q83 -113 108 -244q12 -64 13 -131q0 -77 -17 -159q-30 -157 -108 -290q-75 -132 -203 -244q-125 -111 -260 -166t-280 -55 q-146 0 -259 55t-194 166q-83 111 -107 245zM377 595q18 -97 79 -179q56 -80 142 -121q87 -41 190 -41q102 0 204 41q97 39 190 121q95 85 148 179q59 98 81 212q12 58 12 113q0 50 -10 99q-20 97 -78 179q-56 77 -144 122q-85 41 -188 41q-104 0 -206 -41 q-101 -43 -189 -122q-95 -85 -148 -179q-56 -96 -79 -212q-12 -63 -12 -121q0 -47 8 -91z" />
<glyph unicode="p" horiz-adv-x="1063" d="M103 63l82 421l110 564l97 502h243h225q98 0 172 -37q75 -37 130 -111q55 -75 73 -162q7 -38 7 -81q0 -53 -11 -112q-21 -107 -71 -193q-51 -87 -134 -161q-83 -73 -175 -111q-90 -36 -186 -36h-225h-58l-12 -62l-82 -421h-185zM420 743h58l225 -1q60 0 113 22 q54 21 105 67q51 48 81 99q30 49 44 117q6 34 6 65q0 27 -5 51q-9 49 -42 99q-31 45 -78 68q-46 23 -105 23h-225h-58l-12 -62l-47 -243l-47 -243z" />
<glyph unicode="q" horiz-adv-x="1522" d="M188 516q-11 59 -11 124q0 78 16 165q29 155 107 290q73 129 202 245q123 110 260 167q131 55 279 55t259 -55q112 -55 195 -167q82 -114 108 -245q11 -63 11 -128q0 -79 -16 -162q-27 -139 -91 -259q-66 -122 -165 -222l-70 -71l76 -29q49 -19 102 -29q36 -8 72 -12 l-52 -192q-122 13 -204 42q-87 30 -154 82l-22 19l-33 -15q-75 -35 -151 -51q-82 -17 -158 -17q-150 0 -259 55q-113 55 -194 166q-84 113 -107 244zM377 595q18 -99 78 -178h1q56 -80 142 -121q82 -41 189 -41q30 0 39 1q30 3 39 5l126 18l-74 90q-42 47 -57 62 q-31 30 -57 46q-27 17 -62 29q-6 0 -9 1q-6 2 -8 3l49 195q24 -5 54 -13q49 -17 93 -44q41 -27 79 -64q24 -23 80 -89q3 -5 11 -15t11 -13q1 -3 7 -13q2 -3 5.5 -8.5t5.5 -7.5l33 -51l53 51q83 78 133 170q51 93 72 200q11 59 11 116q0 48 -8 95q-19 98 -79 179 q-59 78 -143 122q-87 41 -189 41q-105 0 -205 -41q-101 -42 -190 -122q-91 -82 -147 -179q-59 -101 -80 -211q-12 -58 -12 -116q0 -49 9 -97z" />
<glyph unicode="r" horiz-adv-x="1064" d="M104 63l288 1487h432q104 0 188 -39q81 -38 135 -107q55 -76 70 -147q7 -33 6 -71q0 -48 -10 -104l-8 -42q-16 -80 -49 -142q-32 -60 -89 -129q-45 -53 -84 -79q-37 -26 -95 -48l-70 -28l25 -64l198 -487h-231l-214 521h-205l-101 -521h-186zM429 784h58l70 -1h46h100v-1 q56 0 104 20q41 19 91 63q51 45 78 96q27 47 39 111q7 34 7 66q0 21 -3 42q-9 44 -41 90v1q-29 39 -88 62q-54 21 -123 21h-169h-58l-12 -63l-87 -445z" />
<glyph unicode="s" horiz-adv-x="901" d="M107 359l193 43q14 -68 68 -110t122 -42q44 3 89 21q44 18 83 46q39 29 68 71q28 41 37 90q4 18 4 36q0 20 -5 39q-9 35 -30 59q-23 26 -54 46q-30 19 -65 34q-29 12 -70 25q-84 26 -149 71t-104 113q-27 48 -36 107q-4 23 -4 48q0 36 8 77q17 88 63 166q47 78 113 137 q68 61 146 93q79 33 162 33q71 0 135 -28q62 -27 106 -77q75 -85 82 -208l-192 -42q-6 44 -34 85q-48 66 -135 66q-44 0 -84 -17q-43 -18 -78 -49t-60 -74q-24 -43 -33 -86q-6 -33 -3 -62q3 -27 14 -49t29 -40q20 -20 38 -31q29 -18 45 -25q32 -14 47 -20q6 -2 22 -7.5 t26 -9.5q40 -16 41 -16q49 -21 88 -45q37 -23 75 -63q33 -35 57 -79q21 -39 29 -97q3 -22 3 -44q0 -33 -7 -68q-16 -87 -68 -169q-50 -79 -120 -137q-69 -57 -153 -90q-87 -34 -164 -34q-90 0 -165 39q-77 40 -124 111q-47 70 -56 163z" />
<glyph unicode="t" horiz-adv-x="996" d="M299 1353l39 197h310h303h310l-38 -197h-311h-58l-12 -62l-239 -1228h-185l239 1228l12 62h-59h-311z" />
<glyph unicode="u" horiz-adv-x="1277" d="M210 410q-8 45 -8 94q0 62 13 132l63 326l114 588h187l-114 -588l-57 -291l-6 -34q-8 -42 -8 -82q0 -34 6 -66q12 -65 55 -125q40 -57 100 -85q58 -29 132 -29q70 0 143 29q68 28 132 85q65 55 106 125q40 69 55 148l7 34l57 291l114 588h187l-114 -588l-64 -326 q-24 -121 -83 -226q-62 -105 -158 -190v-1q-102 -88 -203 -129q-102 -43 -217 -43q-116 0 -203 42q-89 43 -152 131q-64 85 -84 190z" />
<glyph unicode="v" horiz-adv-x="1249" d="M338 1550h95h96l196 -1024l594 1024h195l-881 -1500z" />
<glyph unicode="w" horiz-adv-x="1660" d="M338 1550h199l136 -931l449 880l106 -880l497 931h200l-809 -1512l-105 907l-453 -905z" />
<glyph unicode="x" horiz-adv-x="1077" d="M49 63l517 714l23 31l-11 30l-239 712h212l151 -449l32 -94l69 94l327 449h212l-518 -712l-23 -31l11 -31l241 -713h-212l-153 449l-31 95l-69 -95l-328 -450z" />
<glyph unicode="y" horiz-adv-x="1106" d="M338 1550h208l154 -526l31 -105l72 105l359 526h209l-580 -829l-12 -30l-122 -628h-183l122 628l-2 30z" />
<glyph unicode="z" horiz-adv-x="1054" d="M49 63l919 1290h-125h-518l39 197h956l-924 -1291h77h578l-38 -196h-964z" />
<glyph unicode="{" horiz-adv-x="932" d="M293 806q28 148 146 252t254 104q135 0 212 -104t48 -252q-29 -147 -146 -251q-116 -104 -253 -104q-138 0 -213 104q-77 104 -48 251zM425 805q-16 -88 29 -150q46 -63 128 -63q80 0 151 63t87 150q17 87 -28 151q-45 62 -127 62q-83 0 -153 -62q-71 -65 -87 -151z" />
<glyph unicode="|" horiz-adv-x="484" d="M148 -174l381 1961h121l-381 -1961h-121z" />
<glyph unicode="}" horiz-adv-x="932" d="M293 806q28 148 146 252t254 104q135 0 212 -104t48 -252q-29 -147 -146 -251q-116 -104 -253 -104q-138 0 -213 104q-77 104 -48 251zM425 805q-16 -88 29 -150q46 -63 128 -63q80 0 151 63t87 150q17 87 -28 151q-45 62 -127 62q-83 0 -153 -62q-71 -65 -87 -151z" />
<glyph unicode="~" horiz-adv-x="1026" d="M177 705l24 144q52 49 95 80q44 32 90 42q104 21 316 -83q187 -96 281 -88q95 8 177 76l-32 -160q-91 -91 -180 -76q-87 15 -267 92l-10 4q-202 83 -294 71q-94 -12 -200 -102z" />
<glyph unicode="&#xa1;" horiz-adv-x="449" d="M76 -178q36 157 39 167q14 55 42 167q13 56 39.5 168t40.5 168q37 154 81 349h139l-155 -1019h-226zM327 1215q12 59 59 102q46 43 103 43q56 0 88 -41q31 -42 19 -99q-12 -59 -59 -102q-47 -42 -103 -42q-58 0 -88 41q-31 40 -19 98z" />
<glyph unicode="&#xa2;" horiz-adv-x="1108" d="M188 548q-22 118 5 256q25 133 95 254q69 119 178 215q83 75 175 123q95 47 184 63l25 5l5 26l58 299l139 1l-57 -294l-5 -27l24 -3q41 -6 82 -18q43 -15 74 -31q50 -26 95 -62q34 -28 60 -58l-174 -154q-43 50 -100 78q-67 33 -153 33q-88 0 -167 -33q-81 -34 -154 -99 q-77 -70 -120 -147q-45 -81 -63 -172q-18 -94 -3 -173q14 -80 62 -145q48 -67 116 -99q71 -33 154 -33q84 0 167 34q63 25 129 77l114 -153q-41 -34 -84 -61q-49 -32 -118 -62q-46 -20 -85 -30q-44 -13 -90 -18l-25 -3l-6 -28l-55 -285h-139l57 292l5 26l-23 5 q-90 17 -160 63q-72 46 -127 122q-76 101 -95 216z" />
<glyph unicode="&#xa3;" horiz-adv-x="967" d="M78 63l38 195h20h58l39 201l39 201h-98l6 32l23 117h40h58l13 63l4 24l-2 -14l16 91q25 124 83 225q60 101 157 188q98 86 198 127q105 43 213 44h7h4q73 -2 100 -9q35 -9 76 -28l-127 -173q-2 1 -19 5q-28 6 -68 7h-1h-3h-2h-12q-2 0 -5.5 -0.5t-5.5 -0.5q-22 -2 -23 -2 l-1 -1q-60 -7 -117 -36q-58 -29 -109 -74q-67 -58 -104 -124q-39 -65 -56 -149l-6 -33l-13 -67l-13 -63h58h256l-23 -117l-6 -32h-313q-8 -41 -22 -109.5t-18 -90.5q-3 -15 -17.5 -87t-22.5 -115h57h539l-38 -195h-661h-176h-20z" />
<glyph unicode="&#xa4;" horiz-adv-x="1016" d="M125 410l192 168l10 9l-4 11q-39 96 -15 212q25 118 101 211l9 10l-7 9l-122 170l105 93l122 -170l7 -9l11 7q100 62 209 62q107 0 184 -63l8 -7l10 9l190 166l70 -94l-189 -166l-10 -9l5 -10q41 -98 17 -215q-22 -115 -103 -213l-9 -10l7 -10l121 -169l-104 -92 l-122 169l-7 9l-12 -7q-103 -64 -211 -62q-110 2 -186 67l-8 7l-10 -9l-190 -167zM498 808q-16 -71 24 -128q38 -54 108 -54q68 -2 129 51v1q60 53 75 127q15 75 -23 129q-39 54 -108 54q-71 0 -130 -52q-60 -52 -75 -128z" />
<glyph unicode="&#xa5;" horiz-adv-x="1148" d="M131 440l22 111h378h59l12 63l2 8l12 62h-59h-379l22 111h311h97l-28 93l-206 662h209l148 -478l31 -101l71 101l335 478h209l-463 -662l-66 -93h98h311l-21 -111h-380h-58l-12 -62l-2 -8l-12 -63h59h379l-22 -111h-379h-59l-12 -63l-61 -314h-182l61 314l12 63h-58h-379 z" />
<glyph unicode="&#xa6;" horiz-adv-x="484" d="M148 -174l158 810h121l-158 -810h-121zM372 977l157 810h121l-157 -810h-121z" />
<glyph unicode="&#xa7;" horiz-adv-x="931" d="M98 106h186q4 -54 35 -95q55 -73 149 -61q95 12 167 87q37 39 58 86q22 53 16 101q-12 72 -88 106q-19 9 -33 15q-5 2 -13 5t-13 5t-9 4q-14 7 -19 9q-2 1 -11 4t-14 5q-2 1 -15 6.5t-22 9.5l-23 9q-71 27 -123 79q-55 49 -88 119q-18 35 -21 80q-3 47 8 103 q17 86 59 160q46 76 113 136q1 1 3 2.5t5 4t5 4.5q11 10 14 11l60 48l-43 47q-13 14 -36 45q-16 22 -29 50q-21 45 -24 69q-5 36 5 84q17 86 59 160q44 75 113 136q70 62 145 93q72 31 155 31t144 -31q61 -30 109 -93q43 -58 60 -136q8 -43 5 -97h-186q-6 53 -35 94 q-48 66 -133 66q-84 0 -159 -66q-74 -66 -92 -158q-13 -67 4 -95q16 -26 55 -56l2 -2q48 -39 70 -51q14 -7 64 -23q1 0 8 -3t12 -4q4 -1 13.5 -4t14.5 -4q72 -26 128 -73q58 -50 93 -115q16 -33 21 -78t-7 -105q-16 -86 -59 -161q-43 -73 -113 -135l-15 -13q-6 -6 -15 -12 l-64 -50l47 -47q22 -22 36 -43q15 -20 31 -47q19 -40 24 -68q6 -33 -4 -85q-16 -86 -59 -161q-44 -72 -113 -135q-73 -62 -145 -93q-75 -30 -155 -30q-82 0 -144 30q-63 32 -109 93q-45 63 -60 135q-10 45 -5 98zM417 806q-11 -114 66 -167q39 -27 91 -30q52 -2 103 21 q103 45 147 158l5 20q8 113 -68 166q-41 28 -92 29q-54 3 -104 -21q-101 -47 -143 -157z" />
<glyph unicode="&#xa9;" horiz-adv-x="982" d="M299 1162q36 188 184 318q147 132 322 132q174 0 270 -132q97 -130 61 -318q-36 -185 -185 -318q-149 -132 -321 -132t-270 132q-97 131 -61 318zM386 1162q-29 -147 48 -251q77 -105 214 -105q138 0 255 105q116 103 145 251q29 150 -47 252q-77 105 -214 105t-255 -105 q-118 -104 -146 -252zM483 1162q19 102 103 178q82 74 180 74l-1 -1q49 0 87 -20q37 -20 65 -54l-81 -71q-32 45 -89 45q-58 0 -109 -45q-49 -43 -61 -106q-12 -64 20 -107q33 -44 91 -44q56 0 108 44l52 -71q-38 -33 -86 -54q-44 -19 -94 -19q-97 0 -151 73t-34 178z" />
<glyph unicode="&#xad;" horiz-adv-x="690" d="M154 606l31 158h617l-30 -158h-618z" />
<glyph unicode="&#xae;" horiz-adv-x="982" d="M299 1162q36 188 184 318q147 132 322 132q174 0 270 -132q97 -130 61 -318q-36 -185 -185 -318q-149 -132 -321 -132t-270 132q-97 131 -61 318zM386 1162q-29 -147 48 -251q77 -105 214 -105q138 0 255 105q116 103 145 251q29 150 -47 252q-77 105 -214 105t-255 -105 q-118 -104 -146 -252zM516 914l96 498h151q72 0 111 -50q34 -49 22 -115l-2 -15q-9 -47 -49 -94q-27 -32 -75 -51l70 -173h-112l-82 195l-37 -195h-93zM659 1173l66 -1q23 0 46 20t29 52q6 29 -9 49q-14 20 -53 20h-52z" />
<glyph unicode="&#xb0;" horiz-adv-x="597" d="M326 1491q22 114 116 200q94 83 201 83t169 -83t39 -200q-22 -117 -116 -199q-94 -83 -201 -83t-169 83t-39 199zM459 1492q-12 -58 19 -98q29 -41 84 -41q53 0 99 41q45 39 57 98q11 58 -19 98q-30 41 -83 41q-52 0 -99 -41q-48 -41 -58 -98z" />
<glyph unicode="&#xb1;" horiz-adv-x="1813" d="M60 76l3 16l278 1428l3 16h15h1693h14l-3 -16l-277 -1428l-3 -16h-15h-1693h-15zM97 108h1662l271 1395h-1662zM170 234l156 507l189 -285l80 262l88 286l-193 -197l-72 197l-63 -205h-93l156 505l124 -331l328 331l-176 -572l-157 -507l-190 284l-84 -275h-93zM609 236 l154 498h276l-30 -99h-184l-32 -101h138l-30 -99h-139l-30 -100h185l-30 -99h-186h-92zM736 799l364 504l56 -504l5 -67l27 -272l192 272h20h80l-365 -507l-52 507l-10 74l-7 66v3h-157l-2 -4l-53 -72h-16h-3h-60h-19zM953 961h82l-9 104zM1189 798l48 148l54 174l53 173h92 h58q74 0 104 -50q31 -49 10 -114l-5 -15q-17 -51 -59 -93q-33 -35 -81 -51l50 -172h-113l-58 194l-60 -194h-93zM1363 1055l67 -1q22 0 47 20t33 51q9 31 -3 50q-14 20 -50 20h-51l-21 -69zM1593 944h94q-7 -22 3 -36q9 -15 28 -15q21 0 38 16q16 12 24 35q9 32 -10 41 q-4 2 -10.5 4.5t-7.5 2.5q-2 1 -4.5 2t-4 2.5t-2.5 1.5l1 4q-14 6 -22 9q-17 7 -37 24q-18 15 -29 44q-11 28 2 69q18 62 74 104q53 44 112 44q57 0 86 -44q26 -41 8 -104h-93q6 22 -3 36q-11 15 -29 15q-19 0 -37 -15q-17 -14 -25 -36q-8 -26 8 -41q15 -15 25 -17 q1 -1 7 -4q2 -1 16 -5q19 -7 40 -24q18 -15 31 -43q10 -26 -2 -70q-20 -62 -73 -105q-58 -44 -113 -44q-59 0 -86 44q-28 43 -9 105z" />
<glyph unicode="&#xb5;" horiz-adv-x="1813" d="M60 76l3 16l278 1428l3 16h15h1693h14l-3 -16l-277 -1428l-3 -16h-15h-1693h-15zM97 108h1662l271 1395h-1662zM170 234l156 507l189 -285l80 262l88 286l-193 -197l-72 197l-63 -205h-93l156 505l124 -331l328 331l-176 -572l-157 -507l-190 284l-84 -275h-93zM609 236 l154 498h276l-30 -99h-184l-32 -101h138l-30 -99h-139l-30 -100h185l-30 -99h-186h-92zM736 799l364 504l56 -504l5 -67l27 -272l192 272h20h80l-365 -507l-52 507l-10 74l-7 66v3h-157l-2 -4l-53 -72h-16h-3h-60h-19zM953 961h82l-9 104zM1189 798l48 148l54 174l53 173h92 h58q74 0 104 -50q31 -49 10 -114l-5 -15q-17 -51 -59 -93q-33 -35 -81 -51l50 -172h-113l-58 194l-60 -194h-93zM1363 1055l67 -1q22 0 47 20t33 51q9 31 -3 50q-14 20 -50 20h-51l-21 -69zM1593 944h94q-7 -22 3 -36q9 -15 28 -15q21 0 38 16q16 12 24 35q9 32 -10 41 q-4 2 -10.5 4.5t-7.5 2.5q-2 1 -4.5 2t-4 2.5t-2.5 1.5l1 4q-14 6 -22 9q-17 7 -37 24q-18 15 -29 44q-11 28 2 69q18 62 74 104q53 44 112 44q57 0 86 -44q26 -41 8 -104h-93q6 22 -3 36q-11 15 -29 15q-19 0 -37 -15q-17 -14 -25 -36q-8 -26 8 -41q15 -15 25 -17 q1 -1 7 -4q2 -1 16 -5q19 -7 40 -24q18 -15 31 -43q10 -26 -2 -70q-20 -62 -73 -105q-58 -44 -113 -44q-59 0 -86 44q-28 43 -9 105z" />
<glyph unicode="&#xb6;" horiz-adv-x="1813" d="M60 76l3 16l278 1428l3 16h15h1693h14l-3 -16l-277 -1428l-3 -16h-15h-1693h-15zM97 108h1662l271 1395h-1662zM170 234l156 507l189 -285l80 262l88 286l-193 -197l-72 197l-63 -205h-93l156 505l124 -331l328 331l-176 -572l-157 -507l-190 284l-84 -275h-93zM609 236 l154 498h276l-30 -99h-184l-32 -101h138l-30 -99h-139l-30 -100h185l-30 -99h-186h-92zM736 799l364 504l56 -504l5 -67l27 -272l192 272h20h80l-365 -507l-52 507l-10 74l-7 66v3h-157l-2 -4l-53 -72h-16h-3h-60h-19zM953 961h82l-9 104zM1189 798l48 148l54 174l53 173h92 h58q74 0 104 -50q31 -49 10 -114l-5 -15q-17 -51 -59 -93q-33 -35 -81 -51l50 -172h-113l-58 194l-60 -194h-93zM1363 1055l67 -1q22 0 47 20t33 51q9 31 -3 50q-14 20 -50 20h-51l-21 -69zM1593 944h94q-7 -22 3 -36q9 -15 28 -15q21 0 38 16q16 12 24 35q9 32 -10 41 q-4 2 -10.5 4.5t-7.5 2.5q-2 1 -4.5 2t-4 2.5t-2.5 1.5l1 4q-14 6 -22 9q-17 7 -37 24q-18 15 -29 44q-11 28 2 69q18 62 74 104q53 44 112 44q57 0 86 -44q26 -41 8 -104h-93q6 22 -3 36q-11 15 -29 15q-19 0 -37 -15q-17 -14 -25 -36q-8 -26 8 -41q15 -15 25 -17 q1 -1 7 -4q2 -1 16 -5q19 -7 40 -24q18 -15 31 -43q10 -26 -2 -70q-20 -62 -73 -105q-58 -44 -113 -44q-59 0 -86 44q-28 43 -9 105z" />
<glyph unicode="&#xbf;" horiz-adv-x="975" d="M137 86q-15 73 3 164q9 43 21 70q13 32 32 53q17 20 51 56q27 29 56 54h1q12 11 55 47q82 68 146 138q65 71 85 184l181 1q-26 -105 -73 -176q-28 -44 -67 -82q-45 -45 -86 -82q-30 -27 -59 -54l-32 -32l-9.5 -9.5l-11.5 -11.5l-9 -9q-39 -41 -58 -71q-28 -44 -34 -76 q-9 -43 -1 -88q9 -40 33 -72q23 -33 58 -50q36 -17 76 -17q42 0 85 17q36 14 77 50q36 33 60 73q9 17 12 24h192q-15 -49 -45 -101q-46 -76 -115 -138q-72 -63 -148 -95q-74 -31 -158 -31q-85 0 -146 31q-64 31 -111 95h-1q-47 62 -60 138zM602 1221q12 60 57 99 q47 41 104 41q55 0 87 -42q31 -45 19 -102q-12 -59 -58 -99q-47 -41 -103 -41t-87 42q-31 41 -19 102z" />
<glyph unicode="&#xc0;" horiz-adv-x="1261" d="M49 63l886 1501l302 -1501h-198l-55 245h-294h-293l-150 -245h-198zM496 468h225h227q-27 128 -55 301q-30 186 -53 302q-87 -146 -173 -302q-97 -175 -171 -301zM798 1944l115 84l134 -290l-53 -37z" />
<glyph unicode="&#xc1;" horiz-adv-x="1261" d="M49 63l886 1501l302 -1501h-198l-55 245h-294h-293l-150 -245h-198zM496 468h225h227q-27 128 -55 301q-30 186 -53 302q-87 -146 -173 -302q-97 -175 -171 -301zM891 1738l246 290l83 -84l-290 -243z" />
<glyph unicode="&#xc2;" horiz-adv-x="1261" d="M49 63l886 1501l302 -1501h-198l-55 245h-294h-293l-150 -245h-198zM496 468h225h227q-27 128 -55 301q-30 186 -53 302q-87 -146 -173 -302q-97 -175 -171 -301zM767 1701l19 24l221 281l16 21l8 -21l113 -281l9 -24h-26h-49h-9l-3 7l-55 136l-17 41l-32 -41l-106 -136 l-6 -7h-8h-48h-27z" />
<glyph unicode="&#xc3;" horiz-adv-x="1261" d="M49 63l886 1501l302 -1501h-198l-55 245h-294h-293l-150 -245h-198zM496 468h225h227q-27 128 -55 301q-30 186 -53 302q-87 -146 -173 -302q-97 -175 -171 -301zM671 1701l6 34l15 85l1 6l5 5q32 29 60 49q33 22 60 27q41 6 85 -4q52 -11 121 -50l11 -5q92 -50 160 -38 q47 7 112 60l29 25l-7 -36l-17 -81l-6 -11q-63 -57 -121 -61q-67 -6 -176 44l-14 7q-116 54 -164 47q-37 -4 -132 -80z" />
<glyph unicode="&#xc4;" horiz-adv-x="1261" d="M49 63l886 1501l302 -1501h-198l-55 245h-294h-293l-150 -245h-198zM496 468h225h227q-27 128 -55 301q-30 186 -53 302q-87 -146 -173 -302q-97 -175 -171 -301zM703 1775q6 27 31 51q22 22 52 22q28 0 44 -22t10 -51q-6 -31 -30 -52q-23 -22 -52 -22t-44 22 q-17 23 -11 52zM1123 1775q6 30 30 51q22 22 52 22q29 0 44 -22q16 -20 10 -51q-6 -33 -30 -52q-23 -22 -53 -22q-28 0 -43 22q-16 19 -10 52z" />
<glyph unicode="&#xc5;" horiz-adv-x="1261" d="M49 63l886 1501l302 -1501h-198l-55 245h-294h-293l-150 -245h-198zM496 468h225h227q-27 128 -55 301q-30 186 -53 302q-87 -146 -173 -302q-97 -175 -171 -301zM824 1725q-6 32 0 65q6 29 25 65q19 31 44 55q29 24 58 36q32 13 63 13t58 -13q23 -11 44 -36 q19 -30 23 -55q7 -32 0 -65q-7 -37 -25 -65q-14 -27 -44 -55q-32 -26 -58 -36q-29 -13 -63 -13q-35 0 -57 13q-27 10 -45 36q-17 24 -23 55zM890 1789q-8 -42 13 -70q10 -13 26 -21t33 -8q16 0 37 8q20 8 34 21q11 10 25 32q13 24 15 38q3 18 0 38q-5 20 -13 32 q-10 13 -26 21q-18 8 -34 8q-17 0 -36 -8q-17 -6 -33 -21q-19 -17 -27 -32q-9 -14 -14 -38z" />
<glyph unicode="&#xc6;" horiz-adv-x="1648" d="M49 67l920 1490h201h62h682l-38 -198h-543h-59l-12 -63l-63 -325l-12 -62h58h393l-39 -198h-392h-59l-12 -63l-63 -325l-12 -62h58h544l-39 -198h-543h-244l48 247h-452h-41l-22 -42l-4 -10l-118 -191h-15h-13h-171zM497 471l93 2l329 7l12 61l149 765l12 63h-3h-4h-4h-8 h2h1h1h1h-1h-1h-1h-1h-1h-1h-1h-1h-1h-1h-1h-1h-1h-9l-22 -36l-481 -772z" />
<glyph unicode="&#xc7;" horiz-adv-x="1229" d="M188 515q-26 133 5 289q32 162 107 290q77 134 202 246q123 110 259 167q104 42 203 52h76q71 0 137 -15q68 -16 125 -44h-1q57 -29 107 -70q36 -32 53 -50l-161 -144q-50 50 -109 81q-87 41 -188 41q-106 0 -206 -41q-100 -43 -190 -123q-88 -79 -147 -179 q-56 -96 -79 -212q-22 -114 -4 -212q21 -102 79 -179q58 -81 142 -121q87 -41 189 -41q103 0 206 41q71 29 139 80l106 -143q-34 -26 -72 -49q-65 -42 -135 -71h1q-53 -21 -88 -31q-49 -13 -88 -19l-51 -8l-10 -53q-10 -53 -35 -127q-25 -64 -48 -104q-50 -84 -103 -139 q-54 -55 -88 -82l-77 108q49 36 101 86q45 47 85 126q28 56 47 128l15 57l-53 8q-108 17 -192 70q-87 52 -152 143q-81 107 -107 244z" />
<glyph unicode="&#xc8;" d="M103 63l291 1494h786l-38 -199h-543h-59l-12 -62l-63 -324l-12 -63h58h394l-39 -198h-393h-59l-12 -63l-63 -324l-12 -62h59h543l-39 -199h-543h-244zM718 1944l115 84l133 -290l-52 -37z" />
<glyph unicode="&#xc9;" d="M102 59l291 1494h787l-39 -198h-544h-58l-12 -62l-63 -325l-12 -63h58h393l-38 -198h-394h-58l-12 -62l-63 -325l-12 -63h58h544l-39 -198h-544h-243zM678 1738l246 290l82 -84l-290 -243z" />
<glyph unicode="&#xca;" d="M102 59l291 1494h787l-39 -198h-544h-58l-12 -62l-63 -325l-12 -63h58h393l-38 -198h-394h-58l-12 -62l-63 -325l-12 -63h58h544l-39 -198h-544h-243zM623 1701l18 24l220 281l16 21l8 -21l113 -281l10 -24h-26h-50h-8l-3 7l-55 136l-16 41l-33 -41l-107 -136l-6 -7h-7 h-48h-26z" />
<glyph unicode="&#xcb;" d="M102 59l291 1494h787l-39 -198h-544h-58l-12 -62l-63 -325l-12 -63h58h393l-38 -198h-394h-58l-12 -62l-63 -325l-12 -63h58h544l-39 -198h-544h-243zM551 1775q6 29 31 51q22 22 52 22q29 0 44 -22q16 -20 10 -51q-6 -32 -31 -52q-23 -22 -51 -22q-29 0 -44 22 q-17 20 -11 52zM971 1775q6 31 29 51q23 22 53 22q29 0 44 -22q16 -22 10 -51t-30 -52q-23 -22 -53 -22q-28 0 -44 22q-15 21 -9 52z" />
<glyph unicode="&#xcc;" horiz-adv-x="410" d="M147 63l289 1487h185l-289 -1487h-185zM378 1944l114 84l133 -290l-53 -37z" />
<glyph unicode="&#xcd;" horiz-adv-x="388" d="M103 63l289 1487h185l-289 -1487h-185zM438 1738l246 290l82 -84l-289 -243z" />
<glyph unicode="&#xce;" horiz-adv-x="384" d="M112 63l289 1487h185l-289 -1487h-185zM331 1701l18 24l219 281l17 21l8 -21l112 -281l10 -24h-26h-50h-7l-3 7l-56 136l-16 41l-32 -41l-107 -136l-6 -7h-8h-47h-26z" />
<glyph unicode="&#xcf;" horiz-adv-x="555" d="M197 63l289 1487h185l-289 -1487h-185zM345 1775q6 29 30 51q23 22 53 22q28 0 44 -22q15 -22 9 -51q-6 -30 -29 -52t-53 -22q-29 0 -44 22q-16 22 -10 52zM764 1775q6 30 30 51q22 22 52 22q29 0 44 -22q16 -20 10 -51q-6 -33 -30 -52q-23 -22 -53 -22q-28 0 -43 22 q-16 19 -10 52z" />
<glyph unicode="&#xd0;" horiz-adv-x="1201" d="M170 63l119 614l12 63h-57h-73l23 119h73h57l10 51l126 644h313q149 0 269 -57q117 -55 197 -163l1 -1q71 -96 91 -239q19 -139 -9 -286q-28 -148 -102 -288q-73 -138 -185 -238l-1 -1q-124 -109 -260 -162q-141 -56 -291 -56h-313zM393 262h58h71h1q113 0 211 37 q96 35 185 113q84 75 139 176q55 102 78 221q22 115 7 220q-17 104 -70 177q-56 75 -142 113q-84 37 -198 37h-69h-58l-12 -62l-75 -384l-9 -51h57l210 -1l-23 -119h-210l-58 1l-12 -63l-68 -353z" />
<glyph unicode="&#xd1;" horiz-adv-x="1270" d="M102 59l293 1506l705 -1021l34 177l162 832h185l-295 -1517l-702 1035l-22 -114l-174 -898h-186zM653 1701l6 34l15 85l1 6l5 5q32 29 60 49q33 22 60 27q41 6 85 -4q52 -11 121 -50l11 -5q92 -50 160 -38q47 7 112 60l29 25l-7 -36l-17 -81l-6 -11q-64 -56 -121 -61 q-67 -6 -176 44l-14 7q-116 54 -164 47q-37 -4 -132 -80z" />
<glyph unicode="&#xd2;" horiz-adv-x="1478" d="M188 516q-26 133 5 289q30 158 107 289q76 131 202 246q123 110 260 167q131 55 280 55q148 0 258 -55q111 -55 195 -168q83 -113 108 -244q26 -137 -4 -290q-30 -157 -108 -290q-75 -132 -203 -244q-125 -111 -260 -166t-280 -55q-146 0 -259 55t-194 166 q-83 111 -107 245zM377 595q18 -97 79 -179q56 -80 142 -121q87 -41 190 -41q102 0 204 41q97 39 190 121q95 85 148 179q59 98 81 212q22 110 2 212q-20 97 -78 179q-56 77 -144 122q-85 41 -188 41q-104 0 -206 -41q-101 -43 -189 -122q-95 -85 -148 -179 q-56 -96 -79 -212q-22 -114 -4 -212zM940 1944l116 84l132 -290l-53 -37z" />
<glyph unicode="&#xd3;" horiz-adv-x="1478" d="M188 516q-26 133 5 289q30 158 107 289q76 131 202 246q123 110 260 167q131 55 280 55q148 0 258 -55q111 -55 195 -168q83 -113 108 -244q26 -137 -4 -290q-30 -157 -108 -290q-75 -132 -203 -244q-125 -111 -260 -166t-280 -55q-146 0 -259 55t-194 166 q-83 111 -107 245zM377 595q18 -97 79 -179q56 -80 142 -121q87 -41 190 -41q102 0 204 41q97 39 190 121q95 85 148 179q59 98 81 212q22 110 2 212q-20 97 -78 179q-56 77 -144 122q-85 41 -188 41q-104 0 -206 -41q-101 -43 -189 -122q-95 -85 -148 -179 q-57 -100 -79 -212q-22 -114 -4 -212zM993 1738l246 290l82 -84l-290 -243z" />
<glyph unicode="&#xd4;" horiz-adv-x="1478" d="M188 516q-26 133 5 289q30 158 107 289q76 131 202 246q123 110 260 167q131 55 280 55q148 0 258 -55q111 -55 195 -168q83 -113 108 -244q26 -137 -4 -290q-30 -157 -108 -290q-75 -132 -203 -244q-125 -111 -260 -166t-280 -55q-146 0 -259 55t-194 166 q-83 111 -107 245zM377 595q18 -97 79 -179q56 -80 142 -121q87 -41 190 -41q102 0 204 41q97 39 190 121q95 85 148 179q59 98 81 212q22 110 2 212q-20 97 -78 179q-56 77 -144 122q-85 41 -188 41q-104 0 -206 -41q-101 -43 -189 -122q-95 -85 -148 -179 q-57 -100 -79 -212q-22 -114 -4 -212zM878 1701l18 24l220 281l17 21l8 -21l112 -281l10 -24h-26h-50h-8l-2 7l-56 136l-16 41l-33 -41l-107 -136l-6 -7h-7h-48h-26z" />
<glyph unicode="&#xd5;" horiz-adv-x="1478" d="M188 516q-26 133 5 289q30 158 107 289q76 131 202 246q123 110 260 167q131 55 280 55q148 0 258 -55q111 -55 195 -168q83 -113 108 -244q26 -137 -4 -290q-30 -157 -108 -290q-75 -132 -203 -244q-125 -111 -260 -166t-280 -55q-146 0 -259 55t-194 166 q-83 111 -107 245zM377 595q18 -97 79 -179q56 -80 142 -121q87 -41 190 -41q102 0 204 41q97 39 190 121q95 85 148 179q59 98 81 212q22 110 2 212q-20 97 -78 179q-56 77 -144 122q-85 41 -188 41q-104 0 -206 -41q-101 -43 -189 -122q-95 -85 -148 -179 q-57 -100 -79 -212q-22 -114 -4 -212zM758 1701l5 34l15 85l1 6l6 5q32 29 60 49q31 22 60 27q40 6 84 -4q53 -12 122 -50l10 -5q92 -50 160 -38q47 7 112 60l29 25l-7 -36l-17 -81l-5 -11q-64 -56 -122 -61q-67 -6 -176 44l-14 7q-116 54 -164 47q-38 -6 -132 -80z" />
<glyph unicode="&#xd6;" horiz-adv-x="1478" d="M188 516q-26 133 5 289q30 158 107 289q76 131 202 246q123 110 260 167q131 55 280 55q148 0 258 -55q111 -55 195 -168q83 -113 108 -244q26 -137 -4 -290q-30 -157 -108 -290q-75 -132 -203 -244q-125 -111 -260 -166t-280 -55q-146 0 -259 55t-194 166 q-83 111 -107 245zM377 595q18 -97 79 -179q56 -80 142 -121q87 -41 190 -41q102 0 204 41q97 39 190 121q95 85 148 179q59 98 81 212q22 110 2 212q-20 97 -78 179q-56 77 -144 122q-85 41 -188 41q-104 0 -206 -41q-101 -43 -189 -122q-95 -85 -148 -179 q-57 -100 -79 -212q-22 -114 -4 -212zM806 1775q6 29 31 51q22 22 52 22q29 0 44 -22q16 -20 10 -51q-6 -33 -30 -52q-23 -22 -52 -22t-44 22q-17 20 -11 52zM1226 1775q6 31 29 51q23 22 53 22q29 0 44 -22q17 -23 11 -51t-31 -52q-23 -22 -53 -22q-28 0 -44 22 q-15 21 -9 52z" />
<glyph unicode="&#xd7;" horiz-adv-x="1813" d="M60 76l3 16l278 1428l3 16h15h1693h14l-3 -16l-277 -1428l-3 -16h-15h-1693h-15zM97 108h1662l271 1395h-1662zM170 234l156 507l189 -285l80 262l88 286l-193 -197l-72 197l-63 -205h-93l156 505l124 -331l328 331l-176 -572l-157 -507l-190 284l-84 -275h-93zM609 236 l154 498h276l-30 -99h-184l-32 -101h138l-30 -99h-139l-30 -100h185l-30 -99h-186h-92zM736 799l364 504l56 -504l5 -67l27 -272l192 272h20h80l-365 -507l-52 507l-10 74l-7 66v3h-157l-2 -4l-53 -72h-16h-3h-60h-19zM953 961h82l-9 104zM1189 798l48 148l54 174l53 173h92 h58q74 0 104 -50q31 -49 10 -114l-5 -15q-17 -51 -59 -93q-33 -35 -81 -51l50 -172h-113l-58 194l-60 -194h-93zM1363 1055l67 -1q22 0 47 20t33 51q9 31 -3 50q-14 20 -50 20h-51l-21 -69zM1593 944h94q-7 -22 3 -36q9 -15 28 -15q21 0 38 16q16 12 24 35q9 32 -10 41 q-4 2 -10.5 4.5t-7.5 2.5q-2 1 -4.5 2t-4 2.5t-2.5 1.5l1 4q-14 6 -22 9q-17 7 -37 24q-18 15 -29 44q-11 28 2 69q18 62 74 104q53 44 112 44q57 0 86 -44q26 -41 8 -104h-93q6 22 -3 36q-11 15 -29 15q-19 0 -37 -15q-17 -14 -25 -36q-8 -26 8 -41q15 -15 25 -17 q1 -1 7 -4q2 -1 16 -5q19 -7 40 -24q18 -15 31 -43q10 -26 -2 -70q-20 -62 -73 -105q-58 -44 -113 -44q-59 0 -86 44q-28 43 -9 105z" />
<glyph unicode="&#xd8;" horiz-adv-x="1478" d="M187 514q-25 128 6 290q30 158 107 289q76 134 202 245q124 112 259 167q136 56 281 56q38 0 70 -3q38 -6 66 -11l48 -10l26 51l85 168h113l-106 -208l-26 -50l39 -25q38 -26 73 -59q30 -30 65 -76q84 -116 108 -245q26 -135 -4 -289q-29 -153 -109 -290 q-78 -135 -202 -244q-130 -115 -260 -166q-131 -55 -280 -55q-9 0 -61 2q-40 3 -56 7l-47 9l-25 -50l-82 -159h-113l99 192l26 51l-40 25q-47 28 -82 62q-42 38 -73 82q-81 107 -107 244zM377 593q18 -99 79 -178q14 -22 36 -44q34 -32 41 -37l54 -42l39 75l464 907l39 74 l-72 8q-22 2 -28 2q-7 1 -26 1q-107 0 -206 -41q-101 -41 -190 -122q-91 -81 -148 -179q-56 -98 -78 -211q-22 -114 -4 -213zM682 258l76 -4q2 -1 15 -1h11h4q108 0 204 40q103 44 190 122q93 82 148 178q57 96 80 213q22 111 2 211q-18 97 -77 180q-8 10 -29 34l-30 30 l-54 48l-42 -79l-458 -894z" />
<glyph unicode="&#xd9;" horiz-adv-x="1277" d="M210 410q-19 102 5 226l63 326l114 588h187l-114 -588l-57 -291l-6 -34q-15 -79 -2 -148q12 -65 55 -125q40 -57 100 -85q58 -29 132 -29q70 0 143 29q68 28 132 85q65 55 106 125q40 69 55 148l7 34l57 291l114 588h187l-114 -588l-64 -326q-24 -121 -83 -226 q-62 -105 -158 -190v-1q-102 -88 -203 -129q-102 -43 -217 -43q-116 0 -203 42q-89 43 -152 131q-64 85 -84 190zM872 1944l115 84l134 -290l-53 -37z" />
<glyph unicode="&#xda;" horiz-adv-x="1277" d="M210 410q-19 102 5 226l63 326l114 588h187l-114 -588l-57 -291l-6 -34q-15 -79 -2 -148q12 -65 55 -125q40 -57 100 -85q58 -29 132 -29q70 0 143 29q68 28 132 85q65 55 106 125q40 69 55 148l7 34l57 291l114 588h187l-114 -588l-64 -326q-24 -121 -83 -226 q-62 -105 -158 -190v-1q-102 -88 -203 -129q-102 -43 -217 -43q-116 0 -203 42q-89 43 -152 131q-64 85 -84 190zM832 1738l247 290l82 -84l-290 -243z" />
<glyph unicode="&#xdb;" horiz-adv-x="1277" d="M210 410q-19 102 5 226l63 326l114 588h187l-114 -588l-57 -291l-6 -34q-15 -79 -2 -148q12 -65 55 -125q40 -57 100 -85q58 -29 132 -29q70 0 143 29q68 28 132 85q65 55 106 125q40 69 55 148l7 34l57 291l114 588h187l-114 -588l-64 -326q-24 -121 -83 -226 q-62 -105 -158 -190v-1q-102 -88 -203 -129q-102 -43 -217 -43q-116 0 -203 42q-89 43 -152 131q-64 85 -84 190zM777 1701l19 24l220 281l16 21l8 -21l113 -281l9 -24h-26h-49h-9l-2 7l-56 136l-16 41l-32 -41l-107 -136l-6 -7h-8h-48h-26z" />
<glyph unicode="&#xdc;" horiz-adv-x="1277" d="M210 410q-19 102 5 226l63 326l114 588h187l-114 -588l-57 -291l-6 -34q-15 -79 -2 -148q12 -65 55 -125q40 -57 100 -85q58 -29 132 -29q70 0 143 29q68 28 132 85q65 55 106 125q40 69 55 148l7 34l57 291l114 588h187l-114 -588l-64 -326q-24 -121 -83 -226 q-62 -105 -158 -190v-1q-102 -88 -203 -129q-102 -43 -217 -43q-116 0 -203 42q-89 43 -152 131q-64 85 -84 190zM706 1775q6 30 30 51q22 22 53 22q28 0 43 -22q16 -20 10 -51q-6 -33 -30 -52q-23 -22 -52 -22t-44 22q-16 19 -10 52zM1125 1775q6 29 31 51q22 22 51 22 t44 -22q17 -23 11 -51t-31 -52q-23 -22 -52 -22q-28 0 -43 22q-17 20 -11 52z" />
<glyph unicode="&#xdd;" horiz-adv-x="1106" d="M338 1550h208l154 -526l31 -105l72 105l359 526h209l-580 -829l-12 -30l-122 -628h-183l122 628l-2 30zM781 1730l246 290l82 -84l-289 -243z" />
<glyph unicode="&#xde;" horiz-adv-x="1033" d="M103 63l289 1487h183l-41 -215l-12 -62h58h230q84 0 160 -35q74 -38 120 -102q48 -65 66 -151q15 -88 -3 -179q-17 -93 -67 -178q-52 -89 -124 -152q-78 -69 -160 -101q-87 -35 -173 -35h-230h-59l-12 -63l-42 -214h-183zM374 512h58h230q55 0 110 23q52 21 100 63 q46 40 78 96q33 58 43 112q12 57 1 113q-10 52 -41 95q-63 86 -177 86h-229h-59l-12 -62l-90 -463z" />
<glyph unicode="&#xdf;" horiz-adv-x="1812" d="M107 359l193 43q14 -68 68 -110t122 -42q44 3 89 21q44 18 83 46q39 29 68 71q28 41 37 90q9 38 -1 75q-9 35 -30 59q-23 26 -54 46q-30 19 -65 34q-29 12 -70 25q-84 26 -149 71t-104 113q-27 48 -36 107q-9 57 4 125q17 88 63 166q47 78 113 137q68 61 146 93 q79 33 162 33q71 0 135 -28q62 -27 106 -77q75 -85 82 -208l-192 -42q-6 44 -34 85q-48 66 -135 66q-44 0 -84 -17q-43 -18 -78 -49t-60 -74q-24 -43 -33 -86q-6 -33 -3 -62q3 -27 14 -49t29 -40q20 -20 38 -31q29 -18 45 -25q32 -14 47 -20q6 -2 22 -7.5t26 -9.5 q40 -16 41 -16q49 -21 88 -45q37 -23 75 -63q33 -35 57 -79q21 -39 29 -97q8 -55 -4 -112q-16 -87 -68 -169q-50 -79 -120 -137q-69 -57 -153 -90q-87 -34 -164 -34q-90 0 -165 39q-77 40 -124 111q-47 70 -56 163zM1018 359l194 43q14 -69 67 -110q54 -42 123 -42 q43 3 88 21q47 19 84 46t67 71q29 43 38 90q9 38 -1 75q-9 35 -30 59q-23 26 -54 46q-30 19 -65 34q-29 12 -70 25q-86 27 -150 71q-63 44 -103 113q-27 48 -36 107q-9 57 4 125q17 88 63 166q48 80 112 137q67 60 147 93t161 33q72 0 136 -28q62 -27 106 -77 q75 -85 82 -208l-193 -42q-6 44 -34 85q-48 66 -135 66q-44 0 -84 -17q-41 -18 -77 -49q-37 -33 -61 -74q-24 -43 -33 -86q-6 -33 -3 -62q3 -27 14 -49t29 -40q20 -20 38 -31q27 -16 46 -25q32 -14 47 -20q6 -2 21.5 -7.5t25.5 -9.5q7 -3 22 -8.5t20 -7.5q46 -20 87 -45 q37 -23 75 -63q33 -35 57 -79q22 -42 30 -97t-4 -112q-16 -87 -68 -169q-49 -77 -121 -137q-70 -58 -152 -90q-87 -34 -165 -34q-89 0 -164 39q-77 40 -124 111q-48 72 -57 163z" />
<glyph unicode="&#xe0;" horiz-adv-x="1261" d="M49 63l886 1501l302 -1501h-198l-55 245h-294h-293l-150 -245h-198zM496 468h225h227q-27 128 -55 301q-30 186 -53 302q-87 -146 -173 -302q-97 -175 -171 -301zM798 1944l115 84l134 -290l-53 -37z" />
<glyph unicode="&#xe1;" horiz-adv-x="1261" d="M49 63l886 1501l302 -1501h-198l-55 245h-294h-293l-150 -245h-198zM496 468h225h227q-27 128 -55 301q-30 186 -53 302q-87 -146 -173 -302q-97 -175 -171 -301zM891 1738l246 290l83 -84l-290 -243z" />
<glyph unicode="&#xe2;" horiz-adv-x="1261" d="M49 63l886 1501l302 -1501h-198l-55 245h-294h-293l-150 -245h-198zM496 468h225h227q-27 128 -55 301q-30 186 -53 302q-87 -146 -173 -302q-97 -175 -171 -301zM767 1701l19 24l221 281l16 21l8 -21l113 -281l9 -24h-26h-49h-9l-3 7l-55 136l-17 41l-32 -41l-106 -136 l-6 -7h-8h-48h-27z" />
<glyph unicode="&#xe3;" horiz-adv-x="1261" d="M49 63l886 1501l302 -1501h-198l-55 245h-294h-293l-150 -245h-198zM496 468h225h227q-27 128 -55 301q-30 186 -53 302q-87 -146 -173 -302q-97 -175 -171 -301zM671 1701l6 34l15 85l1 6l5 5q32 29 60 49q33 22 60 27q41 6 85 -4q52 -11 121 -50l11 -5q92 -50 160 -38 q47 7 112 60l29 25l-7 -36l-17 -81l-6 -11q-63 -57 -121 -61q-67 -6 -176 44l-14 7q-116 54 -164 47q-37 -4 -132 -80z" />
<glyph unicode="&#xe4;" horiz-adv-x="1261" d="M49 63l886 1501l302 -1501h-198l-55 245h-294h-293l-150 -245h-198zM496 468h225h227q-27 128 -55 301q-30 186 -53 302q-87 -146 -173 -302q-97 -175 -171 -301zM703 1775q6 27 31 51q22 22 52 22q28 0 44 -22t10 -51q-6 -31 -30 -52q-23 -22 -52 -22t-44 22 q-17 23 -11 52zM1123 1775q6 30 30 51q22 22 52 22q29 0 44 -22q16 -20 10 -51q-6 -33 -30 -52q-23 -22 -53 -22q-28 0 -43 22q-16 19 -10 52z" />
<glyph unicode="&#xe5;" horiz-adv-x="1261" d="M49 63l886 1501l302 -1501h-198l-55 245h-294h-293l-150 -245h-198zM496 468h225h227q-27 128 -55 301q-30 186 -53 302q-87 -146 -173 -302q-97 -175 -171 -301zM824 1725q-6 32 0 65q6 29 25 65q19 31 44 55q29 24 58 36q32 13 63 13t58 -13q23 -11 44 -36 q19 -30 23 -55q7 -32 0 -65q-7 -37 -25 -65q-14 -27 -44 -55q-32 -26 -58 -36q-29 -13 -63 -13q-35 0 -57 13q-27 10 -45 36q-17 24 -23 55zM890 1789q-8 -42 13 -70q10 -13 26 -21t33 -8q16 0 37 8q20 8 34 21q11 10 25 32q13 24 15 38q3 18 0 38q-5 20 -13 32 q-10 13 -26 21q-18 8 -34 8q-17 0 -36 -8q-17 -6 -33 -21q-19 -17 -27 -32q-9 -14 -14 -38z" />
<glyph unicode="&#xe6;" horiz-adv-x="1648" d="M49 67l920 1490h201h62h682l-38 -198h-543h-59l-12 -63l-63 -325l-12 -62h58h393l-39 -198h-392h-59l-12 -63l-63 -325l-12 -62h58h544l-39 -198h-543h-244l48 247h-452h-41l-22 -42l-4 -10l-118 -191h-15h-13h-171zM497 471l93 2l329 7l12 61l149 765l12 63h-3h-4h-4h-8 h2h1h1h1h-1h-1h-1h-1h-1h-1h-1h-1h-1h-1h-1h-1h-1h-9l-22 -36l-481 -772z" />
<glyph unicode="&#xe7;" horiz-adv-x="1229" d="M188 515q-26 133 5 289q32 162 107 290q77 134 202 246q123 110 259 167q104 42 203 52h76q71 0 137 -15q68 -16 125 -44h-1q57 -29 107 -70q36 -32 53 -50l-161 -144q-50 50 -109 81q-87 41 -188 41q-106 0 -206 -41q-100 -43 -190 -123q-88 -79 -147 -179 q-56 -96 -79 -212q-22 -114 -4 -212q21 -102 79 -179q58 -81 142 -121q87 -41 189 -41q103 0 206 41q71 29 139 80l106 -143q-34 -26 -72 -49q-65 -42 -135 -71h1q-53 -21 -88 -31q-49 -13 -88 -19l-51 -8l-10 -53q-10 -53 -35 -127q-25 -64 -48 -104q-50 -84 -103 -139 q-54 -55 -88 -82l-77 108q49 36 101 86q45 47 85 126q28 56 47 128l15 57l-53 8q-108 17 -192 70q-87 52 -152 143q-81 107 -107 244z" />
<glyph unicode="&#xe8;" d="M103 63l291 1494h786l-38 -199h-543h-59l-12 -62l-63 -324l-12 -63h58h394l-39 -198h-393h-59l-12 -63l-63 -324l-12 -62h59h543l-39 -199h-543h-244zM718 1944l115 84l133 -290l-52 -37z" />
<glyph unicode="&#xe9;" d="M102 59l291 1494h787l-39 -198h-544h-58l-12 -62l-63 -325l-12 -63h58h393l-38 -198h-394h-58l-12 -62l-63 -325l-12 -63h58h544l-39 -198h-544h-243zM678 1738l246 290l82 -84l-290 -243z" />
<glyph unicode="&#xea;" d="M102 59l291 1494h787l-39 -198h-544h-58l-12 -62l-63 -325l-12 -63h58h393l-38 -198h-394h-58l-12 -62l-63 -325l-12 -63h58h544l-39 -198h-544h-243zM623 1701l18 24l220 281l16 21l8 -21l113 -281l10 -24h-26h-50h-8l-3 7l-55 136l-16 41l-33 -41l-107 -136l-6 -7h-7 h-48h-26z" />
<glyph unicode="&#xeb;" d="M102 59l291 1494h787l-39 -198h-544h-58l-12 -62l-63 -325l-12 -63h58h393l-38 -198h-394h-58l-12 -62l-63 -325l-12 -63h58h544l-39 -198h-544h-243zM551 1775q6 29 31 51q22 22 52 22q29 0 44 -22q16 -20 10 -51q-6 -32 -31 -52q-23 -22 -51 -22q-29 0 -44 22 q-17 20 -11 52zM971 1775q6 31 29 51q23 22 53 22q29 0 44 -22q16 -22 10 -51t-30 -52q-23 -22 -53 -22q-28 0 -44 22q-15 21 -9 52z" />
<glyph unicode="&#xec;" horiz-adv-x="410" d="M147 63l289 1487h185l-289 -1487h-185zM378 1944l114 84l133 -290l-53 -37z" />
<glyph unicode="&#xed;" horiz-adv-x="388" d="M103 63l289 1487h185l-289 -1487h-185zM438 1738l246 290l82 -84l-289 -243z" />
<glyph unicode="&#xee;" horiz-adv-x="384" d="M112 63l289 1487h185l-289 -1487h-185zM331 1701l18 24l219 281l17 21l8 -21l112 -281l10 -24h-26h-50h-7l-3 7l-56 136l-16 41l-32 -41l-107 -136l-6 -7h-8h-47h-26z" />
<glyph unicode="&#xef;" horiz-adv-x="555" d="M197 63l289 1487h185l-289 -1487h-185zM345 1775q6 29 30 51q23 22 53 22q28 0 44 -22q15 -22 9 -51q-6 -30 -29 -52t-53 -22q-29 0 -44 22q-16 22 -10 52zM764 1775q6 30 30 51q22 22 52 22q29 0 44 -22q16 -20 10 -51q-6 -33 -30 -52q-23 -22 -53 -22q-28 0 -43 22 q-16 19 -10 52z" />
<glyph unicode="&#xf0;" horiz-adv-x="1201" d="M170 63l119 614l12 63h-57h-73l23 119h73h57l10 51l126 644h313q149 0 269 -57q117 -55 197 -163l1 -1q71 -96 91 -239q19 -139 -9 -286q-28 -148 -102 -288q-73 -138 -185 -238l-1 -1q-124 -109 -260 -162q-141 -56 -291 -56h-313zM393 262h58h71h1q113 0 211 37 q96 35 185 113q84 75 139 176q55 102 78 221q22 115 7 220q-17 104 -70 177q-56 75 -142 113q-84 37 -198 37h-69h-58l-12 -62l-75 -384l-9 -51h57l210 -1l-23 -119h-210l-58 1l-12 -63l-68 -353z" />
<glyph unicode="&#xf1;" horiz-adv-x="1270" d="M102 59l293 1506l705 -1021l34 177l162 832h185l-295 -1517l-702 1035l-22 -114l-174 -898h-186zM653 1701l6 34l15 85l1 6l5 5q32 29 60 49q33 22 60 27q41 6 85 -4q52 -11 121 -50l11 -5q92 -50 160 -38q47 7 112 60l29 25l-7 -36l-17 -81l-6 -11q-64 -56 -121 -61 q-67 -6 -176 44l-14 7q-116 54 -164 47q-37 -4 -132 -80z" />
<glyph unicode="&#xf2;" horiz-adv-x="1478" d="M188 516q-26 133 5 289q30 158 107 289q76 131 202 246q123 110 260 167q131 55 280 55q148 0 258 -55q111 -55 195 -168q83 -113 108 -244q26 -137 -4 -290q-30 -157 -108 -290q-75 -132 -203 -244q-125 -111 -260 -166t-280 -55q-146 0 -259 55t-194 166 q-83 111 -107 245zM377 595q18 -97 79 -179q56 -80 142 -121q87 -41 190 -41q102 0 204 41q97 39 190 121q95 85 148 179q59 98 81 212q22 110 2 212q-20 97 -78 179q-56 77 -144 122q-85 41 -188 41q-104 0 -206 -41q-101 -43 -189 -122q-95 -85 -148 -179 q-56 -96 -79 -212q-22 -114 -4 -212zM940 1944l116 84l132 -290l-53 -37z" />
<glyph unicode="&#xf3;" horiz-adv-x="1478" d="M188 516q-26 133 5 289q30 158 107 289q76 131 202 246q123 110 260 167q131 55 280 55q148 0 258 -55q111 -55 195 -168q83 -113 108 -244q26 -137 -4 -290q-30 -157 -108 -290q-75 -132 -203 -244q-125 -111 -260 -166t-280 -55q-146 0 -259 55t-194 166 q-83 111 -107 245zM377 595q18 -97 79 -179q56 -80 142 -121q87 -41 190 -41q102 0 204 41q97 39 190 121q95 85 148 179q59 98 81 212q22 110 2 212q-20 97 -78 179q-56 77 -144 122q-85 41 -188 41q-104 0 -206 -41q-101 -43 -189 -122q-95 -85 -148 -179 q-57 -100 -79 -212q-22 -114 -4 -212zM993 1738l246 290l82 -84l-290 -243z" />
<glyph unicode="&#xf4;" horiz-adv-x="1478" d="M188 516q-26 133 5 289q30 158 107 289q76 131 202 246q123 110 260 167q131 55 280 55q148 0 258 -55q111 -55 195 -168q83 -113 108 -244q26 -137 -4 -290q-30 -157 -108 -290q-75 -132 -203 -244q-125 -111 -260 -166t-280 -55q-146 0 -259 55t-194 166 q-83 111 -107 245zM377 595q18 -97 79 -179q56 -80 142 -121q87 -41 190 -41q102 0 204 41q97 39 190 121q95 85 148 179q59 98 81 212q22 110 2 212q-20 97 -78 179q-56 77 -144 122q-85 41 -188 41q-104 0 -206 -41q-101 -43 -189 -122q-95 -85 -148 -179 q-57 -100 -79 -212q-22 -114 -4 -212zM878 1701l18 24l220 281l17 21l8 -21l112 -281l10 -24h-26h-50h-8l-2 7l-56 136l-16 41l-33 -41l-107 -136l-6 -7h-7h-48h-26z" />
<glyph unicode="&#xf5;" horiz-adv-x="1478" d="M188 516q-26 133 5 289q30 158 107 289q76 131 202 246q123 110 260 167q131 55 280 55q148 0 258 -55q111 -55 195 -168q83 -113 108 -244q26 -137 -4 -290q-30 -157 -108 -290q-75 -132 -203 -244q-125 -111 -260 -166t-280 -55q-146 0 -259 55t-194 166 q-83 111 -107 245zM377 595q18 -97 79 -179q56 -80 142 -121q87 -41 190 -41q102 0 204 41q97 39 190 121q95 85 148 179q59 98 81 212q22 110 2 212q-20 97 -78 179q-56 77 -144 122q-85 41 -188 41q-104 0 -206 -41q-101 -43 -189 -122q-95 -85 -148 -179 q-57 -100 -79 -212q-22 -114 -4 -212zM758 1701l5 34l15 85l1 6l6 5q32 29 60 49q31 22 60 27q40 6 84 -4q53 -12 122 -50l10 -5q92 -50 160 -38q47 7 112 60l29 25l-7 -36l-17 -81l-5 -11q-64 -56 -122 -61q-67 -6 -176 44l-14 7q-116 54 -164 47q-38 -6 -132 -80z" />
<glyph unicode="&#xf6;" horiz-adv-x="1478" d="M188 516q-26 133 5 289q30 158 107 289q76 131 202 246q123 110 260 167q131 55 280 55q148 0 258 -55q111 -55 195 -168q83 -113 108 -244q26 -137 -4 -290q-30 -157 -108 -290q-75 -132 -203 -244q-125 -111 -260 -166t-280 -55q-146 0 -259 55t-194 166 q-83 111 -107 245zM377 595q18 -97 79 -179q56 -80 142 -121q87 -41 190 -41q102 0 204 41q97 39 190 121q95 85 148 179q59 98 81 212q22 110 2 212q-20 97 -78 179q-56 77 -144 122q-85 41 -188 41q-104 0 -206 -41q-101 -43 -189 -122q-95 -85 -148 -179 q-57 -100 -79 -212q-22 -114 -4 -212zM806 1775q6 29 31 51q22 22 52 22q29 0 44 -22q16 -20 10 -51q-6 -33 -30 -52q-23 -22 -52 -22t-44 22q-17 20 -11 52zM1226 1775q6 31 29 51q23 22 53 22q29 0 44 -22q17 -23 11 -51t-31 -52q-23 -22 -53 -22q-28 0 -44 22 q-15 21 -9 52z" />
<glyph unicode="&#xf7;" horiz-adv-x="1813" d="M60 76l3 16l278 1428l3 16h15h1693h14l-3 -16l-277 -1428l-3 -16h-15h-1693h-15zM97 108h1662l271 1395h-1662zM170 234l156 507l189 -285l80 262l88 286l-193 -197l-72 197l-63 -205h-93l156 505l124 -331l328 331l-176 -572l-157 -507l-190 284l-84 -275h-93zM609 236 l154 498h276l-30 -99h-184l-32 -101h138l-30 -99h-139l-30 -100h185l-30 -99h-186h-92zM736 799l364 504l56 -504l5 -67l27 -272l192 272h20h80l-365 -507l-52 507l-10 74l-7 66v3h-157l-2 -4l-53 -72h-16h-3h-60h-19zM953 961h82l-9 104zM1189 798l48 148l54 174l53 173h92 h58q74 0 104 -50q31 -49 10 -114l-5 -15q-17 -51 -59 -93q-33 -35 -81 -51l50 -172h-113l-58 194l-60 -194h-93zM1363 1055l67 -1q22 0 47 20t33 51q9 31 -3 50q-14 20 -50 20h-51l-21 -69zM1593 944h94q-7 -22 3 -36q9 -15 28 -15q21 0 38 16q16 12 24 35q9 32 -10 41 q-4 2 -10.5 4.5t-7.5 2.5q-2 1 -4.5 2t-4 2.5t-2.5 1.5l1 4q-14 6 -22 9q-17 7 -37 24q-18 15 -29 44q-11 28 2 69q18 62 74 104q53 44 112 44q57 0 86 -44q26 -41 8 -104h-93q6 22 -3 36q-11 15 -29 15q-19 0 -37 -15q-17 -14 -25 -36q-8 -26 8 -41q15 -15 25 -17 q1 -1 7 -4q2 -1 16 -5q19 -7 40 -24q18 -15 31 -43q10 -26 -2 -70q-20 -62 -73 -105q-58 -44 -113 -44q-59 0 -86 44q-28 43 -9 105z" />
<glyph unicode="&#xf8;" horiz-adv-x="1478" d="M187 514q-25 128 6 290q30 158 107 289q76 134 202 245q124 112 259 167q136 56 281 56q38 0 70 -3q38 -6 66 -11l48 -10l26 51l85 168h113l-106 -208l-26 -50l39 -25q38 -26 73 -59q30 -30 65 -76q84 -116 108 -245q26 -135 -4 -289q-29 -153 -109 -290 q-78 -135 -202 -244q-130 -115 -260 -166q-131 -55 -280 -55q-9 0 -61 2q-40 3 -56 7l-47 9l-25 -50l-82 -159h-113l99 192l26 51l-40 25q-47 28 -82 62q-42 38 -73 82q-81 107 -107 244zM377 593q18 -99 79 -178q14 -22 36 -44q34 -32 41 -37l54 -42l39 75l464 907l39 74 l-72 8q-22 2 -28 2q-7 1 -26 1q-107 0 -206 -41q-101 -41 -190 -122q-91 -81 -148 -179q-56 -98 -78 -211q-22 -114 -4 -213zM682 258l76 -4q2 -1 15 -1h11h4q108 0 204 40q103 44 190 122q93 82 148 178q57 96 80 213q22 111 2 211q-18 97 -77 180q-8 10 -29 34l-30 30 l-54 48l-42 -79l-458 -894z" />
<glyph unicode="&#xf9;" horiz-adv-x="1277" d="M210 410q-19 102 5 226l63 326l114 588h187l-114 -588l-57 -291l-6 -34q-15 -79 -2 -148q12 -65 55 -125q40 -57 100 -85q58 -29 132 -29q70 0 143 29q68 28 132 85q65 55 106 125q40 69 55 148l7 34l57 291l114 588h187l-114 -588l-64 -326q-24 -121 -83 -226 q-62 -105 -158 -190v-1q-102 -88 -203 -129q-102 -43 -217 -43q-116 0 -203 42q-89 43 -152 131q-64 85 -84 190zM872 1944l115 84l134 -290l-53 -37z" />
<glyph unicode="&#xfa;" horiz-adv-x="1277" d="M210 410q-19 102 5 226l63 326l114 588h187l-114 -588l-57 -291l-6 -34q-15 -79 -2 -148q12 -65 55 -125q40 -57 100 -85q58 -29 132 -29q70 0 143 29q68 28 132 85q65 55 106 125q40 69 55 148l7 34l57 291l114 588h187l-114 -588l-64 -326q-24 -121 -83 -226 q-62 -105 -158 -190v-1q-102 -88 -203 -129q-102 -43 -217 -43q-116 0 -203 42q-89 43 -152 131q-64 85 -84 190zM832 1738l247 290l82 -84l-290 -243z" />
<glyph unicode="&#xfb;" horiz-adv-x="1277" d="M210 410q-19 102 5 226l63 326l114 588h187l-114 -588l-57 -291l-6 -34q-15 -79 -2 -148q12 -65 55 -125q40 -57 100 -85q58 -29 132 -29q70 0 143 29q68 28 132 85q65 55 106 125q40 69 55 148l7 34l57 291l114 588h187l-114 -588l-64 -326q-24 -121 -83 -226 q-62 -105 -158 -190v-1q-102 -88 -203 -129q-102 -43 -217 -43q-116 0 -203 42q-89 43 -152 131q-64 85 -84 190zM777 1701l19 24l220 281l16 21l8 -21l113 -281l9 -24h-26h-49h-9l-2 7l-56 136l-16 41l-32 -41l-107 -136l-6 -7h-8h-48h-26z" />
<glyph unicode="&#xfc;" horiz-adv-x="1277" d="M210 410q-19 102 5 226l63 326l114 588h187l-114 -588l-57 -291l-6 -34q-15 -79 -2 -148q12 -65 55 -125q40 -57 100 -85q58 -29 132 -29q70 0 143 29q68 28 132 85q65 55 106 125q40 69 55 148l7 34l57 291l114 588h187l-114 -588l-64 -326q-24 -121 -83 -226 q-62 -105 -158 -190v-1q-102 -88 -203 -129q-102 -43 -217 -43q-116 0 -203 42q-89 43 -152 131q-64 85 -84 190zM706 1775q6 30 30 51q22 22 53 22q28 0 43 -22q16 -20 10 -51q-6 -33 -30 -52q-23 -22 -52 -22t-44 22q-16 19 -10 52zM1125 1775q6 29 31 51q22 22 51 22 t44 -22q17 -23 11 -51t-31 -52q-23 -22 -52 -22q-28 0 -43 22q-17 20 -11 52z" />
<glyph unicode="&#xfd;" horiz-adv-x="1106" d="M338 1550h208l154 -526l31 -105l72 105l359 526h209l-580 -829l-12 -30l-122 -628h-183l122 628l-2 30zM781 1730l246 290l82 -84l-289 -243z" />
<glyph unicode="&#xfe;" horiz-adv-x="1033" d="M103 63l289 1487h183l-41 -215l-12 -62h58h230q84 0 160 -35q74 -38 120 -102q48 -65 66 -151q15 -88 -3 -179q-17 -93 -67 -178q-52 -89 -124 -152q-78 -69 -160 -101q-87 -35 -173 -35h-230h-59l-12 -63l-42 -214h-183zM374 512h58h230q55 0 110 23q52 21 100 63 q46 40 78 96q33 58 43 112q12 57 1 113q-10 52 -41 95q-63 86 -177 86h-229h-59l-12 -62l-90 -463z" />
<glyph unicode="&#xff;" horiz-adv-x="1106" d="M338 1550h208l154 -526l31 -105l72 105l359 526h209l-580 -829l-12 -30l-122 -628h-183l122 628l-2 30zM620 1775q6 29 31 51q22 22 52 22q29 0 44 -22q16 -20 10 -51q-6 -33 -30 -52q-23 -22 -53 -22q-28 0 -43 22q-17 20 -11 52zM1040 1775q6 31 29 51q22 22 53 22 q28 0 44 -22t10 -51q-6 -31 -30 -52q-23 -22 -53 -22q-29 0 -44 22q-15 21 -9 52z" />
<glyph unicode="&#x100;" horiz-adv-x="1261" d="M49 63l886 1501l302 -1501h-198l-55 245h-294h-293l-150 -245h-198zM496 468h225h227q-27 128 -55 301q-30 186 -53 302q-87 -146 -173 -302q-97 -175 -171 -301zM734 1701l18 91h455l-18 -91h-455z" />
<glyph unicode="&#x101;" horiz-adv-x="1261" d="M49 63l886 1501l302 -1501h-198l-55 245h-294h-293l-150 -245h-198zM496 468h225h227q-27 128 -55 301q-30 186 -53 302q-87 -146 -173 -302q-97 -175 -171 -301zM734 1701l18 91h455l-18 -91h-455z" />
<glyph unicode="&#x102;" horiz-adv-x="1261" d="M49 63l886 1501l302 -1501h-198l-55 245h-294h-293l-150 -245h-198zM496 468h225h227q-27 128 -55 301q-30 186 -53 302q-87 -146 -173 -302q-97 -175 -171 -301zM766 1911v18h17h54h11l2 -11q0 -21 8 -42q4 -18 18 -36q17 -25 44 -38q26 -13 58 -13q67 0 124 51 q16 13 32 36q14 18 25 42l5 11h10h55h17l-7 -18q-14 -38 -37 -72q-23 -33 -55 -62q-41 -36 -89 -56q-49 -20 -97 -20q-46 0 -88 20q-41 20 -67 56q-19 25 -31 62q-11 31 -9 72z" />
<glyph unicode="&#x103;" horiz-adv-x="1261" d="M49 63l886 1501l302 -1501h-198l-55 245h-294h-293l-150 -245h-198zM496 468h225h227q-27 128 -55 301q-30 186 -53 302q-87 -146 -173 -302q-97 -175 -171 -301zM766 1911v18h17h54h11l2 -11q0 -21 8 -42q4 -18 18 -36q17 -25 44 -38q26 -13 58 -13q67 0 124 51 q16 13 32 36q14 18 25 42l5 11h10h55h17l-7 -18q-14 -38 -37 -72q-23 -33 -55 -62q-41 -36 -89 -56q-49 -20 -97 -20q-46 0 -88 20q-41 20 -67 56q-19 25 -31 62q-11 31 -9 72z" />
<glyph unicode="&#x104;" horiz-adv-x="1277" d="M49 63l891 1527l306 -1565q-39 -22 -78 -49q-44 -30 -80 -65q-93 -85 -111 -169q-15 -62 23 -85t90 -26q10 -1 46 1l-5 -101h-26h-28q-75 5 -150 45q-74 40 -44 170q16 67 54 117q34 49 89 90l34 28l-65 278l-2 11l-8 38h-38h-513h-41l-22 -43l-5 -9l-119 -193h-15h-11 h-172zM500 468h89h266h88q-32 159 -51 310q-19 155 -49 310q-85 -143 -171 -310q-79 -153 -172 -310z" />
<glyph unicode="&#x105;" horiz-adv-x="1277" d="M49 63l891 1527l306 -1565q-39 -22 -78 -49q-44 -30 -80 -65q-93 -85 -111 -169q-15 -62 23 -85t90 -26q10 -1 46 1l-5 -101h-26h-28q-75 5 -150 45q-74 40 -44 170q16 67 54 117q34 49 89 90l34 28l-65 278l-2 11l-8 38h-38h-513h-41l-22 -43l-5 -9l-119 -193h-15h-11 h-172zM500 468h89h266h88q-32 159 -51 310q-19 155 -49 310q-85 -143 -171 -310q-79 -153 -172 -310z" />
<glyph unicode="&#x106;" horiz-adv-x="1228" d="M188 516q-26 133 5 289q30 158 107 289q76 131 202 246q123 110 260 167q97 40 203 51h75q68 0 138 -14q64 -15 123 -45q55 -29 107 -71q38 -34 52 -49l-161 -143q-47 50 -108 81q-85 41 -188 41q-104 0 -206 -41q-103 -44 -189 -122q-89 -79 -147 -179h-1 q-56 -96 -79 -212q-22 -114 -4 -213q19 -96 79 -178q56 -80 142 -121q87 -41 189 -41q103 0 206 41q80 33 140 80l104 -143q-27 -21 -71 -49q-63 -41 -135 -71q-69 -30 -139 -44q-70 -15 -145 -15q-145 0 -258 55t-194 166q-83 111 -107 245zM964 1738l246 290l82 -84 l-290 -243z" />
<glyph unicode="&#x107;" horiz-adv-x="1228" d="M188 516q-26 133 5 289q30 158 107 289q76 131 202 246q123 110 260 167q97 40 203 51h75q68 0 138 -14q64 -15 123 -45q55 -29 107 -71q38 -34 52 -49l-161 -143q-47 50 -108 81q-85 41 -188 41q-104 0 -206 -41q-103 -44 -189 -122q-89 -79 -147 -179h-1 q-56 -96 -79 -212q-22 -114 -4 -213q19 -96 79 -178q56 -80 142 -121q87 -41 189 -41q103 0 206 41q80 33 140 80l104 -143q-27 -21 -71 -49q-63 -41 -135 -71q-69 -30 -139 -44q-70 -15 -145 -15q-145 0 -258 55t-194 166q-83 111 -107 245zM964 1738l246 290l82 -84 l-290 -243z" />
<glyph unicode="&#x10c;" horiz-adv-x="1228" d="M188 516q-26 133 5 289q30 158 107 289q76 131 202 246q123 110 260 167q97 40 203 51h75q68 0 138 -14q64 -15 123 -45q55 -29 107 -71q38 -34 52 -49l-161 -143q-47 50 -108 81q-85 41 -188 41q-104 0 -206 -41q-103 -44 -189 -122q-89 -79 -147 -179h-1 q-56 -96 -79 -212q-22 -114 -4 -213q19 -96 79 -178q56 -80 142 -121q87 -41 189 -41q103 0 206 41q80 33 140 80l104 -143q-27 -21 -71 -49q-63 -41 -135 -71q-69 -30 -139 -44q-70 -15 -145 -15q-145 0 -258 55t-194 166q-83 111 -107 245zM881 2027h26h49h8l3 -7l55 -137 l16 -41l32 42l108 135l6 8h7h49h26l-19 -24l-220 -281l-16 -21l-8 21l-113 281z" />
<glyph unicode="&#x10d;" horiz-adv-x="1228" d="M188 516q-26 133 5 289q30 158 107 289q76 131 202 246q123 110 260 167q97 40 203 51h75q68 0 138 -14q64 -15 123 -45q55 -29 107 -71q38 -34 52 -49l-161 -143q-47 50 -108 81q-85 41 -188 41q-104 0 -206 -41q-103 -44 -189 -122q-89 -79 -147 -179h-1 q-56 -96 -79 -212q-22 -114 -4 -213q19 -96 79 -178q56 -80 142 -121q87 -41 189 -41q103 0 206 41q80 33 140 80l104 -143q-27 -21 -71 -49q-63 -41 -135 -71q-69 -30 -139 -44q-70 -15 -145 -15q-145 0 -258 55t-194 166q-83 111 -107 245zM881 2027h26h49h8l3 -7l55 -137 l16 -41l32 42l108 135l6 8h7h49h26l-19 -24l-220 -281l-16 -21l-8 21l-113 281z" />
<glyph unicode="&#x10e;" horiz-adv-x="1158" d="M103 63l289 1486h340h40q128 -7 228 -56q118 -56 197 -162l1 -1q73 -98 91 -238q18 -141 -10 -287t-101 -286q-72 -138 -184 -238l-1 -1q-116 -104 -260 -161q-141 -56 -289 -56h-341zM325 261h59h99h1q112 0 210 37q98 36 184 112q86 78 139 177q52 94 77 220 q23 117 8 219q-15 99 -71 176q-55 74 -141 114q-84 37 -197 37h-97h-59l-12 -62l-188 -968zM684 2019h26h50h7l3 -8l56 -136l16 -41l32 41l107 136l6 8h8h48h26l-18 -24l-220 -281l-17 -21l-9 21l-111 281z" />
<glyph unicode="&#x10f;" horiz-adv-x="1158" d="M103 63l289 1486h340h40q128 -7 228 -56q118 -56 197 -162l1 -1q73 -98 91 -238q18 -141 -10 -287t-101 -286q-72 -138 -184 -238l-1 -1q-116 -104 -260 -161q-141 -56 -289 -56h-341zM325 261h59h99h1q112 0 210 37q98 36 184 112q86 78 139 177q52 94 77 220 q23 117 8 219q-15 99 -71 176q-55 74 -141 114q-84 37 -197 37h-97h-59l-12 -62l-188 -968zM684 2019h26h50h7l3 -8l56 -136l16 -41l32 41l107 136l6 8h8h48h26l-18 -24l-220 -281l-17 -21l-9 21l-111 281z" />
<glyph unicode="&#x112;" d="M102 59l291 1494h787l-39 -198h-544h-58l-12 -62l-63 -325l-12 -63h58h393l-38 -198h-394h-58l-12 -62l-63 -325l-12 -63h58h544l-39 -198h-544h-243zM588 1701l18 91h454l-18 -91h-454z" />
<glyph unicode="&#x113;" d="M102 59l291 1494h787l-39 -198h-544h-58l-12 -62l-63 -325l-12 -63h58h393l-38 -198h-394h-58l-12 -62l-63 -325l-12 -63h58h544l-39 -198h-544h-243zM588 1701l18 91h454l-18 -91h-454z" />
<glyph unicode="&#x114;" d="M102 59l291 1494h787l-39 -198h-544h-58l-12 -62l-63 -325l-12 -63h58h393l-38 -198h-394h-58l-12 -62l-63 -325l-12 -63h58h544l-39 -198h-544h-243zM618 1929h18h55h11l1 -11q0 -22 7 -42q4 -19 20 -36q19 -27 43 -38q26 -13 59 -13q66 0 123 51q17 14 33 36 q15 21 24 42l5 11h11h54h17l-6 -18q-16 -41 -38 -72q-23 -33 -55 -62q-40 -37 -89 -56q-49 -20 -96 -20q-48 0 -88 20q-42 19 -68 56q-22 28 -30 62q-11 37 -10 72z" />
<glyph unicode="&#x115;" d="M102 59l291 1494h787l-39 -198h-544h-58l-12 -62l-63 -325l-12 -63h58h393l-38 -198h-394h-58l-12 -62l-63 -325l-12 -63h58h544l-39 -198h-544h-243zM618 1929h18h55h11l1 -11q0 -22 7 -42q4 -19 20 -36q19 -27 43 -38q26 -13 59 -13q66 0 123 51q17 14 33 36 q15 21 24 42l5 11h11h54h17l-6 -18q-16 -41 -38 -72q-23 -33 -55 -62q-40 -37 -89 -56q-49 -20 -96 -20q-48 0 -88 20q-42 19 -68 56q-22 28 -30 62q-11 37 -10 72z" />
<glyph unicode="&#x116;" d="M102 59l291 1494h787l-39 -198h-544h-58l-12 -62l-63 -325l-12 -63h58h393l-38 -198h-394h-58l-12 -62l-63 -325l-12 -63h58h544l-39 -198h-544h-243zM746 1795q7 38 38 66t68 28q35 0 56 -28t13 -66q-7 -37 -39 -66q-31 -28 -67 -28t-57 28q-20 27 -12 66z" />
<glyph unicode="&#x117;" d="M102 59l291 1494h787l-39 -198h-544h-58l-12 -62l-63 -325l-12 -63h58h393l-38 -198h-394h-58l-12 -62l-63 -325l-12 -63h58h544l-39 -198h-544h-243zM746 1795q7 38 38 66t68 28q35 0 56 -28t13 -66q-7 -37 -39 -66q-31 -28 -67 -28t-57 28q-20 27 -12 66z" />
<glyph unicode="&#x118;" d="M103 63l291 1494h786l-38 -198h-544h-58l-12 -63l-63 -325l-12 -62h57h394l-39 -198h-393h-58l-12 -63l-63 -325l-12 -62h57h545l-44 -225q-20 -12 -84 -52q-46 -29 -93 -73q-92 -86 -110 -169q-15 -62 23 -85t90 -26q10 -1 46 1l-5 -101h-26h-28q-75 5 -150 45 q-74 40 -44 170q14 63 53 117q67 92 213 200h-424h-243z" />
<glyph unicode="&#x119;" d="M103 63l291 1494h786l-38 -198h-544h-58l-12 -63l-63 -325l-12 -62h57h394l-39 -198h-393h-58l-12 -63l-63 -325l-12 -62h57h545l-44 -225q-20 -12 -84 -52q-46 -29 -93 -73q-92 -86 -110 -169q-15 -62 23 -85t90 -26q10 -1 46 1l-5 -101h-26h-28q-75 5 -150 45 q-74 40 -44 170q14 63 53 117q67 92 213 200h-424h-243z" />
<glyph unicode="&#x11a;" d="M102 59l291 1494h787l-39 -198h-544h-58l-12 -62l-63 -325l-12 -63h58h393l-38 -198h-394h-58l-12 -62l-63 -325l-12 -63h58h544l-39 -198h-544h-243zM686 2027h26h49h8l3 -7l55 -137l16 -41l33 42l107 135l5 8h9h48h26l-19 -24l-220 -281l-16 -21l-9 21l-112 281z" />
<glyph unicode="&#x11b;" d="M102 59l291 1494h787l-39 -198h-544h-58l-12 -62l-63 -325l-12 -63h58h393l-38 -198h-394h-58l-12 -62l-63 -325l-12 -63h58h544l-39 -198h-544h-243zM686 2027h26h49h8l3 -7l55 -137l16 -41l33 42l107 135l5 8h9h48h26l-19 -24l-220 -281l-16 -21l-9 21l-112 281z" />
<glyph unicode="&#x11e;" horiz-adv-x="1474" d="M187 515q-25 128 6 290q29 155 107 290q73 129 202 245q124 112 259 167q114 48 238 55l1 -2h41q73 0 138 -15q71 -17 123 -44q53 -26 107 -71q23 -19 52 -49l-160 -143q-45 48 -108 80q-84 41 -189 41q-108 0 -205 -41q-101 -42 -190 -122q-91 -82 -147 -179 q-59 -102 -80 -212q-22 -108 -3 -212q18 -96 78 -179q59 -82 143 -122q87 -41 189 -41q81 0 164 27q78 24 156 77q57 39 113 97q52 54 93 117l56 89h-92h-369l36 185h16h639q-28 -163 -96 -293q-81 -158 -218 -279q-124 -110 -260 -166q-131 -55 -280 -55t-258 55 q-115 56 -195 166q-84 113 -107 244zM871 1929h18h55h11l1 -11q0 -27 7 -42q5 -20 19 -36q14 -24 44 -38q26 -13 59 -13q66 0 123 51q16 14 33 36q15 21 24 42l4 11h12h54h17l-6 -18q-16 -41 -38 -72q-23 -33 -55 -62q-41 -36 -89 -56q-49 -20 -96 -20t-89 20q-41 19 -67 56 q-22 28 -30 62q-11 37 -10 72z" />
<glyph unicode="&#x11f;" horiz-adv-x="1474" d="M187 515q-25 128 6 290q29 155 107 290q73 129 202 245q124 112 259 167q114 48 238 55l1 -2h41q73 0 138 -15q71 -17 123 -44q53 -26 107 -71q23 -19 52 -49l-160 -143q-45 48 -108 80q-84 41 -189 41q-108 0 -205 -41q-101 -42 -190 -122q-91 -82 -147 -179 q-59 -102 -80 -212q-22 -108 -3 -212q18 -96 78 -179q59 -82 143 -122q87 -41 189 -41q81 0 164 27q78 24 156 77q57 39 113 97q52 54 93 117l56 89h-92h-369l36 185h16h639q-28 -163 -96 -293q-81 -158 -218 -279q-124 -110 -260 -166q-131 -55 -280 -55t-258 55 q-115 56 -195 166q-84 113 -107 244zM871 1929h18h55h11l1 -11q0 -27 7 -42q5 -20 19 -36q14 -24 44 -38q26 -13 59 -13q66 0 123 51q16 14 33 36q15 21 24 42l4 11h12h54h17l-6 -18q-16 -41 -38 -72q-23 -33 -55 -62q-41 -36 -89 -56q-49 -20 -96 -20t-89 20q-41 19 -67 56 q-22 28 -30 62q-11 37 -10 72z" />
<glyph unicode="&#x122;" horiz-adv-x="1474" d="M187 515q-25 128 6 290q29 155 107 290q73 129 202 245q124 112 259 167q114 48 238 55l1 -2h41q73 0 138 -15q71 -17 123 -44q53 -26 107 -71q23 -19 52 -49l-160 -143q-45 48 -108 80q-84 41 -189 41q-108 0 -205 -41q-101 -42 -190 -122q-91 -82 -147 -179 q-59 -102 -80 -212q-22 -108 -3 -212q18 -96 78 -179q59 -82 143 -122q87 -41 189 -41q81 0 164 27q78 24 156 77q57 39 113 97q52 54 93 117l56 89h-92h-369l36 185h16h639q-28 -163 -96 -293q-81 -158 -218 -279q-124 -110 -260 -166q-131 -55 -280 -55t-258 55 q-115 56 -195 166q-84 113 -107 244zM552 -411q60 69 89 148q28 75 29 155h149q-7 -93 -68 -204q-61 -105 -143 -171z" />
<glyph unicode="&#x123;" horiz-adv-x="1474" d="M187 515q-25 128 6 290q29 155 107 290q73 129 202 245q124 112 259 167q114 48 238 55l1 -2h41q73 0 138 -15q71 -17 123 -44q53 -26 107 -71q23 -19 52 -49l-160 -143q-45 48 -108 80q-84 41 -189 41q-108 0 -205 -41q-101 -42 -190 -122q-91 -82 -147 -179 q-59 -102 -80 -212q-22 -108 -3 -212q18 -96 78 -179q59 -82 143 -122q87 -41 189 -41q81 0 164 27q78 24 156 77q57 39 113 97q52 54 93 117l56 89h-92h-369l36 185h16h639q-28 -163 -96 -293q-81 -158 -218 -279q-124 -110 -260 -166q-131 -55 -280 -55t-258 55 q-115 56 -195 166q-84 113 -107 244zM552 -411q60 69 89 148q28 75 29 155h149q-7 -93 -68 -204q-61 -105 -143 -171z" />
<glyph unicode="&#x12a;" horiz-adv-x="452" d="M146 63l289 1487h185l-289 -1487h-185zM331 1701l17 91h453l-17 -91h-453z" />
<glyph unicode="&#x12b;" horiz-adv-x="452" d="M146 63l289 1487h185l-289 -1487h-185zM331 1701l17 91h453l-17 -91h-453z" />
<glyph unicode="&#x12e;" horiz-adv-x="433" d="M-31 -254q17 71 60 125q43 55 99 95l27 19l5 29l300 1543h185l-295 -1521q-20 -12 -84 -52q-46 -29 -93 -73q-92 -86 -111 -169q-15 -63 23 -85q40 -23 91 -26q10 -1 46 1l-5 -101h-26h-28q-75 5 -150 45q-74 40 -44 170z" />
<glyph unicode="&#x12f;" horiz-adv-x="433" d="M-31 -254q17 71 60 125q43 55 99 95l27 19l5 29l300 1543h185l-295 -1521q-20 -12 -84 -52q-46 -29 -93 -73q-92 -86 -111 -169q-15 -63 23 -85q40 -23 91 -26q10 -1 46 1l-5 -101h-26h-28q-75 5 -150 45q-74 40 -44 170z" />
<glyph unicode="&#x130;" horiz-adv-x="367" d="M103 63l289 1487h185l-289 -1487h-185zM445 1795q8 39 38 66q31 28 67 28t57 -28q19 -27 12 -66q-7 -38 -38 -66t-67 -28q-35 0 -56 28t-13 66z" />
<glyph unicode="&#x131;" horiz-adv-x="367" d="M103 63l289 1487h185l-289 -1487h-185zM445 1795q8 39 38 66q31 28 67 28t57 -28q19 -27 12 -66q-7 -38 -38 -66t-67 -28q-35 0 -56 28t-13 66z" />
<glyph unicode="&#x136;" horiz-adv-x="995" d="M103 63l289 1487h183l-147 -761l558 761h213l-534 -725l-25 -35l15 -32l316 -695h-224l-322 710l-139 -710h-183zM296 -411q61 73 88 148q26 74 28 155h149q-7 -93 -68 -204q-60 -107 -142 -171z" />
<glyph unicode="&#x137;" horiz-adv-x="995" d="M103 63l289 1487h183l-147 -761l558 761h213l-534 -725l-25 -35l15 -32l316 -695h-224l-322 710l-139 -710h-183zM296 -411q61 73 88 148q26 74 28 155h149q-7 -93 -68 -204q-60 -107 -142 -171z" />
<glyph unicode="&#x139;" d="M103 63l289 1487h185l-238 -1228l-13 -63h58h544l-38 -196h-787zM536 1738l245 290l83 -84l-290 -243z" />
<glyph unicode="&#x13a;" d="M103 63l289 1487h185l-238 -1228l-13 -63h58h544l-38 -196h-787zM536 1738l245 290l83 -84l-290 -243z" />
<glyph unicode="&#x13b;" d="M103 63l289 1487h185l-238 -1228l-13 -63h58h544l-38 -196h-787zM308 -411q61 73 88 148q26 74 28 155h149q-8 -99 -67 -204q-60 -107 -142 -171z" />
<glyph unicode="&#x13c;" d="M103 63l289 1487h185l-238 -1228l-13 -63h58h544l-38 -196h-787zM308 -411q61 73 88 148q26 74 28 155h149q-8 -99 -67 -204q-60 -107 -142 -171z" />
<glyph unicode="&#x13d;" d="M103 63l289 1487h185l-238 -1228l-13 -63h58h544l-38 -196h-787zM796 1270q59 68 89 148q26 72 28 154h149q-7 -96 -68 -204q-62 -108 -142 -170z" />
<glyph unicode="&#x13e;" d="M103 63l289 1487h185l-238 -1228l-13 -63h58h544l-38 -196h-787zM796 1270q59 68 89 148q26 72 28 154h149q-7 -96 -68 -204q-62 -108 -142 -170z" />
<glyph unicode="&#x141;" horiz-adv-x="1031" d="M128 565l25 130l174 85l36 17l7 39l141 721h185l-109 -559l-20 -101l93 45l311 151l-25 -130l-368 -179l-36 -17l-8 -39l-78 -405l-12 -62h57h544l-38 -198h-787l98 503l20 101l-94 -45z" />
<glyph unicode="&#x142;" horiz-adv-x="1031" d="M128 565l25 130l174 85l36 17l7 39l141 721h185l-109 -559l-20 -101l93 45l311 151l-25 -130l-368 -179l-36 -17l-8 -39l-78 -405l-12 -62h57h544l-38 -198h-787l98 503l20 101l-94 -45z" />
<glyph unicode="&#x143;" horiz-adv-x="1270" d="M102 59l293 1506l705 -1021l34 177l162 832h185l-295 -1517l-702 1035l-22 -114l-174 -898h-186zM829 1738l246 290l82 -84l-290 -243z" />
<glyph unicode="&#x144;" horiz-adv-x="1270" d="M102 59l293 1506l705 -1021l34 177l162 832h185l-295 -1517l-702 1035l-22 -114l-174 -898h-186zM829 1738l246 290l82 -84l-290 -243z" />
<glyph unicode="&#x145;" horiz-adv-x="1270" d="M102 59l293 1506l705 -1021l34 177l162 832h185l-295 -1517l-702 1035l-22 -114l-174 -898h-186zM430 -411q61 73 88 148q26 74 28 155h149q-7 -96 -68 -204q-60 -107 -142 -171z" />
<glyph unicode="&#x146;" horiz-adv-x="1270" d="M102 59l293 1506l705 -1021l34 177l162 832h185l-295 -1517l-702 1035l-22 -114l-174 -898h-186zM430 -411q61 73 88 148q26 74 28 155h149q-7 -96 -68 -204q-60 -107 -142 -171z" />
<glyph unicode="&#x147;" horiz-adv-x="1270" d="M102 59l293 1506l705 -1021l34 177l162 832h185l-295 -1517l-702 1035l-22 -114l-174 -898h-186zM837 2027h26h49h7l4 -7l55 -137l16 -41l32 42l108 135l6 8h7h49h26l-19 -24l-220 -281l-16 -21l-9 21l-112 281z" />
<glyph unicode="&#x148;" horiz-adv-x="1270" d="M102 59l293 1506l705 -1021l34 177l162 832h185l-295 -1517l-702 1035l-22 -114l-174 -898h-186zM837 2027h26h49h7l4 -7l55 -137l16 -41l32 42l108 135l6 8h7h49h26l-19 -24l-220 -281l-16 -21l-9 21l-112 281z" />
<glyph unicode="&#x150;" horiz-adv-x="1478" d="M188 516q-26 133 5 289q30 158 107 289q76 131 202 246q123 110 260 167q131 55 280 55q148 0 258 -55q111 -55 195 -168q83 -113 108 -244q26 -137 -4 -290q-30 -157 -108 -290q-75 -132 -203 -244q-125 -111 -260 -166t-280 -55q-146 0 -259 55t-194 166 q-83 111 -107 245zM377 595q18 -97 79 -179q56 -80 142 -121q87 -41 190 -41q102 0 204 41q97 39 190 121q95 85 148 179q59 98 81 212q22 110 2 212q-20 97 -78 179q-56 77 -144 122q-85 41 -188 41q-104 0 -206 -41q-101 -43 -189 -122q-95 -85 -148 -179 q-56 -96 -79 -212q-22 -114 -4 -212zM890 1727l193 326l101 -60l-247 -292zM1135 1727l192 326l102 -60l-247 -292z" />
<glyph unicode="&#x151;" horiz-adv-x="1478" d="M188 516q-26 133 5 289q30 158 107 289q76 131 202 246q123 110 260 167q131 55 280 55q148 0 258 -55q111 -55 195 -168q83 -113 108 -244q26 -137 -4 -290q-30 -157 -108 -290q-75 -132 -203 -244q-125 -111 -260 -166t-280 -55q-146 0 -259 55t-194 166 q-83 111 -107 245zM377 595q18 -97 79 -179q56 -80 142 -121q87 -41 190 -41q102 0 204 41q97 39 190 121q95 85 148 179q59 98 81 212q22 110 2 212q-20 97 -78 179q-56 77 -144 122q-85 41 -188 41q-104 0 -206 -41q-101 -43 -189 -122q-95 -85 -148 -179 q-56 -96 -79 -212q-22 -114 -4 -212zM890 1727l193 326l101 -60l-247 -292zM1135 1727l192 326l102 -60l-247 -292z" />
<glyph unicode="&#x152;" horiz-adv-x="2066" d="M188 515q-25 131 5 290q29 155 107 290q78 134 202 245q125 112 260 167q132 55 280 55q117 0 213 -36q95 -36 171 -108l78 -75l24 125l16 83h788l-39 -199h-544h-58l-12 -62l-63 -325l-12 -63h58h393l-38 -197h-394h-57l-13 -63l-63 -325l-12 -63h58h544l-39 -198h-544 h-244l17 87l24 123l-106 -73q-102 -71 -213 -107q-109 -36 -227 -36q-145 0 -259 55t-194 166q-81 107 -107 244zM378 593q18 -98 77 -179q60 -83 143 -122q84 -41 189 -41q103 0 205 41q96 39 191 122q66 60 113 126q51 73 79 145l3 13l42 213l1 12q0 75 -22 146 q-21 68 -64 127q-60 81 -144 122q-82 41 -188 41q-107 0 -206 -41q-101 -41 -190 -122q-88 -78 -147 -180q-56 -98 -79 -211q-22 -108 -3 -212z" />
<glyph unicode="&#x153;" horiz-adv-x="2066" d="M188 515q-25 131 5 290q29 155 107 290q78 134 202 245q125 112 260 167q132 55 280 55q117 0 213 -36q95 -36 171 -108l78 -75l24 125l16 83h788l-39 -199h-544h-58l-12 -62l-63 -325l-12 -63h58h393l-38 -197h-394h-57l-13 -63l-63 -325l-12 -63h58h544l-39 -198h-544 h-244l17 87l24 123l-106 -73q-102 -71 -213 -107q-109 -36 -227 -36q-145 0 -259 55t-194 166q-81 107 -107 244zM378 593q18 -98 77 -179q60 -83 143 -122q84 -41 189 -41q103 0 205 41q96 39 191 122q66 60 113 126q51 73 79 145l3 13l42 213l1 12q0 75 -22 146 q-21 68 -64 127q-60 81 -144 122q-82 41 -188 41q-107 0 -206 -41q-101 -41 -190 -122q-88 -78 -147 -180q-56 -98 -79 -211q-22 -108 -3 -212z" />
<glyph unicode="&#x154;" horiz-adv-x="1064" d="M104 63l288 1487h432q104 0 188 -39q81 -38 135 -107q55 -76 70 -147q15 -75 -4 -175l-8 -42q-16 -80 -49 -142q-32 -60 -89 -129q-45 -53 -84 -79q-37 -26 -95 -48l-70 -28l25 -64l198 -487h-231l-214 521h-205l-101 -521h-186zM429 784h58l70 -1h46h100v-1q56 0 104 20 q41 19 91 63q51 45 78 96q27 47 39 111q12 57 4 108q-9 44 -41 90v1q-29 39 -88 62q-54 21 -123 21h-169h-58l-12 -63l-87 -445zM763 1738l246 290l82 -84l-290 -243z" />
<glyph unicode="&#x155;" horiz-adv-x="1064" d="M104 63l288 1487h432q104 0 188 -39q81 -38 135 -107q55 -76 70 -147q15 -75 -4 -175l-8 -42q-16 -80 -49 -142q-32 -60 -89 -129q-45 -53 -84 -79q-37 -26 -95 -48l-70 -28l25 -64l198 -487h-231l-214 521h-205l-101 -521h-186zM429 784h58l70 -1h46h100v-1q56 0 104 20 q41 19 91 63q51 45 78 96q27 47 39 111q12 57 4 108q-9 44 -41 90v1q-29 39 -88 62q-54 21 -123 21h-169h-58l-12 -63l-87 -445zM763 1738l246 290l82 -84l-290 -243z" />
<glyph unicode="&#x158;" horiz-adv-x="1064" d="M104 63l288 1487h432q104 0 188 -39q81 -38 135 -107q55 -76 70 -147q15 -75 -4 -175l-8 -42q-16 -80 -49 -142q-32 -60 -89 -129q-45 -53 -84 -79q-37 -26 -95 -48l-70 -28l25 -64l198 -487h-231l-214 521h-205l-101 -521h-186zM429 784h58l70 -1h46h100v-1q56 0 104 20 q41 19 91 63q51 45 78 96q27 47 39 111q12 57 4 108q-9 44 -41 90v1q-29 39 -88 62q-54 21 -123 21h-169h-58l-12 -63l-87 -445zM719 2027h82l57 -143l17 -42l32 41l114 144h83l-256 -326z" />
<glyph unicode="&#x159;" horiz-adv-x="1064" d="M104 63l288 1487h432q104 0 188 -39q81 -38 135 -107q55 -76 70 -147q15 -75 -4 -175l-8 -42q-16 -80 -49 -142q-32 -60 -89 -129q-45 -53 -84 -79q-37 -26 -95 -48l-70 -28l25 -64l198 -487h-231l-214 521h-205l-101 -521h-186zM429 784h58l70 -1h46h100v-1q56 0 104 20 q41 19 91 63q51 45 78 96q27 47 39 111q12 57 4 108q-9 44 -41 90v1q-29 39 -88 62q-54 21 -123 21h-169h-58l-12 -63l-87 -445zM719 2027h82l57 -143l17 -42l32 41l114 144h83l-256 -326z" />
<glyph unicode="&#x15e;" horiz-adv-x="872" d="M122 416h191q3 -54 35 -98q47 -65 136 -63q88 1 162 66q75 67 93 159q13 69 -5 118q-20 52 -72 75q-17 7 -19 8q-3 1 -5.5 2l-5 2t-4.5 2q-48 20 -56 24q-16 6 -25 10q-11 5 -38 15l-23 10q-66 25 -125 80q-62 59 -90 122q-21 40 -22 81q-4 41 8 106q19 91 61 163 q43 75 115 139t147 95t160 31t147 -31q59 -30 109 -95q49 -67 62 -139q9 -47 6 -101h-192q-4 52 -35 96q-51 67 -134 67q-88 0 -162 -67q-76 -67 -94 -159q-12 -59 2 -106t54 -80q53 -42 71 -51q22 -11 65 -24l21 -7q13 -5 28 -9q75 -27 131 -74t95 -118q17 -36 22 -80 q5 -50 -7 -107q-16 -86 -62 -164q-47 -80 -114 -138h-1q-35 -33 -75 -58q-36 -24 -78 -40l-88 -26l58 -56q41 -42 62 -95q21 -59 11 -124q-21 -130 -111 -170q-91 -41 -168 -45q-13 -1 -53 1l34 100q36 -2 45 -1q53 3 101 26q46 22 57 85q12 84 -46 169q-37 53 -97 101 l-72 24q-45 15 -78 41q-34 25 -66 67l1 1q-47 62 -62 138q-10 49 -5 102z" />
<glyph unicode="&#x15f;" horiz-adv-x="872" d="M122 416h191q3 -54 35 -98q47 -65 136 -63q88 1 162 66q75 67 93 159q13 69 -5 118q-20 52 -72 75q-17 7 -19 8q-3 1 -5.5 2l-5 2t-4.5 2q-48 20 -56 24q-16 6 -25 10q-11 5 -38 15l-23 10q-66 25 -125 80q-62 59 -90 122q-21 40 -22 81q-4 41 8 106q19 91 61 163 q43 75 115 139t147 95t160 31t147 -31q59 -30 109 -95q49 -67 62 -139q9 -47 6 -101h-192q-4 52 -35 96q-51 67 -134 67q-88 0 -162 -67q-76 -67 -94 -159q-12 -59 2 -106t54 -80q53 -42 71 -51q22 -11 65 -24l21 -7q13 -5 28 -9q75 -27 131 -74t95 -118q17 -36 22 -80 q5 -50 -7 -107q-16 -86 -62 -164q-47 -80 -114 -138h-1q-35 -33 -75 -58q-36 -24 -78 -40l-88 -26l58 -56q41 -42 62 -95q21 -59 11 -124q-21 -130 -111 -170q-91 -41 -168 -45q-13 -1 -53 1l34 100q36 -2 45 -1q53 3 101 26q46 22 57 85q12 84 -46 169q-37 53 -97 101 l-72 24q-45 15 -78 41q-34 25 -66 67l1 1q-47 62 -62 138q-10 49 -5 102z" />
<glyph unicode="&#x160;" horiz-adv-x="901" d="M107 359l193 43q14 -68 68 -110t122 -42q44 3 89 21q44 18 83 46q39 29 68 71q28 41 37 90q9 38 -1 75q-9 35 -30 59q-23 26 -54 46q-30 19 -65 34q-29 12 -70 25q-84 26 -149 71t-104 113q-27 48 -36 107q-9 57 4 125q17 88 63 166q47 78 113 137q68 61 146 93 q79 33 162 33q71 0 135 -28q62 -27 106 -77q75 -85 82 -208l-192 -42q-6 44 -34 85q-48 66 -135 66q-44 0 -84 -17q-43 -18 -78 -49t-60 -74q-24 -43 -33 -86q-6 -33 -3 -62q3 -27 14 -49t29 -40q20 -20 38 -31q29 -18 45 -25q32 -14 47 -20q6 -2 22 -7.5t26 -9.5 q40 -16 41 -16q49 -21 88 -45q37 -23 75 -63q33 -35 57 -79q21 -39 29 -97q8 -55 -4 -112q-16 -87 -68 -169q-50 -79 -120 -137q-69 -57 -153 -90q-87 -34 -164 -34q-90 0 -165 39q-77 40 -124 111q-47 70 -56 163zM637 2027h83l56 -143l17 -42l33 41l113 144h84l-257 -326z " />
<glyph unicode="&#x161;" horiz-adv-x="901" d="M107 359l193 43q14 -68 68 -110t122 -42q44 3 89 21q44 18 83 46q39 29 68 71q28 41 37 90q9 38 -1 75q-9 35 -30 59q-23 26 -54 46q-30 19 -65 34q-29 12 -70 25q-84 26 -149 71t-104 113q-27 48 -36 107q-9 57 4 125q17 88 63 166q47 78 113 137q68 61 146 93 q79 33 162 33q71 0 135 -28q62 -27 106 -77q75 -85 82 -208l-192 -42q-6 44 -34 85q-48 66 -135 66q-44 0 -84 -17q-43 -18 -78 -49t-60 -74q-24 -43 -33 -86q-6 -33 -3 -62q3 -27 14 -49t29 -40q20 -20 38 -31q29 -18 45 -25q32 -14 47 -20q6 -2 22 -7.5t26 -9.5 q40 -16 41 -16q49 -21 88 -45q37 -23 75 -63q33 -35 57 -79q21 -39 29 -97q8 -55 -4 -112q-16 -87 -68 -169q-50 -79 -120 -137q-69 -57 -153 -90q-87 -34 -164 -34q-90 0 -165 39q-77 40 -124 111q-47 70 -56 163zM637 2027h83l56 -143l17 -42l33 41l113 144h84l-257 -326z " />
<glyph unicode="&#x162;" horiz-adv-x="1011" d="M301 1359l38 198h318h301h319l-38 -198h-319h-58l-12 -63l-249 -1282l-6 -29l19 -19q41 -39 63 -95q22 -53 11 -125q-21 -130 -111 -170t-168 -45h-28h-25l34 101q37 -2 46 -1q52 3 100 26q46 22 57 85q12 84 -46 169q-30 42 -65 73q-42 36 -62 52l245 1260l12 63h-58 h-318z" />
<glyph unicode="&#x163;" horiz-adv-x="1011" d="M301 1359l38 198h318h301h319l-38 -198h-319h-58l-12 -63l-249 -1282l-6 -29l19 -19q41 -39 63 -95q22 -53 11 -125q-21 -130 -111 -170t-168 -45h-28h-25l34 101q37 -2 46 -1q52 3 100 26q46 22 57 85q12 84 -46 169q-30 42 -65 73q-42 36 -62 52l245 1260l12 63h-58 h-318z" />
<glyph unicode="&#x164;" horiz-adv-x="996" d="M299 1353l39 197h310h303h310l-38 -197h-311h-58l-12 -62l-239 -1228h-185l239 1228l12 62h-59h-311zM699 2027h83l57 -143l16 -42l32 41l114 144h84l-258 -326z" />
<glyph unicode="&#x165;" horiz-adv-x="996" d="M299 1353l39 197h310h303h310l-38 -197h-311h-58l-12 -62l-239 -1228h-185l239 1228l12 62h-59h-311zM699 2027h83l57 -143l16 -42l32 41l114 144h84l-258 -326z" />
<glyph unicode="&#x16a;" horiz-adv-x="1277" d="M210 410q-19 102 5 226l63 326l114 588h187l-114 -588l-57 -291l-6 -34q-15 -79 -2 -148q12 -65 55 -125q40 -57 100 -85q58 -29 132 -29q70 0 143 29q68 28 132 85q65 55 106 125q40 69 55 148l7 34l57 291l114 588h187l-114 -588l-64 -326q-24 -121 -83 -226 q-62 -105 -158 -190v-1q-102 -88 -203 -129q-102 -43 -217 -43q-116 0 -203 42q-89 43 -152 131q-64 85 -84 190zM742 1701l18 91h454l-18 -91h-454z" />
<glyph unicode="&#x16b;" horiz-adv-x="1277" d="M210 410q-19 102 5 226l63 326l114 588h187l-114 -588l-57 -291l-6 -34q-15 -79 -2 -148q12 -65 55 -125q40 -57 100 -85q58 -29 132 -29q70 0 143 29q68 28 132 85q65 55 106 125q40 69 55 148l7 34l57 291l114 588h187l-114 -588l-64 -326q-24 -121 -83 -226 q-62 -105 -158 -190v-1q-102 -88 -203 -129q-102 -43 -217 -43q-116 0 -203 42q-89 43 -152 131q-64 85 -84 190zM742 1701l18 91h454l-18 -91h-454z" />
<glyph unicode="&#x16e;" horiz-adv-x="1277" d="M210 410q-19 102 5 226l63 326l114 588h187l-114 -588l-57 -291l-6 -34q-15 -79 -2 -148q12 -65 55 -125q40 -57 100 -85q58 -29 132 -29q70 0 143 29q68 28 132 85q65 55 106 125q40 69 55 148l7 34l57 291l114 588h187l-114 -588l-64 -326q-24 -121 -83 -226 q-62 -105 -158 -190v-1q-102 -88 -203 -129q-102 -43 -217 -43q-116 0 -203 42q-89 43 -152 131q-64 85 -84 190zM829 1725q-6 29 1 65q6 32 24 65q16 28 44 55q30 25 59 36q32 13 63 13q30 0 57 -13q24 -12 45 -36q17 -28 22 -55q6 -33 0 -65q-6 -31 -25 -65 q-14 -27 -44 -55q-30 -26 -58 -36q-29 -13 -63 -13q-35 0 -58 13q-25 11 -44 36q-18 26 -23 55zM894 1789q-8 -41 14 -70q9 -14 25 -21q18 -8 34 -8t37 8q20 8 34 21q13 12 26 32q13 24 15 38q3 18 0 38q-4 18 -14 32q-12 14 -25 21q-18 8 -34 8t-37 -8q-23 -12 -34 -21 q-15 -14 -26 -32q-12 -19 -15 -38z" />
<glyph unicode="&#x16f;" horiz-adv-x="1277" d="M210 410q-19 102 5 226l63 326l114 588h187l-114 -588l-57 -291l-6 -34q-15 -79 -2 -148q12 -65 55 -125q40 -57 100 -85q58 -29 132 -29q70 0 143 29q68 28 132 85q65 55 106 125q40 69 55 148l7 34l57 291l114 588h187l-114 -588l-64 -326q-24 -121 -83 -226 q-62 -105 -158 -190v-1q-102 -88 -203 -129q-102 -43 -217 -43q-116 0 -203 42q-89 43 -152 131q-64 85 -84 190zM829 1725q-6 29 1 65q6 32 24 65q16 28 44 55q30 25 59 36q32 13 63 13q30 0 57 -13q24 -12 45 -36q17 -28 22 -55q6 -33 0 -65q-6 -31 -25 -65 q-14 -27 -44 -55q-30 -26 -58 -36q-29 -13 -63 -13q-35 0 -58 13q-25 11 -44 36q-18 26 -23 55zM894 1789q-8 -41 14 -70q9 -14 25 -21q18 -8 34 -8t37 8q20 8 34 21q13 12 26 32q13 24 15 38q3 18 0 38q-4 18 -14 32q-12 14 -25 21q-18 8 -34 8t-37 -8q-23 -12 -34 -21 q-15 -14 -26 -32q-12 -19 -15 -38z" />
<glyph unicode="&#x170;" horiz-adv-x="1277" d="M210 410q-19 102 5 226l63 326l114 588h187l-114 -588l-57 -291l-6 -34q-15 -79 -2 -148q12 -65 55 -125q40 -57 100 -85q58 -29 132 -29q70 0 143 29q68 28 132 85q65 55 106 125q40 69 55 148l7 34l57 291l114 588h187l-114 -588l-64 -326q-24 -121 -83 -226 q-62 -105 -158 -190v-1q-102 -88 -203 -129q-102 -43 -217 -43q-116 0 -203 42q-89 43 -152 131q-64 85 -84 190zM788 1727l192 326l102 -60l-247 -292zM1033 1727l193 326l101 -60l-248 -292z" />
<glyph unicode="&#x171;" horiz-adv-x="1277" d="M210 410q-19 102 5 226l63 326l114 588h187l-114 -588l-57 -291l-6 -34q-15 -79 -2 -148q12 -65 55 -125q40 -57 100 -85q58 -29 132 -29q70 0 143 29q68 28 132 85q65 55 106 125q40 69 55 148l7 34l57 291l114 588h187l-114 -588l-64 -326q-24 -121 -83 -226 q-62 -105 -158 -190v-1q-102 -88 -203 -129q-102 -43 -217 -43q-116 0 -203 42q-89 43 -152 131q-64 85 -84 190zM788 1727l192 326l102 -60l-247 -292zM1033 1727l193 326l101 -60l-248 -292z" />
<glyph unicode="&#x172;" horiz-adv-x="1277" d="M210 410q-19 102 5 226l63 326l114 588h187l-114 -588l-57 -291l-6 -34q-15 -79 -2 -148q12 -65 55 -125q40 -57 100 -85q58 -29 132 -29q70 0 143 29q68 28 132 85q65 55 106 125q40 69 55 148l7 34l57 291l114 588h187l-114 -588l-64 -326q-24 -121 -83 -226 q-62 -105 -158 -190v-1q-45 -37 -57 -47q-42 -28 -59 -39l-11 -6l-9 -6q-8 -4 -11 -6q-2 -1 -10 -4l-4 -3q-35 -20 -86 -56q-50 -35 -92 -77q-77 -77 -95 -153q-15 -62 23 -85t91 -26q36 0 46 1l-5 -100q-11 -1 -54 -1q-76 5 -151 45q-75 41 -44 171q8 35 25 69q13 27 39 60 l67 84l-91 11q-89 11 -161 52q-70 41 -126 117q-64 85 -84 190z" />
<glyph unicode="&#x173;" horiz-adv-x="1277" d="M210 410q-19 102 5 226l63 326l114 588h187l-114 -588l-57 -291l-6 -34q-15 -79 -2 -148q12 -65 55 -125q40 -57 100 -85q58 -29 132 -29q70 0 143 29q68 28 132 85q65 55 106 125q40 69 55 148l7 34l57 291l114 588h187l-114 -588l-64 -326q-24 -121 -83 -226 q-62 -105 -158 -190v-1q-45 -37 -57 -47q-42 -28 -59 -39l-11 -6l-9 -6q-8 -4 -11 -6q-2 -1 -10 -4l-4 -3q-35 -20 -86 -56q-50 -35 -92 -77q-77 -77 -95 -153q-15 -62 23 -85t91 -26q36 0 46 1l-5 -100q-11 -1 -54 -1q-76 5 -151 45q-75 41 -44 171q8 35 25 69q13 27 39 60 l67 84l-91 11q-89 11 -161 52q-70 41 -126 117q-64 85 -84 190z" />
<glyph unicode="&#x179;" horiz-adv-x="1054" d="M49 63l919 1290h-125h-518l39 197h956l-924 -1291h77h578l-38 -196h-964zM740 1738l245 290l83 -84l-290 -243z" />
<glyph unicode="&#x17a;" horiz-adv-x="1054" d="M49 63l919 1290h-125h-518l39 197h956l-924 -1291h77h578l-38 -196h-964zM740 1738l245 290l83 -84l-290 -243z" />
<glyph unicode="&#x17b;" horiz-adv-x="1054" d="M49 63l919 1290h-125h-518l39 197h956l-924 -1291h77h578l-38 -196h-964zM793 1795q7 37 39 66q31 28 66 28t56 -28t13 -66q-8 -39 -38 -66q-31 -28 -67 -28q-35 0 -56 28t-13 66z" />
<glyph unicode="&#x17c;" horiz-adv-x="1054" d="M49 63l919 1290h-125h-518l39 197h956l-924 -1291h77h578l-38 -196h-964zM793 1795q7 37 39 66q31 28 66 28t56 -28t13 -66q-8 -39 -38 -66q-31 -28 -67 -28q-35 0 -56 28t-13 66z" />
<glyph unicode="&#x17d;" horiz-adv-x="1054" d="M49 63l919 1290h-125h-518l39 197h956l-924 -1291h77h578l-38 -196h-964zM733 2027h81l58 -143l16 -42l32 41l114 144h84l-257 -326z" />
<glyph unicode="&#x17e;" horiz-adv-x="1054" d="M49 63l919 1290h-125h-518l39 197h956l-924 -1291h77h578l-38 -196h-964zM733 2027h81l58 -143l16 -42l32 41l114 144h84l-257 -326z" />
<glyph unicode="&#x18f;" horiz-adv-x="1477" d="M188 515q-25 131 5 290q9 43 18 78q0 2 0.5 5.5t1.5 5.5q0 1 1.5 5t2.5 6h89h741h296h82l-11 84q-11 66 -28 109q-23 54 -54 98q-59 81 -142 122q-84 41 -189 41q-75 0 -155 -23q-57 -18 -92 -38l-67 169q2 0 3 1l1 1q1 1 2 1q35 18 65 31q59 26 140 44q70 15 144 15h42 v2q119 -7 217 -55q114 -57 194 -167q81 -114 107 -245q24 -139 -5 -290q-31 -158 -107 -290q-75 -130 -203 -244q-123 -110 -258 -166q-134 -55 -280 -55q-148 0 -259 55q-114 55 -194 166q-84 113 -108 244zM361 704l12 -83q12 -82 45 -148q32 -66 87 -118h1 q52 -51 126 -77q70 -27 153 -27q103 0 205 41q96 38 190 122q40 35 92 97q38 47 71 110l43 83h-82h-860h-83z" />
<glyph unicode="&#x1dd;" horiz-adv-x="1477" d="M188 515q-25 131 5 290q9 43 18 78q0 2 0.5 5.5t1.5 5.5q0 1 1.5 5t2.5 6h89h741h296h82l-11 84q-11 66 -28 109q-23 54 -54 98q-59 81 -142 122q-84 41 -189 41q-75 0 -155 -23q-57 -18 -92 -38l-67 169q2 0 3 1l1 1q1 1 2 1q35 18 65 31q59 26 140 44q70 15 144 15h42 v2q119 -7 217 -55q114 -57 194 -167q81 -114 107 -245q24 -139 -5 -290q-31 -158 -107 -290q-75 -130 -203 -244q-123 -110 -258 -166q-134 -55 -280 -55q-148 0 -259 55q-114 55 -194 166q-84 113 -108 244zM361 704l12 -83q12 -82 45 -148q32 -66 87 -118h1 q52 -51 126 -77q70 -27 153 -27q103 0 205 41q96 38 190 122q40 35 92 97q38 47 71 110l43 83h-82h-860h-83z" />
<glyph unicode="&#x21a;" horiz-adv-x="996" d="M289 -411q62 75 89 148q26 74 28 155h149q-7 -96 -68 -204q-60 -107 -142 -171zM299 1353l39 197h310h303h310l-38 -197h-311h-58l-12 -62l-239 -1228h-185l239 1228l12 62h-59h-311z" />
<glyph unicode="&#x21b;" horiz-adv-x="996" d="M289 -411q62 75 89 148q26 74 28 155h149q-7 -96 -68 -204q-60 -107 -142 -171zM299 1353l39 197h310h303h310l-38 -197h-311h-58l-12 -62l-239 -1228h-185l239 1228l12 62h-59h-311z" />
<glyph unicode="&#x2000;" horiz-adv-x="1026" />
<glyph unicode="&#x2001;" horiz-adv-x="2053" />
<glyph unicode="&#x2002;" horiz-adv-x="1026" />
<glyph unicode="&#x2003;" horiz-adv-x="2053" />
<glyph unicode="&#x2004;" horiz-adv-x="684" />
<glyph unicode="&#x2005;" horiz-adv-x="513" />
<glyph unicode="&#x2006;" horiz-adv-x="342" />
<glyph unicode="&#x2007;" horiz-adv-x="342" />
<glyph unicode="&#x2008;" horiz-adv-x="256" />
<glyph unicode="&#x2009;" horiz-adv-x="410" />
<glyph unicode="&#x200a;" horiz-adv-x="114" />
<glyph unicode="&#x2010;" horiz-adv-x="690" d="M154 606l31 158h617l-30 -158h-618z" />
<glyph unicode="&#x2011;" horiz-adv-x="690" d="M154 606l31 158h617l-30 -158h-618z" />
<glyph unicode="&#x2012;" horiz-adv-x="690" d="M154 606l31 158h617l-30 -158h-618z" />
<glyph unicode="&#x2013;" horiz-adv-x="848" d="M154 606l31 158h776l-31 -158h-776z" />
<glyph unicode="&#x2014;" horiz-adv-x="1387" d="M154 606l31 158h1315l-31 -158h-1315z" />
<glyph unicode="&#x2015;" horiz-adv-x="1545" d="M154 606l31 158h1473l-31 -158h-1473z" />
<glyph unicode="&#x2018;" horiz-adv-x="406" d="M259 1144zM301 1313v4q4 21 17 66q10 37 42 84q37 57 80 96q53 47 124 72q14 3 38 0q-34 -25 -63 -62q-29 -36 -24 -87l2 -24l20 -7q46 -14 67 -58q21 -38 11 -88q-14 -69 -68 -119q-55 -49 -121 -49v-1q-63 1 -101 52q-38 53 -24 121z" />
<glyph unicode="&#x2019;" horiz-adv-x="406" d="M330 1466q14 68 69 119q55 49 120 49l1 1q63 -1 101 -52q38 -53 24 -121l-1 -4q-8 -36 -16 -66q-10 -35 -43 -84q-39 -59 -79 -96q-52 -46 -125 -72q-14 -3 -38 0q36 27 64 62q29 36 24 87l-2 24l-20 7q-47 15 -68 58q-21 38 -11 88zM687 1631z" />
<glyph unicode="&#x201a;" horiz-adv-x="406" d="M38.5 -170q0.5 0 3.5 -5h-1h-1q-2 5 -1.5 5zM74 146q14 68 69 119q55 49 120 49v1q63 -1 101 -52q38 -53 24 -121v-4q-4 -21 -17 -66q-11 -38 -42 -84q-39 -59 -79 -96q-52 -46 -125 -72q-14 -3 -38 0q34 25 63 62q28 36 24 87l-2 24l-20 7q-46 14 -67 58q-21 38 -11 88z " />
<glyph unicode="&#x201b;" horiz-adv-x="406" d="M320 1392q-3 -39 10 -84q17 -64 41 -96q34 -46 97 -72q12 -3 38 0q-24 25 -39 62q-15 36 9 87l12 24l22 7q54 16 91 58q35 38 45 88q13 67 -23 119q-36 49 -101 49v1q-63 -1 -121 -52q-57 -53 -71 -121l-1 -4q-6 -28 -9 -66zM353 1631z" />
<glyph unicode="&#x201c;" horiz-adv-x="778" d="M259 1144zM301 1313v4q4 21 17 66q10 37 42 84q37 57 80 96q53 47 124 72q14 3 38 0q-34 -25 -63 -62q-29 -36 -24 -87l2 -24l20 -7q46 -14 67 -58q21 -38 11 -88q-14 -69 -68 -119q-55 -49 -121 -49v-1q-63 1 -101 52q-38 53 -24 121zM673 1313v4q4 21 17 66 q10 37 42 84q37 57 80 96q53 47 124 72q14 3 38 0q-34 -25 -63 -62q-29 -36 -24 -87l2 -24l20 -7q46 -14 67 -58q21 -38 11 -88q-14 -69 -68 -119q-55 -49 -121 -49v-1q-63 1 -101 52q-38 53 -24 121z" />
<glyph unicode="&#x201d;" horiz-adv-x="787" d="M330 1466q14 68 69 119q55 49 120 49l1 1q63 -1 101 -52q38 -53 24 -121l-1 -4q-8 -36 -16 -66q-10 -35 -43 -84q-39 -59 -79 -96q-52 -46 -125 -72q-14 -3 -38 0q36 27 64 62q29 36 24 87l-2 24l-20 7q-47 15 -68 58q-21 38 -11 88zM687 1631zM712 1466q14 69 68 119 q55 49 121 49v1q63 -1 101 -52q38 -53 24 -121l-1 -4q-8 -36 -16 -66q-11 -38 -42 -84q-37 -57 -80 -96q-53 -47 -124 -72q-14 -3 -38 0q34 25 63 62q28 36 24 87l-2 24l-20 7q-46 14 -67 58q-21 38 -11 88z" />
<glyph unicode="&#x201e;" horiz-adv-x="778" d="M38.5 -170q0.5 0 3.5 -5h-1h-1q-2 5 -1.5 5zM74 146q14 68 69 119q55 49 120 49v1q63 -1 101 -52q38 -53 24 -121v-4q-4 -21 -17 -66q-11 -38 -42 -84q-39 -59 -79 -96q-52 -46 -125 -72q-14 -3 -38 0q34 25 63 62q28 36 24 87l-2 24l-20 7q-46 14 -67 58q-21 38 -11 88z M410.5 -170q0.5 0 3.5 -5h-1h-1q-2 5 -1.5 5zM446 146q14 68 69 119q55 49 120 49v1q63 -1 101 -52q38 -53 24 -121v-4q-4 -21 -17 -66q-11 -38 -42 -84q-39 -59 -79 -96q-52 -46 -125 -72q-14 -3 -38 0q34 25 63 62q28 36 24 87l-2 24l-20 7q-46 14 -67 58q-21 38 -11 88z " />
<glyph unicode="&#x201f;" horiz-adv-x="778" d="M320 1392q-3 -39 10 -84q17 -64 41 -96q34 -46 97 -72q12 -3 38 0q-24 25 -39 62q-15 36 9 87l12 24l22 7q54 16 91 58q35 38 45 88q13 67 -23 119q-36 49 -101 49v1q-63 -1 -121 -52q-57 -53 -71 -121l-1 -4q-6 -28 -9 -66zM353 1631zM692 1392q-3 -39 10 -84 q17 -64 41 -96q34 -46 97 -72q12 -3 38 0q-24 25 -39 62q-15 36 9 87l12 24l22 7q54 16 91 58q35 38 45 88q13 67 -23 119q-36 49 -101 49v1q-63 -1 -121 -52q-57 -53 -71 -121l-1 -4q-6 -28 -9 -66z" />
<glyph unicode="&#x202f;" horiz-adv-x="410" />
<glyph unicode="&#x2030;" horiz-adv-x="1985" d="M81 47l1187 1519h121l-1187 -1519h-121zM285 1183q-10 44 2 106q12 59 39 105q28 50 73 89q47 41 96 61q49 21 103 21t94 -21q38 -18 71 -61q30 -42 39 -89q9 -49 -2 -105q-12 -61 -39 -106q-28 -48 -74 -90q-48 -42 -95 -61q-52 -20 -101 -20q-53 0 -96 20 q-43 21 -72 61q-31 44 -38 90zM387 1289q-12 -72 23 -119q36 -49 102 -49q60 0 119 50q55 51 69 118l1 3q1 0 1 1q13 67 -29 120q-39 46 -93 47h-1h-2h-2q-57 -2 -111 -45q-63 -52 -76 -122v-2q0 1 -0.5 0t-0.5 -2zM744 241q-10 55 2 121q12 64 45 121t83 101q48 44 110 71 q57 23 117 23q58 0 107 -23q49 -26 81 -71q34 -46 46 -101q10 -55 -2 -121t-45 -121q-30 -54 -85 -102q-49 -45 -109 -70q-53 -22 -116 -22q-64 0 -109 22q-49 24 -81 70q-33 43 -44 102zM838 362q-18 -97 25 -156q43 -60 134 -60q87 0 156 60q69 63 87 156q18 94 -26 156 q-46 60 -133 60q-89 0 -157 -60q-66 -57 -86 -156zM1431 242q-10 54 2 120q12 64 45 121q33 55 85 101v1q51 45 108 70q58 23 117 23q58 0 107 -23q49 -27 82 -71q34 -45 46 -101q10 -55 -3 -121t-44 -120q-37 -59 -85 -103q-54 -47 -108 -69q-55 -23 -117 -23 q-64 0 -108 23q-49 23 -82 69t-45 103zM1525 362q-18 -95 25 -156q45 -60 134 -60q88 0 157 60q69 62 87 156t-27 156q-45 61 -133 61q-89 0 -157 -61t-86 -156z" />
<glyph unicode="&#x205f;" horiz-adv-x="513" />
<glyph unicode="&#x20ac;" horiz-adv-x="1404" d="M165 616l37 131h147l3 19q5 36 6 40l4 17l2 10q1 2 1.5 5.5t0.5 5.5q0 1 1.5 6t2.5 9l5 19h-136l39 130h144q38 91 102 175q57 77 145 157q124 110 258 167q101 41 204 51h75q68 0 138 -14q64 -15 123 -45q55 -29 107 -71q38 -34 52 -49l-161 -142q-46 49 -108 80 q-87 41 -188 41q-105 0 -205 -41q-103 -43 -191 -122q-45 -42 -67 -68q-26 -28 -57 -75l-29 -44h715l-37 -130h-732l-3 -9q-7 -24 -9 -32q0 -3 -2 -8.5t-2 -8.5q-2 -9 -3 -15q0 -1 -0.5 -4t-0.5 -5t-1.5 -7.5t-1.5 -6.5q-2 -12 -2 -15q0 -2 -0.5 -5t-0.5 -4l-1 -11h721 l-38 -131h-684l10 -41q10 -43 29 -85t44 -77q59 -80 143 -121q87 -41 190 -41t206 41q71 29 139 80l104 -143q-43 -32 -71 -49q-65 -42 -134 -71t-140 -44q-70 -15 -144 -15q-145 0 -259 55q-115 56 -195 166q-56 75 -85 162q-30 87 -33 183h-177z" />
<glyph unicode="&#x25fc;" horiz-adv-x="1550" d="M0 0v1550h1550v-1550h-1550z" />
<glyph horiz-adv-x="0" />
<glyph horiz-adv-x="1863" />
<glyph horiz-adv-x="228" d="M307 1360l48 246h176l-52 -267l-114 -195h-49l80 216h-46h-43z" />
</font>
</defs>
</svg>
