<?xml version="1.0" standalone="no"?>
<!DOCTYPE svg PUBLIC "-//W3C//DTD SVG 1.1//EN" "http://www.w3.org/Graphics/SVG/1.1/DTD/svg11.dtd" >
<svg xmlns="http://www.w3.org/2000/svg" xmlns:xlink="http://www.w3.org/1999/xlink" version="1.1">
<metadata></metadata>
<defs>
<font id="lemonmilkbold" horiz-adv-x="1729" >
<font-face units-per-em="2048" ascent="1638" descent="-410" />
<missing-glyph horiz-adv-x="546" />
<glyph unicode=" "  horiz-adv-x="546" />
<glyph unicode="&#x09;" horiz-adv-x="546" />
<glyph unicode="&#xa0;" horiz-adv-x="546" />
<glyph unicode="!" horiz-adv-x="632" d="M121 155q19 99 99 168.5t172 69.5t144.5 -72t33.5 -170q-19 -99 -98.5 -168t-172.5 -69q-92 0 -144.5 70.5t-33.5 170.5zM246 452l6 34q39 236 98 639.5t71 484.5l5 37h416l-282 -1195h-314z" />
<glyph unicode="&#x22;" horiz-adv-x="847" d="M283 1093l73 595h372l-160 -595h-285zM704 1093l72 595h373l-160 -595h-285z" />
<glyph unicode="#" horiz-adv-x="1294" d="M80 274l94 300h215l75 239h-214l95 300h215l146 461h280l-146 -461h149l147 461h280l-146 -461h213l-93 -300h-215l-76 -239h215l-95 -300h-214l-99 -309h-281l99 309h-150l-98 -309h-280l98 309h-214zM670 574h148l76 239h-149z" />
<glyph unicode="$" horiz-adv-x="1179" d="M175 518l7 35h384l-6 -35q-10 -54 22.5 -90.5t86.5 -36.5q52 0 98.5 30t55.5 79q9 47 -25.5 78.5t-85.5 31.5h-9l-2 1q-226 3 -338 147q-114 149 -74 356q35 177 161.5 305.5t287.5 172.5l34 176h328l-34 -176q143 -46 216.5 -179.5t37.5 -315.5l-7 -35h-383l7 35 q10 52 -22.5 90t-85.5 38q-51 0 -99 -32.5t-57 -78.5t26.5 -78.5t86.5 -32.5q230 0 346 -148q113 -147 72 -357q-35 -179 -160.5 -309.5t-284.5 -174.5l-33 -169h-328l34 173q-145 45 -219 180t-38 320z" />
<glyph unicode="%" horiz-adv-x="1615" d="M73 0l1368 1613h300l-1367 -1613h-301zM347 1271q28 145 148.5 243t262.5 98q92 0 166.5 -44.5t111 -123.5t18.5 -173q-27 -139 -155 -241q-126 -100 -273 -100q-143 0 -225 97.5t-54 243.5zM608.5 1289q-7.5 -42 13.5 -63q23 -23 57 -23q25 0 49.5 16t38.5 39.5t16.5 49 t-17.5 44.5q-24 24 -53 26q-29 -1 -66 -26q-31 -21 -38.5 -63zM840 380q31 159 171.5 269.5t298.5 110.5q156 0 247 -110t60 -270q-30 -157 -161 -269q-131 -111 -293 -111q-165 0 -260 111q-94 112 -63 269zM1101 380q-12 -62 14 -89.5t99 -27.5q72 0 108 27t48 90 t-13.5 89.5t-97.5 26.5q-73 0 -109.5 -27t-48.5 -89z" />
<glyph unicode="&#x26;" horiz-adv-x="1468" d="M143 502q32 153 121 249q98 105 173 166q-21 56 -30.5 134t0.5 155q33 169 183 302q67 60 170.5 108t193.5 48q166 0 268.5 -113.5t104.5 -275.5v-35l-379 -82l-1 33q-1 32 -20 53.5t-51 21.5q-40 0 -61.5 -15.5t-35.5 -51.5q-4 -21 13 -79q13 -46 27 -88 q13 -42 38 -89.5t44.5 -78t58.5 -86t54 -78.5q23 -34 27 -40q6 25 17 73t17 73l8 34l348 4l-8 -36q-30 -135 -59 -229t-74 -173q33 -24 48.5 -35t51 -26.5t63.5 -14.5l34 1l-73 -371h-33q-54 0 -103 11t-93 33.5t-71.5 40t-66.5 46.5q-4 3 -22 18q-80 -71 -206.5 -115.5 t-251.5 -44.5q-222 0 -346 162q-123 161 -78 391zM494 498q-7 -34 3.5 -69.5t27.5 -56.5q27 -36 118 -36q21 0 73 13.5t74 24.5q-29 34 -77 92q-71 86 -113 182q-4 -3 -17.5 -13t-18 -13.5t-15 -13.5t-15.5 -16t-13 -17t-12 -21.5t-8 -25t-7 -30.5zM833 325l12 101l51 63 l-37 -193z" />
<glyph unicode="'" horiz-adv-x="445" d="M292 1093l73 595h372l-159 -595h-286z" />
<glyph unicode="(" horiz-adv-x="688" d="M192 38q-76 325 10 768q86 442 289 769q210 335 433 380l33 7l1 -339h-40q-33 0 -80 -53.5t-102 -171.5q-116 -245 -183 -592q-67 -343 -47 -592q10 -117 36 -170.5t58 -53.5h41l-133 -339l-31 7q-205 45 -285 380z" />
<glyph unicode=")" horiz-adv-x="687" d="M43 -10h41q31 0 78 53.5t103 170.5q119 249 185 592q67 344 45 592q-11 118 -37 171.5t-57 53.5h-40l133 339l30 -7q205 -47 284 -380q76 -327 -10 -769q-86 -443 -289 -768q-210 -334 -431 -380l-33 -7z" />
<glyph unicode="*" horiz-adv-x="806" d="M263 1215l251 104l-210 103l189 230l105 -119l6 195h270l-70 -195l151 119l100 -230l-250 -103l210 -104l-189 -229l-105 119l-6 -195h-270l70 195l-151 -119z" />
<glyph unicode="+" horiz-adv-x="957" d="M131 509l68 353h283l79 405h328l-79 -405h283l-68 -353h-283l-79 -405h-328l79 405h-283z" />
<glyph unicode="," horiz-adv-x="587" d="M35 -251q-25 56 86 114q5 3 7 4q41 21 46 49q-61 30 -92.5 92t-15.5 146q18 91 84 164.5t147 98.5l19 8l58 5q103 8 165.5 -79.5t40.5 -201.5q-20 -106 -67.5 -185t-120.5 -151q-74 -72 -176 -103q-43 -13 -103 0q-3 1 -14 3t-14.5 2.5t-12 3t-12 5t-9.5 6t-9.5 8.5 t-6.5 11z" />
<glyph unicode="-" horiz-adv-x="863" d="M131 509l68 353h800l-68 -353h-800z" />
<glyph unicode="." horiz-adv-x="567" d="M66 155q21 109 109.5 187.5t189.5 78.5t159 -78.5t37 -187.5t-109.5 -187t-189.5 -78q-102 0 -159.5 77.5t-36.5 187.5z" />
<glyph unicode="/" horiz-adv-x="999" d="M-47 -240l1074 2093h333l-1075 -2093h-332z" />
<glyph unicode="0" horiz-adv-x="1389" d="M186 488q-15 145 16 319q32 163 105.5 312.5t166.5 253.5q227 248 536 248q312 0 439 -248q117 -232 52 -566q-65 -335 -272 -568q-226 -247 -536 -247q-311 0 -440 247q-52 104 -67 249zM579 807q-40 -206 35 -334q52 -84 155 -84q104 0 188 84q125 128 165 334 q39 203 -35 335q-50 83 -155 83q-104 0 -187 -83q-126 -132 -166 -335z" />
<glyph unicode="1" horiz-adv-x="654" d="M197 0l220 1131l-161 -46l77 394l547 151l-316 -1630h-367z" />
<glyph unicode="2" horiz-adv-x="1297" d="M46 0l111 228q361 226 610 437q132 111 221 211q83 93 93 148q17 87 -38 145t-142 58q-88 0 -165.5 -62.5t-95.5 -152.5l-7 -35h-381l7 35q50 255 249 431q211 178 471 178q259 0 399 -169q135 -169 88 -407q-29 -146 -132 -284q-101 -136 -239 -256q-135 -110 -138 -112 h376l-77 -393h-1210z" />
<glyph unicode="3" horiz-adv-x="1210" d="M135 459l393 99l1 -35q2 -50 46.5 -86.5t106.5 -36.5q73 0 136.5 42t76.5 109q18 95 -59 169q-81 78 -261 85l-56 2l139 182q143 24 203 71q42 33 60 73l5 24q7 37 -17.5 62.5t-63.5 25.5q-36 0 -66.5 -21.5t-42.5 -52.5l-14 -36l-370 84l14 35q66 166 216 279 q163 110 341 110q210 0 330 -138q107 -140 69 -336q-27 -140 -122 -257q119 -157 77 -373q-44 -226 -234 -383q-192 -156 -440 -156q-203 0 -335 117q-124 121 -132 309z" />
<glyph unicode="4" horiz-adv-x="1445" d="M106 311l745 1308l424 -2l-510 -913h270l95 604h388l-118 -604h151l-76 -393h-151l-61 -311h-365l60 311h-852z" />
<glyph unicode="5" horiz-adv-x="1271" d="M123 396l394 124l10 -23q45 -104 172 -104q87 0 164.5 53t93.5 135q15 77 -38 133q-21 22 -34 32.5t-38 19t-59 8.5q-114 -2 -162 -19q-57 -21 -165 -100l-21 -16l-188 115l248 858h928l-76 -392h-597l-25 -73q52 11 137 11q243 0 390 -170q138 -170 93 -407 q-46 -241 -251 -411q-213 -170 -476 -170q-193 0 -332 101q-127 102 -161 260z" />
<glyph unicode="6" horiz-adv-x="1275" d="M156 568q28 143 122 277q33 48 39 55l564 712l456 -2l-380 -473q201 -33 309 -176q119 -167 75 -393q-47 -240 -244 -407q-203 -167 -461 -167q-260 0 -395 167q-132 168 -85 407zM542 593q-17 -87 34.5 -147t138.5 -60q86 0 161.5 60.5t92.5 147.5q16 83 -32 143 t-127 65h-15q-87 0 -161.5 -60.5t-91.5 -148.5z" />
<glyph unicode="7" horiz-adv-x="1237" d="M257 -6l653 1232h-635l75 386h1167l-838 -1618h-422z" />
<glyph unicode="8" horiz-adv-x="1200" d="M149 535q42 217 220 374q-49 111 -23 247q36 189 195 325q167 134 375 134q206 0 322 -134q103 -133 67 -325q-26 -136 -118 -248q114 -154 72 -373q-44 -224 -227 -381q-186 -156 -432 -156t-371 156q-124 157 -80 381zM533 555q-13 -70 29 -118.5t113 -48.5 q70 0 132.5 49t76.5 120q13 67 -30 120q-38 46 -97 50l-3 -2h-15q-70 0 -131.5 -50t-74.5 -120zM737 1156q-6 -30 19 -49.5t59 -19.5h12q30 3 57 22t33 47q6 30 -19 49t-57 19q-34 0 -66 -19t-38 -49zM936 1073l14 14h18z" />
<glyph unicode="9" horiz-adv-x="1275" d="M248 1043q47 238 243 408q201 169 461 169q259 0 396 -169q132 -171 85 -408q-32 -166 -158 -328l-565 -714l-459 -1l379 474q-204 31 -307 176q-119 166 -75 393zM623 1019q-17 -86 35 -147t137 -61q86 0 161 60.5t92 147.5t-35 148t-137 61q-86 0 -161 -61t-92 -148z " />
<glyph unicode=":" horiz-adv-x="567" d="M66 155q21 109 109.5 187.5t189.5 78.5t159 -78.5t37 -187.5t-109.5 -187t-189.5 -78q-102 0 -159.5 77.5t-36.5 187.5zM251 1105q21 109 109.5 187.5t189.5 78.5t159 -78.5t37 -187.5t-109.5 -187t-189.5 -78q-102 0 -159.5 77.5t-36.5 187.5zM259 1120z" />
<glyph unicode=";" horiz-adv-x="589" d="M39 -231q-25 55 73 108q5 2 13 6l7 4q42 22 47 49q-61 30 -93 92t-16 146q18 91 84.5 164.5t147.5 98.5l19 8l58 5q67 5 117.5 -35t72.5 -105.5t15 -140.5q-7 -71 -37.5 -136.5t-64 -106.5t-85.5 -93q-71 -71 -177 -103q-43 -12 -102 0q-3 1 -14 3t-15 3t-12.5 3t-12 4.5 t-9.5 6t-9.5 8.5t-6.5 11zM269 1105q21 109 110 187.5t190 78.5t159 -78.5t37 -187.5t-110 -187t-190 -78q-102 0 -159.5 77.5t-36.5 187.5z" />
<glyph unicode="&#x3c;" horiz-adv-x="1174" d="M126 650l1286 711l-77 -398l-566 -313l444 -312l-77 -399z" />
<glyph unicode="=" horiz-adv-x="900" d="M93 266l68 353h819l-69 -353h-818zM187 751l69 354h818l-69 -354h-818z" />
<glyph unicode="&#x3e;" horiz-adv-x="1174" d="M15 -61l78 399l565 312l-444 313l78 398l1009 -711z" />
<glyph unicode="?" horiz-adv-x="1115" d="M260 1101l6 35q44 229 226 390t393 161t331 -162q119 -161 75 -388q-13 -69 -50.5 -132.5t-72 -99.5t-89.5 -85q-62 -55 -187 -171q-76 -71 -76 -204l6 -12l-394 -1l7 35q32 165 104 267q77 107 184 199q62 54 119 113q57 58 63 90q11 54 -19.5 96t-81.5 42 q-52 0 -97.5 -41.5t-56.5 -96.5l-7 -35h-383zM354 155q19 99 99 168.5t172 69.5t144.5 -72t33.5 -170q-19 -99 -98.5 -168t-172.5 -69q-92 0 -144.5 70.5t-33.5 170.5z" />
<glyph unicode="@" horiz-adv-x="2051" d="M192 802q87 452 430 759q348 309 768 309q435 0 655 -295q218 -299 129 -759q-51 -264 -236 -476q-190 -218 -464 -197q-46 3 -92 21l57 -343l-30 -14q-64 -29 -139 -43.5t-130.5 -17t-161.5 -2.5q-425 0 -650 300q-225 303 -136 758zM545 803q-58 -302 86 -491 q142 -193 420 -193q212 0 296 37l26 12q-119 54 -151 196q-65 -43 -175 -43q-164 0 -265 139q-103 136 -65 334q35 177 179 324q147 150 322 150q27 0 68 -14.5t66 -31.5l9 47h319l-125 -651q-15 -76 8 -99q22 -23 41 -17q86 24 141 126q61 114 76 191q57 294 -70.5 475 t-397.5 195h-36q-277 0 -495 -193q-219 -194 -277 -493zM1047 794q-10 -51 15 -86t72 -35q109 0 135 119q11 57 -12.5 88.5t-74.5 31.5h-8l-1 1q-42 -3 -79.5 -38t-46.5 -81z" />
<glyph unicode="A" horiz-adv-x="1606" d="M36 0l1036 1610h87l411 -1610h-398l-63 245h-517l-159 -245h-397zM816 566h193l-53 218z" />
<glyph unicode="B" horiz-adv-x="1282" d="M91 0l313 1612h451q219 0 345 -138q90 -99 90 -232q0 -42 -9 -86q-9 -48 -36 -104t-56 -96q99 -54 142 -176q26 -75 26 -156q0 -51 -10 -104q-43 -216 -217 -366q-180 -154 -427 -154h-612zM532 386h246q67 0 124 44.5t70 112.5q3 16 3 30q0 45 -30 82q-44 47 -107 51 q-40 2 -120 2q-53 0 -124 -1zM652 1004l78 6q49 6 89.5 36t49.5 77q2 10 2 20q-1 31 -21 54q-26 30 -69 30h-86z" />
<glyph unicode="C" horiz-adv-x="1516" d="M193 805q66 337 346 579q297 241 646 241h44l-2 -5q163 -8 288.5 -75t206.5 -173l19 -25l-318 -280l-20 24q-109 134 -295 134q-190 0 -344 -123q-158 -125 -191 -298q-8 -41 -8 -79q0 -123 84 -218q109 -123 296 -123q188 0 347 134l30 24l209 -280l-28 -25 q-129 -114 -293 -182q-166 -66 -343 -66q-351 2 -553 238q-138 177 -138 408q0 82 17 170z" />
<glyph unicode="D" horiz-adv-x="1470" d="M91 0l313 1611h464v1h33q192 0 343 -63.5t247 -173.5q119 -155 119 -378q0 -91 -20 -192q-68 -354 -321 -569q-325 -236 -746 -236h-432zM570 393h41q225 0 379 105.5t219 308.5q9 47 9 90q0 45 -10 87q-20 80 -73.5 131t-132.5 78.5t-178 27.5h-96z" />
<glyph unicode="E" horiz-adv-x="1161" d="M91 -2l314 1618h1034l-76 -393h-650l-43 -220h499l-76 -393h-499l-43 -220h650l-76 -392h-1034z" />
<glyph unicode="F" horiz-adv-x="1161" d="M91 -2l314 1618h1034l-76 -393h-650l-43 -220h499l-76 -393h-499l-119 -612h-384z" />
<glyph unicode="G" horiz-adv-x="1721" d="M193 805q67 340 345 579q291 241 639 241h25v-3q169 -5 301.5 -73t219.5 -176l18 -25l-329 -280l-20 24q-108 135 -290 135q-186 0 -340 -124q-154 -122 -189 -298q-8 -41 -8 -80q0 -123 82 -218q105 -123 292 -123q119 0 229.5 55.5t185.5 143.5h-429l70 357h868l-4 -31 q-50 -415 -361 -681q-294 -240 -639 -240q-349 0 -546 239q-137 175 -137 407q0 82 17 171z" />
<glyph unicode="H" horiz-adv-x="1414" d="M91 0l313 1612h366l-119 -610h502l118 610h366l-314 -1612h-365l119 611h-502l-119 -611h-365z" />
<glyph unicode="I" horiz-adv-x="548" d="M91 0l313 1612h367l-314 -1612h-366z" />
<glyph unicode="J" horiz-adv-x="1203" d="M50 120l255 348l24 -27q62 -64 171 -64h7q118 0 223 79.5t127 194.5l59 307l121 654l383 -1l-122 -657l-62 -317q-53 -274 -277 -464q-235 -185 -526 -190h-12q-217 1 -350 118z" />
<glyph unicode="K" horiz-adv-x="1391" d="M91 0l313 1612h366l-120 -618l518 618h423l-636 -817l400 -795h-446l-336 599l-117 -599h-365z" />
<glyph unicode="L" horiz-adv-x="1161" d="M91 0l313 1612h367l-237 -1220h667l-76 -392h-1034z" />
<glyph unicode="M" horiz-adv-x="1780" d="M91 0l314 1616h75l526 -1025l923 1025h75l-314 -1616h-367l116 595l-548 -594l-318 594l-116 -595h-366z" />
<glyph unicode="N" horiz-adv-x="1517" d="M91 0l314 1616h79l713 -848l165 848h379l-315 -1616h-82l-711 846l-165 -846h-377z" />
<glyph unicode="O" horiz-adv-x="1669" d="M193 805q66 338 345 579q150 123 296.5 182t315.5 59t292.5 -59t225.5 -182q139 -180 139 -411q0 -81 -17 -168q-66 -338 -347 -578q-149 -121 -295.5 -179.5t-315.5 -58.5q-170 1 -293.5 59t-224.5 179q-138 177 -138 408q0 82 17 170zM571 807q-8 -42 -8 -81 q0 -123 81 -216q57 -65 116.5 -94t149.5 -29q89 0 159.5 29t152.5 94q155 121 190 297q8 41 8 79q0 123 -83 219q-56 65 -115 94t-149 29q-91 0 -161.5 -29t-151.5 -94q-156 -125 -189 -298z" />
<glyph unicode="P" horiz-adv-x="1311" d="M91 0l313 1612h592q259 0 394 -170q97 -126 98 -290q0 -58 -13 -122q-47 -243 -245 -411q-206 -170 -469 -170h-216l-88 -449h-366zM634 840l212 -1q84 0 158.5 55t90.5 136q4 19 4 36q0 58 -42 100q-54 55 -137 55h-212z" />
<glyph unicode="Q" horiz-adv-x="1776" d="M193 805q67 340 345 579q291 241 638 241q345 0 545 -241q141 -179 141 -413q0 -80 -17 -167q-53 -273 -247 -484q69 -19 166 -25l33 -3l-102 -370l-31 2q-293 21 -456 134q-164 -68 -350 -68q-348 0 -544 238q-138 177 -138 407q0 82 17 170zM564 773q-10 -50 -10 -95 q0 -129 78 -227q100 -128 274 -134q-36 33 -70.5 49.5t-86.5 19.5l-33 2l98 389l34 -3q105 -8 186.5 -42t133.5 -78.5t119 -121.5q6 -7 27 -34q113 119 144 275q9 48 9 92q0 130 -78 229q-107 134 -290 134q-186 0 -341 -134q-158 -135 -194 -321z" />
<glyph unicode="R" horiz-adv-x="1349" d="M92 0l312 1612h548q133 0 253 -41q103 -43 169 -126q31 -40 50 -74.5t33 -81.5q12 -41 12 -85v-12q-2 -50 -13 -121l-8 -41q-33 -168 -162 -313q-46 -52 -87 -83t-98 -56l248 -578h-445l-323 630l-123 -630h-366zM622 846h136v-1h79q77 0 146 55.5t85 136.5q4 17 4 34 q0 53 -37 96q-23 25 -75 39.5t-105 14.5h-160z" />
<glyph unicode="S" horiz-adv-x="1149" d="M116 437l2 31l399 84l-8 -42q-2 -9 -2 -18q-1 -34 27 -64q34 -38 88 -46h1h19q58 0 116 39t67 85q5 26 -4.5 46.5t-26 34t-47 26.5t-56.5 20.5t-65.5 18.5t-63.5 19q-156 53 -241 173q-62 88 -62 198q0 40 8 84q40 208 217 352.5t401 144.5q203 -1 321 -129 q107 -116 107 -285q0 -19 -1 -38l-2 -31l-401 -84q6 31 6 57q0 40 -14 68q-23 46 -91 46q-54 0 -101 -36t-57 -87q-6 -28 5 -52t30.5 -40t53.5 -31t63 -24t69 -21q6 -1 9 -2l7.5 -2.5t8.5 -2.5q162 -46 251 -163q65 -86 65 -199q0 -40 -8 -84q-27 -136 -122 -251 t-232.5 -181t-284.5 -66q-205 0 -333 129q-119 120 -119 295q0 14 1 28z" />
<glyph unicode="T" horiz-adv-x="1242" d="M274 1221l76 391h1170l-76 -391h-383l-223 -1221h-414l233 1221h-383z" />
<glyph unicode="U" horiz-adv-x="1524" d="M216 643l188 969h369l-186 -956q-5 -25 -5 -49q0 -80 57 -144q74 -80 198 -80q118 0 225.5 79.5t130.5 193.5l186 956h368l-188 -969q-53 -272 -278 -466q-227 -192 -520 -192q-298 0 -448 192q-111 143 -111 329q0 66 14 137z" />
<glyph unicode="V" horiz-adv-x="1592" d="M349 1612h391l206 -830l529 830h394l-1035 -1612h-79z" />
<glyph unicode="W" horiz-adv-x="1992" d="M350 1612h395l134 -702l417 718h35l137 -718l406 702h395l-940 -1612h-75l-125 701l-390 -701h-75z" />
<glyph unicode="X" horiz-adv-x="1454" d="M37 1l606 806l-293 805h421l183 -444l357 444h421l-609 -805l295 -807h-421l-183 446l-356 -446z" />
<glyph unicode="Y" horiz-adv-x="1476" d="M350 1612h415l185 -519l387 519h416l-676 -925l-134 -687h-411l134 687z" />
<glyph unicode="Z" horiz-adv-x="1295" d="M36 0l846 1221h-589l76 391h1204l-850 -1236h590l-73 -376h-1204z" />
<glyph unicode="[" horiz-adv-x="811" d="M216 806q30 154 153.5 264t265.5 110t223 -110.5t51 -263.5t-153.5 -263t-265.5 -110q-143 0 -223.5 109.5t-50.5 263.5z" />
<glyph unicode="\" horiz-adv-x="961" d="M360 1853h295l260 -2093h-295z" />
<glyph unicode="]" horiz-adv-x="811" d="M216 806q30 154 153.5 264t265.5 110t223 -110.5t51 -263.5t-153.5 -263t-265.5 -110q-143 0 -223.5 109.5t-50.5 263.5z" />
<glyph unicode="^" horiz-adv-x="957" d="M158 813l649 881l309 -881h-337l-92 261l-193 -261h-336z" />
<glyph unicode="_" horiz-adv-x="1189" d="M-28 -145l56 291h1190l-57 -291h-1189z" />
<glyph unicode="`" horiz-adv-x="589" d="M341 1611l351 171l94 -632l-231 -108z" />
<glyph unicode="a" d="M36 0l1036 1610h87l411 -1610h-398l-63 245h-517l-159 -245h-397zM816 566h193l-53 218z" />
<glyph unicode="b" horiz-adv-x="1382" d="M91 0l313 1612h451q219 0 345 -138q90 -99 90 -232q0 -42 -9 -86q-9 -48 -36 -104t-56 -96q99 -54 142 -176q26 -75 26 -156q0 -51 -10 -104q-43 -216 -217 -366q-180 -154 -427 -154h-612zM532 386h246q67 0 124 44.5t70 112.5q3 16 3 30q0 45 -30 82q-44 47 -107 51 q-40 2 -120 2q-53 0 -124 -1zM652 1004l78 6q49 6 89.5 36t49.5 77q2 10 2 20q-1 31 -21 54q-26 30 -69 30h-86z" />
<glyph unicode="c" horiz-adv-x="1632" d="M193 805q66 337 346 579q297 241 646 241h44l-2 -5q163 -8 288.5 -75t206.5 -173l19 -25l-318 -280l-20 24q-109 134 -295 134q-190 0 -344 -123q-158 -125 -191 -298q-8 -41 -8 -79q0 -123 84 -218q109 -123 296 -123q188 0 347 134l30 24l209 -280l-28 -25 q-129 -114 -293 -182q-166 -66 -343 -66q-351 2 -553 238q-138 177 -138 408q0 82 17 170z" />
<glyph unicode="d" horiz-adv-x="1584" d="M91 0l313 1611h464v1h33q192 0 343 -63.5t247 -173.5q119 -155 119 -378q0 -91 -20 -192q-68 -354 -321 -569q-325 -236 -746 -236h-432zM570 393h41q225 0 379 105.5t219 308.5q9 47 9 90q0 45 -10 87q-20 80 -73.5 131t-132.5 78.5t-178 27.5h-96z" />
<glyph unicode="e" horiz-adv-x="1252" d="M91 -2l314 1618h1034l-76 -393h-650l-43 -220h499l-76 -393h-499l-43 -220h650l-76 -392h-1034z" />
<glyph unicode="f" horiz-adv-x="1252" d="M91 -2l314 1618h1034l-76 -393h-650l-43 -220h499l-76 -393h-499l-119 -612h-384z" />
<glyph unicode="g" horiz-adv-x="1853" d="M193 805q67 340 345 579q291 241 639 241h25v-3q169 -5 301.5 -73t219.5 -176l18 -25l-329 -280l-20 24q-108 135 -290 135q-186 0 -340 -124q-154 -122 -189 -298q-8 -41 -8 -80q0 -123 82 -218q105 -123 292 -123q119 0 229.5 55.5t185.5 143.5h-429l70 357h868l-4 -31 q-50 -415 -361 -681q-294 -240 -639 -240q-349 0 -546 239q-137 175 -137 407q0 82 17 171z" />
<glyph unicode="h" horiz-adv-x="1525" d="M91 0l313 1612h366l-119 -610h502l118 610h366l-314 -1612h-365l119 611h-502l-119 -611h-365z" />
<glyph unicode="i" horiz-adv-x="594" d="M91 0l313 1612h367l-314 -1612h-366z" />
<glyph unicode="j" horiz-adv-x="1297" d="M50 120l255 348l24 -27q62 -64 171 -64h7q118 0 223 79.5t127 194.5l59 307l121 654l383 -1l-122 -657l-62 -317q-53 -274 -277 -464q-235 -185 -526 -190h-12q-217 1 -350 118z" />
<glyph unicode="k" horiz-adv-x="1499" d="M91 0l313 1612h366l-120 -618l518 618h423l-636 -817l400 -795h-446l-336 599l-117 -599h-365z" />
<glyph unicode="l" horiz-adv-x="1252" d="M91 0l313 1612h367l-237 -1220h667l-76 -392h-1034z" />
<glyph unicode="m" horiz-adv-x="1919" d="M91 0l314 1616h75l526 -1025l923 1025h75l-314 -1616h-367l116 595l-548 -594l-318 594l-116 -595h-366z" />
<glyph unicode="n" horiz-adv-x="1636" d="M91 0l314 1616h79l713 -848l165 848h379l-315 -1616h-82l-711 846l-165 -846h-377z" />
<glyph unicode="o" horiz-adv-x="1797" d="M193 805q66 338 345 579q150 123 296.5 182t315.5 59t292.5 -59t225.5 -182q139 -180 139 -411q0 -81 -17 -168q-66 -338 -347 -578q-149 -121 -295.5 -179.5t-315.5 -58.5q-170 1 -293.5 59t-224.5 179q-138 177 -138 408q0 82 17 170zM571 807q-8 -42 -8 -81 q0 -123 81 -216q57 -65 116.5 -94t149.5 -29q89 0 159.5 29t152.5 94q155 121 190 297q8 41 8 79q0 123 -83 219q-56 65 -115 94t-149 29q-91 0 -161.5 -29t-151.5 -94q-156 -125 -189 -298z" />
<glyph unicode="p" horiz-adv-x="1413" d="M91 0l313 1612h592q259 0 394 -170q97 -126 97 -290q0 -59 -12 -122q-47 -243 -245 -411q-206 -170 -469 -170h-216l-88 -449h-366zM634 840l212 -1q84 0 158.5 55t90.5 136q4 19 4 36q0 58 -42 100q-54 55 -137 55h-212z" />
<glyph unicode="q" horiz-adv-x="1912" d="M193 805q67 340 345 579q291 241 638 241q345 0 545 -241q141 -179 141 -413q0 -80 -17 -167q-53 -273 -247 -484q69 -19 166 -25l33 -3l-102 -370l-31 2q-293 21 -456 134q-164 -68 -350 -68q-348 0 -544 238q-138 177 -138 407q0 82 17 170zM564 773q-10 -50 -10 -95 q0 -129 78 -227q100 -128 274 -134q-36 33 -70.5 49.5t-86.5 19.5l-33 2l98 389l34 -3q105 -8 186.5 -42t133.5 -78.5t119 -121.5q6 -7 27 -34q113 119 144 275q9 48 9 92q0 130 -78 229q-107 134 -290 134q-186 0 -341 -134q-158 -135 -194 -321z" />
<glyph unicode="r" horiz-adv-x="1453" d="M92 0l312 1612h548q133 0 253 -41q103 -43 169 -126q31 -40 50 -74.5t33 -81.5q12 -41 12 -85v-12q-2 -50 -13 -121l-8 -41q-33 -168 -162 -313q-46 -52 -87 -83t-98 -56l248 -578h-445l-323 630l-123 -630h-366zM622 846h136v-1h79q77 0 146 55.5t85 136.5q4 17 4 34 q0 53 -37 96q-23 25 -75 39.5t-105 14.5h-160z" />
<glyph unicode="s" horiz-adv-x="1237" d="M116 437l2 31l399 84l-8 -42q-2 -9 -2 -18q-1 -34 27 -64q34 -38 88 -46h1h19q58 0 116 39t67 85q5 26 -4.5 46.5t-26 34t-47 26.5t-56.5 20.5t-65.5 18.5t-63.5 19q-156 53 -241 173q-62 88 -62 198q0 40 8 84q40 208 217 352.5t401 144.5q203 -1 321 -129 q107 -116 107 -285q0 -19 -1 -38l-2 -31l-401 -84q6 31 6 57q0 40 -14 68q-23 46 -91 46q-54 0 -101 -36t-57 -87q-6 -28 5 -52t30.5 -40t53.5 -31t63 -24t69 -21q6 -1 9 -2l7.5 -2.5t8.5 -2.5q162 -46 251 -163q65 -86 65 -199q0 -40 -8 -84q-27 -136 -122 -251 t-232.5 -181t-284.5 -66q-205 0 -333 129q-119 120 -119 295q0 14 1 28z" />
<glyph unicode="t" horiz-adv-x="1338" d="M274 1221l76 391h1170l-76 -391h-383l-223 -1221h-414l233 1221h-383z" />
<glyph unicode="u" horiz-adv-x="1644" d="M216 643l188 969h369l-186 -956q-5 -25 -5 -49q0 -80 57 -144q74 -80 198 -80q118 0 225.5 79.5t130.5 193.5l186 956h368l-188 -969q-53 -272 -278 -466q-227 -192 -520 -192q-298 0 -448 192q-111 143 -111 329q0 66 14 137z" />
<glyph unicode="v" horiz-adv-x="1714" d="M349 1612h391l206 -830l529 830h394l-1035 -1612h-79z" />
<glyph unicode="w" horiz-adv-x="2144" d="M350 1612h395l134 -702l417 718h35l137 -718l406 702h395l-940 -1612h-75l-125 701l-390 -701h-75z" />
<glyph unicode="x" horiz-adv-x="1566" d="M37 1l606 806l-293 805h421l183 -444l357 444h421l-609 -805l295 -807h-421l-183 446l-356 -446z" />
<glyph unicode="y" horiz-adv-x="1589" d="M350 1612h415l185 -519l387 519h416l-676 -925l-134 -687h-411l134 687z" />
<glyph unicode="z" horiz-adv-x="1395" d="M36 0l846 1221h-589l76 391h1204l-850 -1236h590l-73 -376h-1204z" />
<glyph unicode="{" horiz-adv-x="930" d="M216 806q17 88 65 169t114 140t148 94t164 35q169 0 262 -128q94 -129 59 -310q-35 -180 -180 -309q-145 -128 -311 -128q-167 0 -261.5 128.5t-59.5 308.5zM500 805q-10 -54 18.5 -92.5t78.5 -38.5t93 38.5t53 92.5q11 54 -17.5 93t-78.5 39t-93 -39t-54 -93z" />
<glyph unicode="|" horiz-adv-x="544" d="M103 -240l407 2093h245l-407 -2093h-245z" />
<glyph unicode="}" horiz-adv-x="930" d="M216 806q17 88 65 169t114 140t148 94t164 35q169 0 262 -128q94 -129 59 -310q-35 -180 -180 -309q-145 -128 -311 -128q-167 0 -261.5 128.5t-59.5 308.5zM500 805q-10 -54 18.5 -92.5t78.5 -38.5t93 38.5t53 92.5q11 54 -17.5 93t-78.5 39t-93 -39t-54 -93z" />
<glyph unicode="~" horiz-adv-x="1163" d="M127 513l72 367q140 134 252 170q62 20 150.5 -2t213.5 -85q103 -52 176 -70t103 -6q78 31 182 131l71 69l-74 -363l-14 -45q-7 -5 -18.5 -14.5t-45 -32t-63.5 -39t-64.5 -28.5t-57.5 -9q-101 14 -312 103q-103 43 -177.5 57t-106.5 3q-78 -27 -212 -148z" />
<glyph unicode="&#xa1;" horiz-adv-x="550" d="M12 -276l8 37q24 103 120 497t148 627l8 34h313l-181 -1195h-416zM286 1215q19 100 99.5 171t172.5 71t145 -69.5t34 -167.5q-19 -100 -99.5 -171t-172.5 -71q-93 0 -145.5 69t-33.5 168z" />
<glyph unicode="&#xa2;" horiz-adv-x="1276" d="M202 804q59 302 300 516q173 155 368 199l65 336l262 1l-64 -330q204 -37 331 -204l19 -25l-278 -246l-18 24q-86 113 -232 113q-149 0 -273 -112q-125 -113 -156 -273q-31 -159 50.5 -271t229.5 -112q149 0 275 113l28 25l182 -248q-4 -4 -13.5 -12.5t-14.5 -12.5 q-188 -168 -412 -206l-62 -321h-261l64 329q-178 43 -291 198q-158 212 -99 519z" />
<glyph unicode="&#xa3;" horiz-adv-x="1149" d="M59 -35l76 391h78l56 285h-99l49 251h98l15 81q54 280 280 482q222 195 481 199h12q98 -2 141 -18q38 -15 123 -51l34 -14l-255 -347l-24 15q-35 21 -97 22h-5q-111 0 -205.5 -86t-117.5 -203l-16 -80h314l-48 -251h-315l-46 -236h-2l-9 -49h596l-76 -391h-1038z" />
<glyph unicode="&#xa4;" horiz-adv-x="1150" d="M126 411l210 184q-32 100 -7.5 216t95.5 213l-134 186l186 165l133 -187q103 55 211 54.5t189 -55.5l208 182l122 -165l-207 -182q33 -100 9.5 -219t-96.5 -216l133 -185l-185 -163l-135 185q-105 -56 -214.5 -55t-188.5 59l-209 -182zM612.5 808q-11.5 -54 16.5 -92 q28 -39 77.5 -40t93.5 38q43 38 54 92t-16 93q-28 38 -78 38.5t-93 -37.5t-54.5 -92z" />
<glyph unicode="&#xa5;" horiz-adv-x="1399" d="M142 317l48 249h437l11 58h-437l53 269h347l-235 754h414l148 -473l331 473h415l-529 -754h348l-52 -269h-438l-11 -58h438l-49 -249h-438l-68 -352h-365l69 352h-437z" />
<glyph unicode="&#xa6;" horiz-adv-x="544" d="M103 -240l179 919h245l-179 -919h-245zM329 919l181 934h245l-182 -934h-244z" />
<glyph unicode="&#xa7;" horiz-adv-x="1050" d="M75 169l7 35h363l-7 -35q-9 -46 12 -81t59 -43h22q84 0 139 101q19 31 11 53t-50 40q-52 22 -82.5 35t-86.5 36q-170 66 -249 232q-48 98 -20 241q40 209 212 364q-29 36 -54 86q-25 51 -31.5 90.5t5.5 120.5q40 211 213 365q169 152 370 152q200 0 310 -152 q112 -151 71 -365l-7 -35h-363l7 35q10 50 -18 87.5t-75 37.5t-89 -37.5t-52 -88.5q-6 -31 -1 -36q11 -14 36 -34q58 -46 67 -48q2 -1 16.5 -5.5t34.5 -11t42 -14.5q173 -57 261 -222q50 -95 22 -242q-41 -213 -215 -367q55 -66 78.5 -131.5t4.5 -162.5q-41 -214 -212 -365 q-170 -152 -370 -152q-201 0 -311 152q-111 151 -70 365zM568 811q-4 -55 16.5 -79t72.5 -26q52 -1 84.5 21.5t54.5 74.5q3 53 -18 77.5t-73 26.5t-84 -20.5t-53 -74.5z" />
<glyph unicode="&#xa9;" horiz-adv-x="984" d="M267 1162q39 202 199 343q157 142 346 142q187 0 291 -142q105 -142 66 -343t-199 -343t-346 -142q-188 0 -292 142t-65 343zM419 1162q-25 -132 44.5 -226.5t191.5 -94.5t229 94.5t132 226.5q26 133 -43.5 227.5t-192.5 94.5q-122 0 -229 -95t-132 -227zM451 1162 q22 115 118.5 200t204.5 87l48 1l50 -25q42 -22 73 -60l20 -25l-138 -122l-18 26q-24 34 -69 34q-44 0 -82.5 -34.5t-47.5 -81.5q-10 -48 15 -82t70 -34q44 0 84 34l28 24l88 -121l-29 -24q-98 -83 -204 -83q-109 0 -171.5 84t-39.5 202z" />
<glyph unicode="&#xad;" horiz-adv-x="863" d="M131 509l68 353h800l-68 -353h-800z" />
<glyph unicode="&#xae;" horiz-adv-x="984" d="M267 1162q39 202 199 343q157 142 346 142q187 0 291 -142q105 -142 66 -343t-199 -343t-346 -142q-188 0 -292 142t-65 343zM419 1162q-29 -151 64 -251l98 503q-133 -100 -162 -252zM520 879q56 -38 135 -38q82 0 151 38h-102l-47 113l-22 -113h-115zM632 1447h138 q88 0 133 -60q42 -60 27 -140l-3 -15q-9 -48 -41 -91.5t-71 -67.5l60 -147q114 97 141 236q26 133 -43.5 227.5t-192.5 94.5q-78 0 -148 -37zM699 1208l33 -1q12 0 22.5 10.5t13.5 26.5q4 18 -4 26t-32 8h-19z" />
<glyph unicode="&#xaf;" horiz-adv-x="1851" d="M40 41l297 1530h1788l-298 -1530h-1787zM155 143h953l-50 485l-8 -28h-185l-9 -31h138l-52 -169h-139l-9 -30h185l-52 -169h-342l173 563h-3q-32 -103 -95.5 -309t-95.5 -309l-189 284l-71 -231h-138zM202 383l117 381h-43zM342 1103l94 305l140 -376l380 383l-154 -498 l342 472l56 -512q52 164 78 247l63 204h178q62 0 102 -33.5t46 -89.5q31 52 87.5 89t113.5 37q68 0 105 -52l37 189h-1597zM374 764l151 -228l110 356l-143 -145l-54 152l-42 -135h-22zM869 769h173q-6 44 -8 71h-113zM1112 143h640l143 734q-31 -48 -86 -82.5t-109 -34.5 q-71 0 -107 55t-12 133l9 31h129q-64 27 -81 93q-41 -79 -115 -119l56 -190h-21zM1212 763q6 -72 20 -214l155 218h5l-33 111l-36 -115h-111zM1425 1089h31q17 0 34 23.5t7 39.5q-5 8 -28 8h-22q-4 -14 -12 -38.5t-10 -32.5zM1737 938q-3 -10 7 -10q8 0 16 8t9 17 q-3 1 -10.5 4.5t-12.5 5.5zM1801 1135q8 -8 22 -15l7 30q2 10 0.5 12t-7.5 2q-9 0 -18.5 -11.5t-3.5 -17.5zM1843 1113q58 -27 82 -79l16 79h-98z" />
<glyph unicode="&#xb0;" horiz-adv-x="635" d="M313 1491q25 129 130 223.5t226 94.5t190 -94t43 -224q-25 -130 -130.5 -223.5t-225.5 -93.5t-189 94t-44 223zM511 1492q-8 -44 14 -74t62 -30t74.5 30.5t42.5 73.5q8 42 -14.5 73t-61.5 31t-74 -31t-43 -73z" />
<glyph unicode="&#xb1;" horiz-adv-x="1851" d="M40 41l297 1530h1788l-298 -1530h-1787zM155 143h953l-50 485l-8 -28h-185l-9 -31h138l-52 -169h-139l-9 -30h185l-52 -169h-342l173 563h-3q-32 -103 -95.5 -309t-95.5 -309l-189 284l-71 -231h-138zM202 383l117 381h-43zM342 1103l94 305l140 -376l380 383l-154 -498 l342 472l56 -512q52 164 78 247l63 204h178q62 0 102 -33.5t46 -89.5q31 52 87.5 89t113.5 37q68 0 105 -52l37 189h-1597zM374 764l151 -228l110 356l-143 -145l-54 152l-42 -135h-22zM869 769h173q-6 44 -8 71h-113zM1112 143h640l143 734q-31 -48 -86 -82.5t-109 -34.5 q-71 0 -107 55t-12 133l9 31h129q-64 27 -81 93q-41 -79 -115 -119l56 -190h-21zM1212 763q6 -72 20 -214l155 218h5l-33 111l-36 -115h-111zM1425 1089h31q17 0 34 23.5t7 39.5q-5 8 -28 8h-22q-4 -14 -12 -38.5t-10 -32.5zM1737 938q-3 -10 7 -10q8 0 16 8t9 17 q-3 1 -10.5 4.5t-12.5 5.5zM1801 1135q8 -8 22 -15l7 30q2 10 0.5 12t-7.5 2q-9 0 -18.5 -11.5t-3.5 -17.5zM1843 1113q58 -27 82 -79l16 79h-98z" />
<glyph unicode="&#xb2;" horiz-adv-x="1992" d="M40 41l297 1530h1788l-298 -1530h-1787zM155 143h953l-50 485l-8 -28h-185l-9 -31h138l-52 -169h-139l-9 -30h185l-52 -169h-342l173 563h-3q-32 -103 -95.5 -309t-95.5 -309l-189 284l-71 -231h-138zM202 383l117 381h-43zM342 1103l94 305l140 -376l380 383l-154 -498 l342 472l56 -512q52 164 78 247l63 204h178q62 0 102 -33.5t46 -89.5q31 52 87.5 89t113.5 37q68 0 105 -52l37 189h-1597zM374 764l151 -228l110 356l-143 -145l-54 152l-42 -135h-22zM869 769h173q-6 44 -8 71h-113zM1112 143h640l143 734q-31 -48 -86 -82.5t-109 -34.5 q-71 0 -107 55t-12 133l9 31h129q-64 27 -81 93q-41 -79 -115 -119l56 -190h-21zM1212 763q6 -72 20 -214l155 218h5l-33 111l-36 -115h-111zM1425 1089h31q17 0 34 23.5t7 39.5q-5 8 -28 8h-22q-4 -14 -12 -38.5t-10 -32.5zM1737 938q-3 -10 7 -10q8 0 16 8t9 17 q-3 1 -10.5 4.5t-12.5 5.5zM1801 1135q8 -8 22 -15l7 30q2 10 0.5 12t-7.5 2q-9 0 -18.5 -11.5t-3.5 -17.5zM1843 1113q58 -27 82 -79l16 79h-98z" />
<glyph unicode="&#xb3;" horiz-adv-x="1992" d="M40 41l297 1530h1788l-298 -1530h-1787zM155 143h953l-50 485l-8 -28h-185l-9 -31h138l-52 -169h-139l-9 -30h185l-52 -169h-342l173 563h-3q-32 -103 -95.5 -309t-95.5 -309l-189 284l-71 -231h-138zM202 383l117 381h-43zM342 1103l94 305l140 -376l380 383l-154 -498 l342 472l56 -512q52 164 78 247l63 204h178q62 0 102 -33.5t46 -89.5q31 52 87.5 89t113.5 37q68 0 105 -52l37 189h-1597zM374 764l151 -228l110 356l-143 -145l-54 152l-42 -135h-22zM869 769h173q-6 44 -8 71h-113zM1112 143h640l143 734q-31 -48 -86 -82.5t-109 -34.5 q-71 0 -107 55t-12 133l9 31h129q-64 27 -81 93q-41 -79 -115 -119l56 -190h-21zM1212 763q6 -72 20 -214l155 218h5l-33 111l-36 -115h-111zM1425 1089h31q17 0 34 23.5t7 39.5q-5 8 -28 8h-22q-4 -14 -12 -38.5t-10 -32.5zM1737 938q-3 -10 7 -10q8 0 16 8t9 17 q-3 1 -10.5 4.5t-12.5 5.5zM1801 1135q8 -8 22 -15l7 30q2 10 0.5 12t-7.5 2q-9 0 -18.5 -11.5t-3.5 -17.5zM1843 1113q58 -27 82 -79l16 79h-98z" />
<glyph unicode="&#xb4;" horiz-adv-x="1992" d="M40 41l297 1530h1788l-298 -1530h-1787zM155 143h953l-50 485l-8 -28h-185l-9 -31h138l-52 -169h-139l-9 -30h185l-52 -169h-342l173 563h-3q-32 -103 -95.5 -309t-95.5 -309l-189 284l-71 -231h-138zM202 383l117 381h-43zM342 1103l94 305l140 -376l380 383l-154 -498 l342 472l56 -512q52 164 78 247l63 204h178q62 0 102 -33.5t46 -89.5q31 52 87.5 89t113.5 37q68 0 105 -52l37 189h-1597zM374 764l151 -228l110 356l-143 -145l-54 152l-42 -135h-22zM869 769h173q-6 44 -8 71h-113zM1112 143h640l143 734q-31 -48 -86 -82.5t-109 -34.5 q-71 0 -107 55t-12 133l9 31h129q-64 27 -81 93q-41 -79 -115 -119l56 -190h-21zM1212 763q6 -72 20 -214l155 218h5l-33 111l-36 -115h-111zM1425 1089h31q17 0 34 23.5t7 39.5q-5 8 -28 8h-22q-4 -14 -12 -38.5t-10 -32.5zM1737 938q-3 -10 7 -10q8 0 16 8t9 17 q-3 1 -10.5 4.5t-12.5 5.5zM1801 1135q8 -8 22 -15l7 30q2 10 0.5 12t-7.5 2q-9 0 -18.5 -11.5t-3.5 -17.5zM1843 1113q58 -27 82 -79l16 79h-98z" />
<glyph unicode="&#xb5;" horiz-adv-x="1992" d="M40 41l297 1530h1788l-298 -1530h-1787zM155 143h953l-50 485l-8 -28h-185l-9 -31h138l-52 -169h-139l-9 -30h185l-52 -169h-342l173 563h-3q-32 -103 -95.5 -309t-95.5 -309l-189 284l-71 -231h-138zM202 383l117 381h-43zM342 1103l94 305l140 -376l380 383l-154 -498 l342 472l56 -512q52 164 78 247l63 204h178q62 0 102 -33.5t46 -89.5q31 52 87.5 89t113.5 37q68 0 105 -52l37 189h-1597zM374 764l151 -228l110 356l-143 -145l-54 152l-42 -135h-22zM869 769h173q-6 44 -8 71h-113zM1112 143h640l143 734q-31 -48 -86 -82.5t-109 -34.5 q-71 0 -107 55t-12 133l9 31h129q-64 27 -81 93q-41 -79 -115 -119l56 -190h-21zM1212 763q6 -72 20 -214l155 218h5l-33 111l-36 -115h-111zM1425 1089h31q17 0 34 23.5t7 39.5q-5 8 -28 8h-22q-4 -14 -12 -38.5t-10 -32.5zM1737 938q-3 -10 7 -10q8 0 16 8t9 17 q-3 1 -10.5 4.5t-12.5 5.5zM1801 1135q8 -8 22 -15l7 30q2 10 0.5 12t-7.5 2q-9 0 -18.5 -11.5t-3.5 -17.5zM1843 1113q58 -27 82 -79l16 79h-98z" />
<glyph unicode="&#xb6;" horiz-adv-x="1851" d="M40 41l297 1530h1788l-298 -1530h-1787zM155 143h953l-50 485l-8 -28h-185l-9 -31h138l-52 -169h-139l-9 -30h185l-52 -169h-342l173 563h-3q-32 -103 -95.5 -309t-95.5 -309l-189 284l-71 -231h-138zM202 383l117 381h-43zM342 1103l94 305l140 -376l380 383l-154 -498 l342 472l56 -512q52 164 78 247l63 204h178q62 0 102 -33.5t46 -89.5q31 52 87.5 89t113.5 37q68 0 105 -52l37 189h-1597zM374 764l151 -228l110 356l-143 -145l-54 152l-42 -135h-22zM869 769h173q-6 44 -8 71h-113zM1112 143h640l143 734q-31 -48 -86 -82.5t-109 -34.5 q-71 0 -107 55t-12 133l9 31h129q-64 27 -81 93q-41 -79 -115 -119l56 -190h-21zM1212 763q6 -72 20 -214l155 218h5l-33 111l-36 -115h-111zM1425 1089h31q17 0 34 23.5t7 39.5q-5 8 -28 8h-22q-4 -14 -12 -38.5t-10 -32.5zM1737 938q-3 -10 7 -10q8 0 16 8t9 17 q-3 1 -10.5 4.5t-12.5 5.5zM1801 1135q8 -8 22 -15l7 30q2 10 0.5 12t-7.5 2q-9 0 -18.5 -11.5t-3.5 -17.5zM1843 1113q58 -27 82 -79l16 79h-98z" />
<glyph unicode="&#xbc;" horiz-adv-x="1992" d="M40 41l297 1530h1788l-298 -1530h-1787zM155 143h953l-50 485l-8 -28h-185l-9 -31h138l-52 -169h-139l-9 -30h185l-52 -169h-342l173 563h-3q-32 -103 -95.5 -309t-95.5 -309l-189 284l-71 -231h-138zM202 383l117 381h-43zM342 1103l94 305l140 -376l380 383l-154 -498 l342 472l56 -512q52 164 78 247l63 204h178q62 0 102 -33.5t46 -89.5q31 52 87.5 89t113.5 37q68 0 105 -52l37 189h-1597zM374 764l151 -228l110 356l-143 -145l-54 152l-42 -135h-22zM869 769h173q-6 44 -8 71h-113zM1112 143h640l143 734q-31 -48 -86 -82.5t-109 -34.5 q-71 0 -107 55t-12 133l9 31h129q-64 27 -81 93q-41 -79 -115 -119l56 -190h-21zM1212 763q6 -72 20 -214l155 218h5l-33 111l-36 -115h-111zM1425 1089h31q17 0 34 23.5t7 39.5q-5 8 -28 8h-22q-4 -14 -12 -38.5t-10 -32.5zM1737 938q-3 -10 7 -10q8 0 16 8t9 17 q-3 1 -10.5 4.5t-12.5 5.5zM1801 1135q8 -8 22 -15l7 30q2 10 0.5 12t-7.5 2q-9 0 -18.5 -11.5t-3.5 -17.5zM1843 1113q58 -27 82 -79l16 79h-98z" />
<glyph unicode="&#xbd;" horiz-adv-x="1992" d="M40 41l297 1530h1788l-298 -1530h-1787zM155 143h953l-50 485l-8 -28h-185l-9 -31h138l-52 -169h-139l-9 -30h185l-52 -169h-342l173 563h-3q-32 -103 -95.5 -309t-95.5 -309l-189 284l-71 -231h-138zM202 383l117 381h-43zM342 1103l94 305l140 -376l380 383l-154 -498 l342 472l56 -512q52 164 78 247l63 204h178q62 0 102 -33.5t46 -89.5q31 52 87.5 89t113.5 37q68 0 105 -52l37 189h-1597zM374 764l151 -228l110 356l-143 -145l-54 152l-42 -135h-22zM869 769h173q-6 44 -8 71h-113zM1112 143h640l143 734q-31 -48 -86 -82.5t-109 -34.5 q-71 0 -107 55t-12 133l9 31h129q-64 27 -81 93q-41 -79 -115 -119l56 -190h-21zM1212 763q6 -72 20 -214l155 218h5l-33 111l-36 -115h-111zM1425 1089h31q17 0 34 23.5t7 39.5q-5 8 -28 8h-22q-4 -14 -12 -38.5t-10 -32.5zM1737 938q-3 -10 7 -10q8 0 16 8t9 17 q-3 1 -10.5 4.5t-12.5 5.5zM1801 1135q8 -8 22 -15l7 30q2 10 0.5 12t-7.5 2q-9 0 -18.5 -11.5t-3.5 -17.5zM1843 1113q58 -27 82 -79l16 79h-98z" />
<glyph unicode="&#xbe;" horiz-adv-x="1992" d="M40 41l297 1530h1788l-298 -1530h-1787zM155 143h953l-50 485l-8 -28h-185l-9 -31h138l-52 -169h-139l-9 -30h185l-52 -169h-342l173 563h-3q-32 -103 -95.5 -309t-95.5 -309l-189 284l-71 -231h-138zM202 383l117 381h-43zM342 1103l94 305l140 -376l380 383l-154 -498 l342 472l56 -512q52 164 78 247l63 204h178q62 0 102 -33.5t46 -89.5q31 52 87.5 89t113.5 37q68 0 105 -52l37 189h-1597zM374 764l151 -228l110 356l-143 -145l-54 152l-42 -135h-22zM869 769h173q-6 44 -8 71h-113zM1112 143h640l143 734q-31 -48 -86 -82.5t-109 -34.5 q-71 0 -107 55t-12 133l9 31h129q-64 27 -81 93q-41 -79 -115 -119l56 -190h-21zM1212 763q6 -72 20 -214l155 218h5l-33 111l-36 -115h-111zM1425 1089h31q17 0 34 23.5t7 39.5q-5 8 -28 8h-22q-4 -14 -12 -38.5t-10 -32.5zM1737 938q-3 -10 7 -10q8 0 16 8t9 17 q-3 1 -10.5 4.5t-12.5 5.5zM1801 1135q8 -8 22 -15l7 30q2 10 0.5 12t-7.5 2q-9 0 -18.5 -11.5t-3.5 -17.5zM1843 1113q58 -27 82 -79l16 79h-98z" />
<glyph unicode="&#xbf;" horiz-adv-x="1052" d="M85 250q18 95 70.5 165t131.5 137q84 75 179 163q36 33 51.5 70.5t15.5 102.5v42l379 1l-12 -64q-27 -140 -97 -236q-65 -91 -174 -188q-47 -40 -114 -108q-52 -53 -59 -85q-10 -52 18 -90.5t77 -38.5t91.5 38t52.5 91l7 35h369l-7 -35q-43 -219 -216 -371 q-173 -155 -375 -155q-203 0 -317 155q-113 154 -71 371zM547 1221q19 99 98.5 168t172.5 69q92 0 145 -71.5t34 -169.5q-19 -99 -99 -168.5t-173 -69.5t-145.5 71t-32.5 171z" />
<glyph unicode="&#xc0;" d="M36 0l1036 1610h87l411 -1610h-398l-63 245h-517l-159 -245h-397zM816 566h193l-53 218zM842 2042l292 196l222 -423l-194 -128z" />
<glyph unicode="&#xc1;" d="M36 0l1036 1610h87l411 -1610h-398l-63 245h-517l-159 -245h-397zM816 566h193l-53 218zM957 1815l387 423l216 -196l-457 -355z" />
<glyph unicode="&#xc2;" d="M36 0l1036 1610h87l411 -1610h-398l-63 245h-517l-159 -245h-397zM795 1679l433 515l235 -515h-252l-58 128l-109 -128h-249zM816 566h193l-53 218z" />
<glyph unicode="&#xc3;" horiz-adv-x="1588" d="M27 0l1091 1688q-136 49 -184 34q-55 -17 -146 -94l-70 -60l47 276q97 92 189 119q48 14 113.5 -1t159.5 -57q73 -33 125 -44.5t69 -5.5q51 19 124 84l71 67l-55 -270l9 -12l-23 -25q-92 -97 -184 -85q-68 9 -237 71l435 -1685h-398l-63 245h-517l-159 -245h-397z M807 566h193l-53 218z" />
<glyph unicode="&#xc4;" d="M36 0l1036 1610h87l411 -1610h-398l-63 245h-517l-159 -245h-397zM779 1834q13 65 69 110.5t119 45.5t102 -46t26 -110q-13 -65 -69 -110t-119 -45q-64 0 -102.5 44.5t-25.5 110.5zM816 566h193l-53 218zM1238 1834q13 65 69 110.5t119 45.5q64 0 101.5 -45t24.5 -111 t-68 -110.5t-119 -44.5q-63 0 -101.5 45t-25.5 110z" />
<glyph unicode="&#xc5;" horiz-adv-x="1606" d="M36 0l1054 1631q-78 11 -123.5 74t-28.5 148q18 94 98.5 159t172.5 65t147.5 -65t37.5 -159q-17 -86 -89.5 -150t-155.5 -73l421 -1630h-398l-63 245h-517l-159 -245h-397zM816 566h193l-53 218zM1121 1852q-5 -26 1.5 -34.5t34.5 -8.5t38.5 8.5t15.5 34.5q5 27 -2 35.5 t-35 8.5t-38 -8.5t-15 -35.5z" />
<glyph unicode="&#xc6;" horiz-adv-x="2027" d="M28 4l1048 1615h1239l-77 -393h-618l-43 -220h468l-77 -393h-467l-43 -220h618l-76 -393h-1002l41 213h-459l-149 -209h-403zM809 571l301 4l130 667z" />
<glyph unicode="&#xc7;" horiz-adv-x="1497" d="M184 804q67 340 346 580q295 241 646 241h44l-2 -5q148 -7 273 -66q133 -66 222 -182l19 -25l-318 -282l-20 25q-108 135 -295 135q-189 0 -344 -127q-158 -127 -193 -305q-34 -177 74 -305q108 -126 295 -126t347 127l29 23l212 -264l-28 -23q-216 -182 -473 -223 q-35 -148 -115 -273t-174 -192l-123 -88l-205 267l87 29q23 8 114 93q58 55 95 165q-241 43 -392 225q-187 238 -121 576z" />
<glyph unicode="&#xc8;" horiz-adv-x="1134" d="M73 0l315 1620h1034l-77 -394h-649l-42 -219h498l-77 -394h-498l-43 -219h650l-77 -394h-1034zM669 2045l295 196l231 -423l-199 -128z" />
<glyph unicode="&#xc9;" horiz-adv-x="1134" d="M73 0l315 1620h1034l-77 -394h-649l-42 -219h498l-77 -394h-498l-43 -219h650l-77 -394h-1034zM735 1818l395 423l214 -196l-460 -355z" />
<glyph unicode="&#xca;" horiz-adv-x="1134" d="M73 0l315 1620h1034l-77 -394h-649l-42 -219h498l-77 -394h-498l-43 -219h650l-77 -394h-1034zM583 1683l436 515l239 -515h-252l-62 128l-110 -128h-251z" />
<glyph unicode="&#xcb;" horiz-adv-x="1134" d="M73 0l315 1619h1034l-77 -393h-650l-43 -220h500l-77 -393h-499l-43 -220h650l-76 -393h-1034zM564 1867q13 65 65 110.5t115 45.5q64 0 104.5 -45.5t27.5 -110.5t-70.5 -110t-121.5 -45q-63 0 -98 44.5t-22 110.5zM1021 1867q12 65 70.5 110.5t123.5 45.5q63 0 98 -45 t22 -111t-65.5 -110.5t-115.5 -44.5q-65 0 -105 44.5t-28 110.5z" />
<glyph unicode="&#xcc;" horiz-adv-x="596" d="M157 0l315 1620h366l-314 -1620h-367zM398 2045l270 196l195 -423l-179 -128z" />
<glyph unicode="&#xcd;" horiz-adv-x="610" d="M73 0l315 1620h367l-315 -1620h-367zM454 1818l360 423l194 -196l-423 -355z" />
<glyph unicode="&#xce;" horiz-adv-x="676" d="M122 0l315 1620h432l-315 -1620h-432zM327 1683l436 515l240 -515h-230l-85 128l-132 -128h-229z" />
<glyph unicode="&#xcf;" horiz-adv-x="772" d="M163 0l314 1619h433l-315 -1619h-432zM363 1867q12 63 63.5 109.5t110.5 46.5t101 -48t30 -108t-72 -107.5t-119 -47.5t-93 45.5t-21 109.5zM832 1867q12 60 71.5 108t117.5 48t92.5 -46.5t22.5 -109.5t-64 -109t-111 -46t-100 47.5t-29 107.5z" />
<glyph unicode="&#xd0;" horiz-adv-x="1429" d="M146 658l55 282h131l131 676h427q370 0 570 -238q167 -218 99 -571t-321 -570q-302 -237 -685 -237h-404l128 658h-131zM591 394h40q207 0 355 108.5t195 306.5q19 103 1 181t-69 130t-127 78t-174 26h-39l-57 -294l288 -1l-64 -260l-295 1z" />
<glyph unicode="&#xd1;" horiz-adv-x="1636" d="M91 0l314 1616h79l713 -848l165 848h379l-315 -1616h-82l-711 846l-165 -846h-377zM709 1619l47 275q99 93 187 119q48 14 112 -1t157 -57q71 -33 122.5 -44.5t68.5 -5.5q49 18 123 84l75 67l-55 -270l10 -12l-24 -25q-98 -96 -187 -85q-73 10 -226 68q-72 28 -124 37 t-72 3q-51 -16 -145 -95z" />
<glyph unicode="&#xd2;" horiz-adv-x="1652" d="M184 805q67 340 345 578q149 123 296 182.5t316 59.5t292.5 -59.5t225.5 -182.5q189 -242 123 -578q-66 -338 -348 -578q-148 -122 -294.5 -180.5t-316.5 -58.5t-294 58.5t-225 180.5q-187 239 -120 578zM561 807q-34 -171 74 -297q57 -65 116 -94t149 -29q88 0 158.5 29 t154.5 94q156 125 190 297q33 173 -74 298q-58 66 -117 94.5t-148 28.5q-91 0 -161.5 -29t-151.5 -94q-157 -129 -190 -298zM840 2042l283 196l211 -423l-188 -128z" />
<glyph unicode="&#xd3;" horiz-adv-x="1652" d="M184 805q65 337 345 578q149 123 296 182.5t316 59.5t293 -59.5t226 -182.5q188 -242 122 -578q-66 -338 -347 -578q-149 -122 -296 -180.5t-316 -58.5q-170 0 -294 58.5t-225 180.5q-186 240 -120 578zM561 807q-34 -172 74 -297q57 -65 116 -94t149 -29q88 0 158.5 29 t154.5 94q156 125 190 297q33 173 -74 298q-58 66 -117 94.5t-148 28.5q-90 0 -161 -29t-152 -94q-157 -127 -190 -298zM942 1815l376 423l207 -196l-444 -355z" />
<glyph unicode="&#xd4;" horiz-adv-x="1652" d="M184 805q65 337 345 578q149 123 296 182.5t316 59.5t292.5 -59.5t225.5 -182.5q189 -242 123 -578q-66 -338 -348 -578q-148 -122 -294.5 -180.5t-316.5 -58.5t-294 58.5t-225 180.5q-186 240 -120 578zM561 807q-34 -172 74 -297q57 -65 116 -94t149 -29q88 0 158.5 29 t154.5 94q156 125 190 297q33 173 -74 298q-58 66 -117 94.5t-148 28.5q-90 0 -161 -29t-152 -94q-157 -127 -190 -298zM827 1680l421 515l223 -515h-243l-55 128l-106 -128h-240z" />
<glyph unicode="&#xd5;" horiz-adv-x="1651" d="M184 804q66 338 345 579q149 123 295.5 182t316.5 59q169 0 293 -59t225 -182q187 -242 121 -579q-66 -339 -346 -577q-148 -122 -294.5 -180.5t-316.5 -58.5t-294 58.5t-225 180.5q-186 237 -120 577zM561 807q-34 -176 74 -298q56 -65 115 -94t150 -29q89 0 159 29 t153 95q157 123 191 297q34 173 -75 297q-57 66 -116 95t-148 29q-91 0 -161.5 -29t-151.5 -95q-155 -123 -190 -297zM785 1619l46 276q103 95 184 119q20 6 40.5 6t36.5 -2t46.5 -14t48.5 -19.5t63 -28.5q129 -61 160 -50q51 19 122 84l73 66l-55 -269l10 -12l-24 -25 q-26 -26 -50.5 -43.5t-44.5 -28t-44.5 -12.5t-41 -1.5t-45 9t-45 15t-52 21.5t-55.5 23q-130 51 -164 40q-53 -17 -141 -94z" />
<glyph unicode="&#xd6;" horiz-adv-x="1651" d="M184 804q67 340 345 579q148 123 294.5 182t316.5 59q169 0 293 -59t226 -182q187 -242 121 -579q-66 -339 -346 -577q-149 -122 -296 -180.5t-316 -58.5q-170 0 -294.5 58.5t-223.5 180.5q-186 237 -120 577zM561 807q-34 -176 73 -298q57 -65 116 -94t149 -29 q89 0 159.5 29.5t153.5 94.5q157 121 191 297q33 173 -76 297q-57 66 -116 95t-148 29q-90 0 -160.5 -29t-152.5 -95q-157 -127 -189 -297zM810 1864q13 65 67.5 110.5t116.5 45.5q61 0 98 -46t24 -110t-67.5 -109.5t-115.5 -45.5q-62 0 -99 45t-24 110zM1253 1864 q13 64 67.5 110t115.5 46t98.5 -46t24.5 -110t-67.5 -109.5t-115.5 -45.5q-62 0 -99 45t-24 110z" />
<glyph unicode="&#xd7;" horiz-adv-x="1927" />
<glyph unicode="&#xd8;" horiz-adv-x="1688" d="M183 800q67 339 346 581q292 242 640 242q55 0 114 -10l109 205h322l-163 -298q82 -54 146 -132q187 -243 121 -580q-66 -341 -347 -581q-148 -121 -298.5 -180.5t-321.5 -59.5q-61 0 -111 7l-106 -199h-322l154 282q-91 56 -163 143q-186 239 -120 580zM554 771 q-21 -111 8 -205t99 -159l436 820h-5q-187 0 -343 -135q-160 -136 -195 -321zM941 350q85 4 155 36t149 98q158 133 195 322q39 203 -91 346z" />
<glyph unicode="&#xd9;" horiz-adv-x="1487" d="M198 646l189 970h380l-186 -957q-23 -116 49 -194.5t188 -78.5q115 0 219 79t127 194l186 957h379l-189 -970q-53 -275 -277 -466q-233 -192 -521 -192t-447 192q-150 190 -97 466zM808 2041l288 196l218 -423l-193 -128z" />
<glyph unicode="&#xda;" horiz-adv-x="1487" d="M198 646l189 970h380l-186 -957q-23 -116 49 -194.5t188 -78.5q115 0 219 79t127 194l186 957h379l-189 -970q-53 -275 -277 -466q-233 -192 -521 -192t-447 192q-150 190 -97 466zM871 1814l383 423l212 -196l-452 -355z" />
<glyph unicode="&#xdb;" horiz-adv-x="1487" d="M198 646l189 970h380l-186 -957q-23 -115 49 -194t188 -79q115 0 219.5 79t126.5 194l186 957h379l-189 -970q-53 -275 -277 -466q-233 -192 -521 -192t-447 192q-150 190 -97 466zM739 1679l428 515l231 -515h-248l-58 128l-106 -128h-247z" />
<glyph unicode="&#xdc;" horiz-adv-x="1488" d="M198 646l189 969h379l-186 -956q-22 -114 51 -193.5t188 -79.5t219.5 79.5t126.5 193.5l185 956h380l-189 -969q-53 -272 -278 -466q-236 -192 -520 -192q-288 0 -448 192q-150 194 -97 466zM728 1863q13 64 69 110t118 46t100 -46t25 -110t-68.5 -109.5t-117.5 -45.5 q-63 0 -101 45t-25 110zM1179 1863q13 65 67.5 109.5t118.5 46.5q64 1 101.5 -45.5t24.5 -110.5q-13 -65 -68.5 -110t-118.5 -45t-100.5 45t-24.5 110z" />
<glyph unicode="&#xdd;" horiz-adv-x="1543" d="M332 1620h431l166 -476l351 476h431l-649 -899l-140 -721h-366l140 721zM880 1818l382 423l211 -196l-451 -355z" />
<glyph unicode="&#xde;" horiz-adv-x="1350" d="M63 0l313 1612h366l-47 -242h223q251 0 378 -165q122 -165 77 -399q-45 -233 -231 -399q-190 -165 -444 -165h-223l-47 -242h-365zM547 610h223q83 0 156 56.5t89 139.5t-35 140t-134 57h-223z" />
<glyph unicode="&#xdf;" horiz-adv-x="2302" d="M116 437l2 31l399 84l-8 -42q-9 -44 25.5 -82t87.5 -46h1h19q58 0 116 39t67 85q5 26 -4.5 46.5t-26 34t-47 26.5t-56.5 20.5t-65.5 18.5t-63.5 19q-156 53 -241 173t-54 282q40 208 217 352.5t401 144.5q203 0 321.5 -128.5t105.5 -323.5l-2 -31l-401 -84q15 79 -8 125 t-91 46q-54 0 -101 -36t-57 -87q-6 -28 5 -52t30.5 -40t53.5 -31t63 -24t69 -21q6 -1 9 -2l7.5 -2.5t8.5 -2.5q162 -46 251 -163t57 -283q-27 -136 -122 -251t-232.5 -181t-284.5 -66q-205 0 -333 129t-118 323zM1279 437l2 31l399 84l-8 -42q-9 -44 25.5 -82t87.5 -46h19 q58 0 116 39t67 85q5 26 -4.5 46.5t-26 34t-47 26.5t-56.5 20.5t-65.5 18.5t-63.5 19q-156 53 -241 173t-54 282q40 208 217 352.5t401 144.5q203 0 322 -128.5t106 -323.5l-2 -31l-402 -84q15 79 -8 125t-91 46q-54 0 -101 -36t-57 -87q-6 -28 5 -52t30.5 -40t53.5 -31 t63 -24t69 -21q17 -5 25 -7q162 -46 251.5 -163t57.5 -283q-27 -136 -122 -251t-232.5 -181t-284.5 -66q-205 0 -333 129t-118 323z" />
<glyph unicode="&#xe0;" d="M36 0l1036 1610h87l411 -1610h-398l-63 245h-517l-159 -245h-397zM816 566h193l-53 218zM842 2042l292 196l222 -423l-194 -128z" />
<glyph unicode="&#xe1;" d="M36 0l1036 1610h87l411 -1610h-398l-63 245h-517l-159 -245h-397zM816 566h193l-53 218zM957 1815l387 423l216 -196l-457 -355z" />
<glyph unicode="&#xe2;" d="M36 0l1036 1610h87l411 -1610h-398l-63 245h-517l-159 -245h-397zM795 1679l433 515l235 -515h-252l-58 128l-109 -128h-249zM816 566h193l-53 218z" />
<glyph unicode="&#xe3;" horiz-adv-x="1709" d="M27 0l1091 1688q-136 49 -184 34q-55 -17 -146 -94l-70 -60l47 276q97 92 189 119q48 14 113.5 -1t159.5 -57q73 -33 125 -44.5t69 -5.5q51 19 124 84l71 67l-55 -270l9 -12l-23 -25q-92 -97 -184 -85q-68 9 -237 71l435 -1685h-398l-63 245h-517l-159 -245h-397z M807 566h193l-53 218z" />
<glyph unicode="&#xe4;" d="M36 0l1036 1610h87l411 -1610h-398l-63 245h-517l-159 -245h-397zM779 1834q13 65 69 110.5t119 45.5t102 -46t26 -110q-13 -65 -69 -110t-119 -45q-64 0 -102.5 44.5t-25.5 110.5zM816 566h193l-53 218zM1238 1834q13 65 69 110.5t119 45.5q64 0 101.5 -45t24.5 -111 t-68 -110.5t-119 -44.5q-63 0 -101.5 45t-25.5 110z" />
<glyph unicode="&#xe5;" d="M36 0l1054 1631q-78 11 -123.5 74t-28.5 148q18 94 98.5 159t172.5 65t147.5 -65t37.5 -159q-17 -86 -89.5 -150t-155.5 -73l421 -1630h-398l-63 245h-517l-159 -245h-397zM816 566h193l-53 218zM1121 1852q-5 -26 1.5 -34.5t34.5 -8.5t38.5 8.5t15.5 34.5q5 27 -2 35.5 t-35 8.5t-38 -8.5t-15 -35.5z" />
<glyph unicode="&#xe6;" horiz-adv-x="2181" d="M28 4l1048 1615h1239l-77 -393h-618l-43 -220h468l-77 -393h-467l-43 -220h618l-76 -393h-1002l41 213h-459l-149 -209h-403zM809 571l301 4l130 667z" />
<glyph unicode="&#xe7;" horiz-adv-x="1612" d="M184 804q67 340 346 580q295 241 646 241h44l-2 -5q148 -7 273 -66q133 -66 222 -182l19 -25l-318 -282l-20 25q-108 135 -295 135q-189 0 -344 -127q-158 -127 -193 -305q-34 -177 74 -305q108 -126 295 -126t347 127l29 23l212 -264l-28 -23q-216 -182 -473 -223 q-35 -148 -115 -273t-174 -192l-123 -88l-205 267l87 29q23 8 114 93q58 55 95 165q-241 43 -392 225q-187 238 -121 576z" />
<glyph unicode="&#xe8;" horiz-adv-x="1222" d="M73 0l315 1620h1034l-77 -394h-649l-42 -219h498l-77 -394h-498l-43 -219h650l-77 -394h-1034zM669 2045l295 196l231 -423l-199 -128z" />
<glyph unicode="&#xe9;" horiz-adv-x="1222" d="M73 0l315 1620h1034l-77 -394h-649l-42 -219h498l-77 -394h-498l-43 -219h650l-77 -394h-1034zM735 1818l395 423l214 -196l-460 -355z" />
<glyph unicode="&#xea;" horiz-adv-x="1222" d="M73 0l315 1620h1034l-77 -394h-649l-42 -219h498l-77 -394h-498l-43 -219h650l-77 -394h-1034zM583 1683l436 515l239 -515h-252l-62 128l-110 -128h-251z" />
<glyph unicode="&#xeb;" horiz-adv-x="1222" d="M73 0l315 1619h1034l-77 -393h-650l-43 -220h500l-77 -393h-499l-43 -220h650l-76 -393h-1034zM564 1867q13 65 65 110.5t115 45.5q64 0 104.5 -45.5t27.5 -110.5t-70.5 -110t-121.5 -45q-63 0 -98 44.5t-22 110.5zM1021 1867q12 65 70.5 110.5t123.5 45.5q63 0 98 -45 t22 -111t-65.5 -110.5t-115.5 -44.5q-65 0 -105 44.5t-28 110.5z" />
<glyph unicode="&#xec;" horiz-adv-x="643" d="M157 0l315 1620h366l-314 -1620h-367zM398 2045l270 196l195 -423l-179 -128z" />
<glyph unicode="&#xed;" horiz-adv-x="658" d="M73 0l315 1620h367l-315 -1620h-367zM454 1818l360 423l194 -196l-423 -355z" />
<glyph unicode="&#xee;" horiz-adv-x="727" d="M122 0l315 1620h432l-315 -1620h-432zM327 1683l436 515l240 -515h-230l-85 128l-132 -128h-229z" />
<glyph unicode="&#xef;" horiz-adv-x="831" d="M163 0l314 1619h433l-315 -1619h-432zM363 1867q12 63 63.5 109.5t110.5 46.5t101 -48t30 -108t-72 -107.5t-119 -47.5t-93 45.5t-21 109.5zM832 1867q12 60 71.5 108t117.5 48t92.5 -46.5t22.5 -109.5t-64 -109t-111 -46t-100 47.5t-29 107.5z" />
<glyph unicode="&#xf0;" horiz-adv-x="1538" d="M146 658l55 282h131l131 676h427q370 0 570 -238q167 -218 99 -571t-321 -570q-302 -237 -685 -237h-404l128 658h-131zM591 394h40q207 0 355 108.5t195 306.5q19 103 1 181t-69 130t-127 78t-174 26h-39l-57 -294l288 -1l-64 -260l-295 1z" />
<glyph unicode="&#xf1;" horiz-adv-x="1636" d="M92 6l314 1616h79l713 -848l165 848h379l-315 -1616h-82l-711 846l-165 -846h-377zM710 1625l47 275q99 93 187 119q48 14 112 -1t157 -57q71 -33 122.5 -44.5t68.5 -5.5q50 18 123 84l75 67l-55 -270l10 -12l-24 -25q-98 -96 -187 -85q-73 10 -226 68q-72 28 -124 37 t-72 3q-51 -16 -145 -95z" />
<glyph unicode="&#xf2;" horiz-adv-x="1778" d="M184 805q67 340 345 578q149 123 296 182.5t316 59.5t292.5 -59.5t225.5 -182.5q189 -242 123 -578q-66 -338 -348 -578q-148 -122 -294.5 -180.5t-316.5 -58.5t-294 58.5t-225 180.5q-187 239 -120 578zM561 807q-34 -171 74 -297q57 -65 116 -94t149 -29q88 0 158.5 29 t154.5 94q156 125 190 297q33 173 -74 298q-58 66 -117 94.5t-148 28.5q-91 0 -161.5 -29t-151.5 -94q-157 -129 -190 -298zM840 2042l283 196l211 -423l-188 -128z" />
<glyph unicode="&#xf3;" horiz-adv-x="1778" d="M184 805q65 337 345 578q149 123 296 182.5t316 59.5t293 -59.5t226 -182.5q188 -242 122 -578q-66 -338 -347 -578q-149 -122 -296 -180.5t-316 -58.5q-170 0 -294 58.5t-225 180.5q-186 240 -120 578zM561 807q-34 -172 74 -297q57 -65 116 -94t149 -29q88 0 158.5 29 t154.5 94q156 125 190 297q33 173 -74 298q-58 66 -117 94.5t-148 28.5q-90 0 -161 -29t-152 -94q-157 -127 -190 -298zM942 1815l376 423l207 -196l-444 -355z" />
<glyph unicode="&#xf4;" horiz-adv-x="1778" d="M184 805q65 337 345 578q149 123 296 182.5t316 59.5t292.5 -59.5t225.5 -182.5q189 -242 123 -578q-66 -338 -348 -578q-148 -122 -294.5 -180.5t-316.5 -58.5t-294 58.5t-225 180.5q-186 240 -120 578zM561 807q-34 -172 74 -297q57 -65 116 -94t149 -29q88 0 158.5 29 t154.5 94q156 125 190 297q33 173 -74 298q-58 66 -117 94.5t-148 28.5q-90 0 -161 -29t-152 -94q-157 -127 -190 -298zM827 1680l421 515l223 -515h-243l-55 128l-106 -128h-240z" />
<glyph unicode="&#xf5;" horiz-adv-x="1777" d="M184 804q66 338 345 579q149 123 295.5 182t316.5 59q169 0 293 -59t225 -182q187 -242 121 -579q-66 -339 -346 -577q-148 -122 -294.5 -180.5t-316.5 -58.5t-294 58.5t-225 180.5q-186 237 -120 577zM561 807q-34 -176 74 -298q56 -65 115 -94t150 -29q89 0 159 29 t153 95q157 123 191 297q34 173 -75 297q-57 66 -116 95t-148 29q-91 0 -161.5 -29t-151.5 -95q-155 -123 -190 -297zM785 1619l46 276q103 95 184 119q20 6 40.5 6t36.5 -2t46.5 -14t48.5 -19.5t63 -28.5q129 -61 160 -50q51 19 122 84l73 66l-55 -269l10 -12l-24 -25 q-26 -26 -50.5 -43.5t-44.5 -28t-44.5 -12.5t-41 -1.5t-45 9t-45 15t-52 21.5t-55.5 23q-130 51 -164 40q-53 -17 -141 -94z" />
<glyph unicode="&#xf6;" horiz-adv-x="1777" d="M184 804q67 340 345 579q148 123 294.5 182t316.5 59q169 0 293 -59t226 -182q187 -242 121 -579q-66 -339 -346 -577q-149 -122 -296 -180.5t-316 -58.5q-170 0 -294.5 58.5t-223.5 180.5q-186 237 -120 577zM561 807q-34 -176 73 -298q57 -65 116 -94t149 -29 q89 0 159.5 29.5t153.5 94.5q157 121 191 297q33 173 -76 297q-57 66 -116 95t-148 29q-90 0 -160.5 -29t-152.5 -95q-157 -127 -189 -297zM810 1864q13 65 67.5 110.5t116.5 45.5q61 0 98 -46t24 -110t-67.5 -109.5t-115.5 -45.5q-62 0 -99 45t-24 110zM1253 1864 q13 64 67.5 110t115.5 46t98.5 -46t24.5 -110t-67.5 -109.5t-115.5 -45.5q-62 0 -99 45t-24 110z" />
<glyph unicode="&#xf7;" horiz-adv-x="1992" d="M40 41l297 1530h1788l-298 -1530h-1787zM155 143h953l-50 485l-8 -28h-185l-9 -31h138l-52 -169h-139l-9 -30h185l-52 -169h-342l173 563h-3q-32 -103 -95.5 -309t-95.5 -309l-189 284l-71 -231h-138zM202 383l117 381h-43zM342 1103l94 305l140 -376l380 383l-154 -498 l342 472l56 -512q52 164 78 247l63 204h178q62 0 102 -33.5t46 -89.5q31 52 87.5 89t113.5 37q68 0 105 -52l37 189h-1597zM374 764l151 -228l110 356l-143 -145l-54 152l-42 -135h-22zM869 769h173q-6 44 -8 71h-113zM1112 143h640l143 734q-31 -48 -86 -82.5t-109 -34.5 q-71 0 -107 55t-12 133l9 31h129q-64 27 -81 93q-41 -79 -115 -119l56 -190h-21zM1212 763q6 -72 20 -214l155 218h5l-33 111l-36 -115h-111zM1425 1089h31q17 0 34 23.5t7 39.5q-5 8 -28 8h-22q-4 -14 -12 -38.5t-10 -32.5zM1737 938q-3 -10 7 -10q8 0 16 8t9 17 q-3 1 -10.5 4.5t-12.5 5.5zM1801 1135q8 -8 22 -15l7 30q2 10 0.5 12t-7.5 2q-9 0 -18.5 -11.5t-3.5 -17.5zM1843 1113q58 -27 82 -79l16 79h-98z" />
<glyph unicode="&#xf8;" horiz-adv-x="1817" d="M183 800q67 339 346 581q292 242 640 242q55 0 114 -10l109 205h322l-163 -298q82 -54 146 -132q187 -243 121 -580q-66 -341 -347 -581q-148 -121 -298.5 -180.5t-321.5 -59.5q-61 0 -111 7l-106 -199h-322l154 282q-91 56 -163 143q-186 239 -120 580zM554 771 q-21 -111 8 -205t99 -159l436 820h-5q-187 0 -343 -135q-160 -136 -195 -321zM941 350q85 4 155 36t149 98q158 133 195 322q39 203 -91 346z" />
<glyph unicode="&#xf9;" horiz-adv-x="1603" d="M198 646l189 970h380l-186 -957q-23 -116 49 -194.5t188 -78.5q115 0 219 79t127 194l186 957h379l-189 -970q-53 -275 -277 -466q-233 -192 -521 -192t-447 192q-150 190 -97 466zM808 2041l288 196l218 -423l-193 -128z" />
<glyph unicode="&#xfa;" horiz-adv-x="1603" d="M198 646l189 970h380l-186 -957q-23 -116 49 -194.5t188 -78.5q115 0 219 79t127 194l186 957h379l-189 -970q-53 -275 -277 -466q-233 -192 -521 -192t-447 192q-150 190 -97 466zM871 1814l383 423l212 -196l-452 -355z" />
<glyph unicode="&#xfb;" horiz-adv-x="1603" d="M198 646l189 970h380l-186 -957q-23 -115 49 -194t188 -79q115 0 219.5 79t126.5 194l186 957h379l-189 -970q-53 -275 -277 -466q-233 -192 -521 -192t-447 192q-150 190 -97 466zM739 1679l428 515l231 -515h-248l-58 128l-106 -128h-247z" />
<glyph unicode="&#xfc;" horiz-adv-x="1604" d="M198 646l189 969h379l-186 -956q-22 -114 51 -193.5t188 -79.5t219.5 79.5t126.5 193.5l185 956h380l-189 -969q-53 -272 -278 -466q-236 -192 -520 -192q-288 0 -448 192q-150 194 -97 466zM728 1863q13 64 69 110t118 46t100 -46t25 -110t-68.5 -109.5t-117.5 -45.5 q-63 0 -101 45t-25 110zM1179 1863q13 65 67.5 109.5t118.5 46.5q64 1 101.5 -45.5t24.5 -110.5q-13 -65 -68.5 -110t-118.5 -45t-100.5 45t-24.5 110z" />
<glyph unicode="&#xfd;" horiz-adv-x="1433" d="M342 1620h431l166 -476l351 476h431l-649 -899l-140 -721h-366l140 721zM890 1818l382 423l211 -196l-451 -355z" />
<glyph unicode="&#xfe;" horiz-adv-x="1253" d="M73 0l313 1612h366l-47 -242h223q251 0 378 -165q122 -165 77 -399q-45 -233 -231 -399q-190 -165 -444 -165h-223l-47 -242h-365zM557 610h223q83 0 156 56.5t89 139.5t-35 140t-134 57h-223z" />
<glyph unicode="&#xff;" horiz-adv-x="1433" d="M342 1620h431l166 -476l351 476h431l-649 -899l-140 -721h-366l140 721zM699 1863q13 64 68.5 110t117.5 46t100.5 -46t25.5 -110t-68.5 -109.5t-118.5 -45.5t-100.5 45t-24.5 110zM1149 1863q13 65 68 110.5t118 45.5q62 -1 99.5 -46.5t24.5 -109.5t-68 -109.5 t-117 -45.5q-63 0 -100.5 45t-24.5 110z" />
<glyph unicode="&#x100;" horiz-adv-x="1573" />
<glyph unicode="&#x101;" />
<glyph unicode="&#x102;" d="M36 0l1036 1610h87l411 -1610h-398l-63 245h-517l-159 -245h-397zM816 566h193l-53 218zM868 2037l7 35h224l-7 -35q-9 -44 17 -74.5t70 -30.5t82 30.5t47 74.5l6 35h225l-7 -35q-27 -136 -144.5 -231t-251.5 -95q-87 0 -154.5 42.5t-99.5 118t-14 165.5z" />
<glyph unicode="&#x103;" d="M36 0l1036 1610h87l411 -1610h-398l-63 245h-517l-159 -245h-397zM816 566h193l-53 218zM868 2037l7 35h224l-7 -35q-9 -44 17 -74.5t70 -30.5t82 30.5t47 74.5l6 35h225l-7 -35q-27 -136 -144.5 -231t-251.5 -95q-87 0 -154.5 42.5t-99.5 118t-14 165.5z" />
<glyph unicode="&#x104;" horiz-adv-x="1588" d="M27 0l1044 1615h73l417 -1615h-41q-5 -3 -23.5 -14t-43.5 -26.5t-53 -32.5q-114 -70 -133 -154q-1 -2 0 -3v-1q11 -5 42 -5t65 3l33 3h28l-14 -294h-37q-8 0 -67 -6q-97 -9 -178 17t-131 79q-67 70 -32 218q33 143 167 254l-51 207h-500l-157 -245h-408zM815 566h178 l-47 212z" />
<glyph unicode="&#x105;" horiz-adv-x="1709" d="M27 0l1044 1615h73l417 -1615h-41q-5 -3 -23.5 -14t-43.5 -26.5t-53 -32.5q-114 -70 -133 -154q-1 -2 0 -3v-1q11 -5 42 -5t65 3l33 3h28l-14 -294h-37q-8 0 -67 -6q-97 -9 -178 17t-131 79q-67 70 -32 218q33 143 167 254l-51 207h-500l-157 -245h-408zM815 566h178 l-47 212z" />
<glyph unicode="&#x106;" horiz-adv-x="1497" d="M184 805q66 337 346 579q297 241 646 241h44l-2 -5q163 -8 288.5 -75t206.5 -173l19 -25l-318 -280l-20 24q-109 134 -295 134q-190 0 -344 -123q-158 -125 -191 -298q-34 -173 75 -297q109 -123 297 -123t347 134l30 24l209 -280l-28 -25q-129 -114 -293 -182 q-167 -66 -343 -66q-351 2 -553 238q-187 240 -121 578zM968 1818l380 423l210 -196l-448 -355z" />
<glyph unicode="&#x107;" horiz-adv-x="1612" d="M184 805q66 337 346 579q297 241 646 241h44l-2 -5q163 -8 288.5 -75t206.5 -173l19 -25l-318 -280l-20 24q-109 134 -295 134q-190 0 -344 -123q-158 -125 -191 -298q-34 -173 75 -297q109 -123 297 -123t347 134l30 24l209 -280l-28 -25q-129 -114 -293 -182 q-167 -66 -343 -66q-351 2 -553 238q-187 240 -121 578zM968 1818l380 423l210 -196l-448 -355z" />
<glyph unicode="&#x10c;" horiz-adv-x="1497" d="M184 805q66 337 346 579q297 241 646 241h44l-2 -5q163 -8 288.5 -75t206.5 -173l19 -25l-318 -280l-20 24q-109 134 -295 134q-190 0 -344 -123q-158 -125 -191 -298q-34 -173 75 -297q109 -123 297 -123t347 134l30 24l209 -280l-28 -25q-129 -114 -293 -182 q-167 -66 -343 -66q-351 2 -553 238q-187 240 -121 578zM892 2157h245l57 -128l106 128h246l-428 -515z" />
<glyph unicode="&#x10d;" horiz-adv-x="1612" d="M184 805q66 337 346 579q297 241 646 241h44l-2 -5q163 -8 288.5 -75t206.5 -173l19 -25l-318 -280l-20 24q-109 134 -295 134q-190 0 -344 -123q-158 -125 -191 -298q-34 -173 75 -297q109 -123 297 -123t347 134l30 24l209 -280l-28 -25q-129 -114 -293 -182 q-167 -66 -343 -66q-351 2 -553 238q-187 240 -121 578zM892 2157h245l57 -128l106 128h246l-428 -515z" />
<glyph unicode="&#x10e;" horiz-adv-x="1470" d="M91 0l313 1611h464v1h33q192 0 343 -63.5t247 -173.5q167 -218 99 -570q-68 -354 -321 -569q-325 -236 -746 -236h-432zM551 393h50q226 0 385 106t223 308q19 98 -1.5 177.5t-73.5 130.5t-132 78.5t-178 27.5h-106zM693 2157h294l57 -128l110 128h257l-443 -515z" />
<glyph unicode="&#x10f;" horiz-adv-x="1584" d="M91 0l313 1611h464v1h33q192 0 343 -63.5t247 -173.5q167 -218 99 -570q-68 -354 -321 -569q-325 -236 -746 -236h-432zM551 393h50q226 0 385 106t223 308q19 98 -1.5 177.5t-73.5 130.5t-132 78.5t-178 27.5h-106zM693 2157h294l57 -128l110 128h257l-443 -515z" />
<glyph unicode="&#x110;" horiz-adv-x="1428" d="M146 658l55 282h131l131 676h427q370 0 570 -238q167 -218 99 -571t-321 -570q-302 -237 -685 -237h-404l128 658h-131zM591 394h40q207 0 355 108.5t195 306.5q19 103 1 181t-69 130t-127 78t-174 26h-58l-57 -294l297 -1l-54 -260l-295 1z" />
<glyph unicode="&#x111;" horiz-adv-x="1538" d="M146 658l55 282h131l131 676h427q370 0 570 -238q167 -218 99 -571t-321 -570q-302 -237 -685 -237h-404l128 658h-131zM591 394h40q207 0 355 108.5t195 306.5q19 103 1 181t-69 130t-127 78t-174 26h-58l-57 -294l297 -1l-54 -260l-295 1z" />
<glyph unicode="&#x112;" horiz-adv-x="1134" d="M73 0l315 1619h1034l-77 -393h-650l-43 -220h500l-77 -393h-499l-43 -220h650l-76 -393h-1034zM584 1699l45 232h672l-45 -232h-672z" />
<glyph unicode="&#x113;" horiz-adv-x="1222" d="M73 0l315 1619h1034l-77 -393h-650l-43 -220h500l-77 -393h-499l-43 -220h650l-76 -393h-1034zM584 1699l45 232h672l-45 -232h-672z" />
<glyph unicode="&#x114;" horiz-adv-x="1134" d="M73 0l315 1619h1034l-77 -393h-650l-43 -220h500l-77 -393h-499l-43 -220h650l-76 -393h-1034zM650 2037l7 35h226l-7 -35q-9 -45 17.5 -75t71.5 -30q44 0 83 30.5t48 74.5l7 35h225l-6 -35q-26 -137 -140 -231q-118 -95 -260 -95t-223 95q-75 93 -49 231z" />
<glyph unicode="&#x115;" horiz-adv-x="1222" d="M73 0l315 1619h1034l-77 -393h-650l-43 -220h500l-77 -393h-499l-43 -220h650l-76 -393h-1034zM650 2037l7 35h226l-7 -35q-9 -45 17.5 -75t71.5 -30q44 0 83 30.5t48 74.5l7 35h225l-6 -35q-26 -137 -140 -231q-118 -95 -260 -95t-223 95q-75 93 -49 231z" />
<glyph unicode="&#x116;" horiz-adv-x="1134" d="M73 0l315 1619h1034l-77 -393h-650l-43 -220h500l-77 -393h-499l-43 -220h650l-76 -393h-1034zM770 1878q15 74 80 125t139 51t119 -51t30 -125t-79.5 -125t-137.5 -51q-75 0 -120.5 50.5t-30.5 125.5z" />
<glyph unicode="&#x117;" horiz-adv-x="1222" d="M73 0l315 1619h1034l-77 -393h-650l-43 -220h500l-77 -393h-499l-43 -220h650l-76 -393h-1034zM770 1878q15 74 80 125t139 51t119 -51t30 -125t-79.5 -125t-137.5 -51q-75 0 -120.5 50.5t-30.5 125.5z" />
<glyph unicode="&#x118;" horiz-adv-x="1134" d="M73 0l315 1619h1034l-77 -393h-650l-43 -220h500l-77 -393h-499l-43 -220h650l-76 -393h-23q-5 -3 -23.5 -14t-44 -26.5t-53.5 -32.5q-112 -68 -131 -154q-1 -4 4 -7t16 -4t28 1l118 9l-13 -296h-37q-10 0 -68 -6q-97 -9 -182 17.5t-139 78.5q-71 70 -36 218 q27 117 130 216h-580z" />
<glyph unicode="&#x119;" horiz-adv-x="1222" d="M73 0l315 1619h1034l-77 -393h-650l-43 -220h500l-77 -393h-499l-43 -220h650l-76 -393h-23q-5 -3 -23.5 -14t-44 -26.5t-53.5 -32.5q-112 -68 -131 -154q-1 -4 4 -7t16 -4t28 1l118 9l-13 -296h-37q-10 0 -68 -6q-97 -9 -182 17.5t-139 78.5q-71 70 -36 218 q27 117 130 216h-580z" />
<glyph unicode="&#x11a;" horiz-adv-x="1134" d="M73 0l315 1619h1034l-77 -393h-650l-43 -220h500l-77 -393h-499l-43 -220h650l-76 -393h-1034zM675 2157h252l60 -128l111 128h252l-439 -515z" />
<glyph unicode="&#x11b;" horiz-adv-x="1222" d="M73 0l315 1619h1034l-77 -393h-650l-43 -220h500l-77 -393h-499l-43 -220h650l-76 -393h-1034zM675 2157h252l60 -128l111 128h252l-439 -515z" />
<glyph unicode="&#x11e;" horiz-adv-x="1703" d="M184 808q65 337 345 578q291 241 639 241h25v-3q169 -5 301.5 -73t219.5 -176l19 -25l-330 -280l-19 24q-107 135 -290 135q-186 0 -340 -124q-155 -123 -190 -297q-34 -174 74 -299q105 -123 292 -123q119 0 230 55.5t186 143.5h-429l69 357h868l-4 -31 q-51 -416 -360 -681q-294 -240 -640 -240q-349 0 -546 239q-186 238 -120 579zM927 2037l7 35h217l-6 -35q-9 -45 15 -75t67 -30q42 0 79 30.5t45 74.5l7 35h217l-6 -35q-26 -135 -140 -230.5t-244 -95.5q-131 0 -208 95t-50 231z" />
<glyph unicode="&#x11f;" horiz-adv-x="1833" d="M184 808q65 337 345 578q291 241 639 241h25v-3q169 -5 301.5 -73t219.5 -176l19 -25l-330 -280l-19 24q-107 135 -290 135q-186 0 -340 -124q-155 -123 -190 -297q-34 -174 74 -299q105 -123 292 -123q119 0 230 55.5t186 143.5h-429l69 357h868l-4 -31 q-51 -416 -360 -681q-294 -240 -640 -240q-349 0 -546 239q-186 238 -120 579zM927 2037l7 35h217l-6 -35q-9 -45 15 -75t67 -30q42 0 79 30.5t45 74.5l7 35h217l-6 -35q-26 -135 -140 -230.5t-244 -95.5q-131 0 -208 95t-50 231z" />
<glyph unicode="&#x122;" horiz-adv-x="1668" />
<glyph unicode="&#x123;" horiz-adv-x="1833" />
<glyph unicode="&#x12a;" horiz-adv-x="605" d="M119 0l315 1619h366l-315 -1619h-366zM330 1699l45 232h606l-45 -232h-606z" />
<glyph unicode="&#x12b;" horiz-adv-x="651" d="M119 0l315 1619h366l-315 -1619h-366zM330 1699l45 232h606l-45 -232h-606z" />
<glyph unicode="&#x12e;" horiz-adv-x="605" d="M-33 -216q39 164 193 277l302 1558h367l-312 -1603l-145 -89q-113 -68 -132 -154q-1 -4 3.5 -6.5t15.5 -4t29 0.5l118 9l-13 -296h-37q-9 0 -67 -6q-191 -19 -293 96q-63 70 -29 218z" />
<glyph unicode="&#x12f;" horiz-adv-x="653" d="M-33 -216q39 164 193 277l302 1558h367l-312 -1603l-145 -89q-113 -68 -132 -154q-1 -4 3.5 -6.5t15.5 -4t29 0.5l118 9l-13 -296h-37q-9 0 -67 -6q-191 -19 -293 96q-63 70 -29 218z" />
<glyph unicode="&#x130;" horiz-adv-x="548" d="M91 0l315 1619h366l-315 -1619h-366zM477 1878q14 72 71.5 124t124.5 52t105.5 -52t24.5 -124t-72.5 -124t-125.5 -52t-104.5 52t-23.5 124z" />
<glyph unicode="&#x131;" horiz-adv-x="594" d="M91 0l315 1619h366l-315 -1619h-366zM477 1878q14 72 71.5 124t124.5 52t105.5 -52t24.5 -124t-72.5 -124t-125.5 -52t-104.5 52t-23.5 124z" />
<glyph unicode="&#x136;" horiz-adv-x="1363" d="M73 0l313 1612h365l-120 -618l518 618h424l-636 -817l400 -795h-446l-336 599l-117 -599h-365zM319 -444l26 26q94 82 112 164q21 92 10 154l-7 46l365 1l2 -27q10 -129 -84 -285q-92 -153 -240 -235l-28 -16z" />
<glyph unicode="&#x137;" horiz-adv-x="1469" d="M73 0l313 1612h365l-120 -618l518 618h424l-636 -817l400 -795h-446l-336 599l-117 -599h-365zM319 -444l26 26q94 82 112 164q21 92 10 154l-7 46l365 1l2 -27q10 -129 -84 -285q-92 -153 -240 -235l-28 -16z" />
<glyph unicode="&#x139;" horiz-adv-x="1134" d="M73 0l315 1619h383l-238 -1226h650l-76 -393h-1034zM454 1818l370 423l223 -196l-462 -355z" />
<glyph unicode="&#x13a;" horiz-adv-x="1112" />
<glyph unicode="&#x13b;" horiz-adv-x="1134" d="M73 0l315 1619h383l-238 -1226h650l-76 -393h-1034zM276 -444l29 26q93 81 112 164q21 93 12 154l-7 46l351 1l2 -27q9 -130 -83 -285q-91 -154 -233 -235l-27 -16z" />
<glyph unicode="&#x13c;" horiz-adv-x="1222" d="M73 0l315 1619h383l-238 -1226h650l-76 -393h-1034zM276 -444l29 26q93 81 112 164q21 93 12 154l-7 46l351 1l2 -27q9 -130 -83 -285q-91 -154 -233 -235l-27 -16z" />
<glyph unicode="&#x13d;" horiz-adv-x="1134" d="M73 0l315 1619h383l-238 -1226h650l-76 -393h-1034zM784 1230l29 25q94 81 112 163q20 89 11 154l-6 46l340 1l1 -27q4 -133 -79 -286t-226 -234l-27 -16z" />
<glyph unicode="&#x13e;" horiz-adv-x="1222" d="M73 0l315 1619h383l-238 -1226h650l-76 -393h-1034zM784 1230l29 25q94 81 112 163q20 89 11 154l-6 46l340 1l1 -27q4 -133 -79 -286t-226 -234l-27 -16z" />
<glyph unicode="&#x141;" horiz-adv-x="1260" d="M92 424l64 333l209 99l149 763h396l-110 -567l437 185l-64 -328l-437 -186l-64 -330h637l-76 -393h-1034l101 522z" />
<glyph unicode="&#x142;" horiz-adv-x="1356" d="M92 424l64 333l209 99l149 763h396l-110 -567l437 185l-64 -328l-437 -186l-64 -330h637l-76 -393h-1034l101 522z" />
<glyph unicode="&#x143;" horiz-adv-x="1636" d="M91 0l314 1616h79l713 -848l165 848h379l-315 -1616h-82l-711 846l-165 -846h-377zM890 1818l382 423l212 -196l-451 -355z" />
<glyph unicode="&#x144;" horiz-adv-x="1636" d="M91 0l314 1616h79l713 -848l165 848h379l-315 -1616h-82l-711 846l-165 -846h-377zM890 1818l382 423l212 -196l-451 -355z" />
<glyph unicode="&#x145;" horiz-adv-x="1636" d="M91 0l314 1616h79l713 -848l165 848h379l-315 -1616h-82l-711 846l-165 -846h-377zM450 -476l28 25q91 82 109 164q20 89 12 154l-6 46l336 1l2 -27q7 -130 -82 -285q-90 -157 -225 -236l-27 -16z" />
<glyph unicode="&#x146;" horiz-adv-x="1636" d="M91 0l314 1616h79l713 -848l165 848h379l-315 -1616h-82l-711 846l-165 -846h-377zM450 -476l28 25q91 82 109 164q20 89 12 154l-6 46l336 1l2 -27q7 -130 -82 -285q-90 -157 -225 -236l-27 -16z" />
<glyph unicode="&#x147;" horiz-adv-x="1636" d="M91 0l314 1616h79l713 -848l165 848h379l-315 -1616h-82l-711 846l-165 -846h-377zM844 2123h246l58 -128l107 128h248l-431 -515z" />
<glyph unicode="&#x148;" horiz-adv-x="1636" d="M91 0l314 1616h79l713 -848l165 848h379l-315 -1616h-82l-711 846l-165 -846h-377zM844 2123h246l58 -128l107 128h248l-431 -515z" />
<glyph unicode="&#x150;" horiz-adv-x="1652" d="M184 805q65 337 345 578q149 123 296 182.5t316 59.5t293 -59.5t226 -182.5q188 -242 122 -578q-66 -338 -347 -578q-149 -122 -296 -180.5t-316 -58.5q-170 0 -294 58.5t-225 180.5q-186 240 -120 578zM561 807q-34 -172 74 -297q57 -65 116 -94t149 -29q88 0 158.5 29 t154.5 94q156 125 190 297q33 173 -74 298q-58 66 -117 94.5t-148 28.5q-90 0 -161 -29t-152 -94q-157 -127 -190 -298zM828 1739l295 477l233 -131l80 131l253 -141l-377 -425l-169 89l151 246l-296 -335z" />
<glyph unicode="&#x151;" horiz-adv-x="1778" d="M184 805q65 337 345 578q149 123 296 182.5t316 59.5t293 -59.5t226 -182.5q188 -242 122 -578q-66 -338 -347 -578q-149 -122 -296 -180.5t-316 -58.5q-170 0 -294 58.5t-225 180.5q-186 240 -120 578zM561 807q-34 -172 74 -297q57 -65 116 -94t149 -29q88 0 158.5 29 t154.5 94q156 125 190 297q33 173 -74 298q-58 66 -117 94.5t-148 28.5q-90 0 -161 -29t-152 -94q-157 -127 -190 -298zM828 1739l295 477l233 -131l80 131l253 -141l-377 -425l-169 89l151 246l-296 -335z" />
<glyph unicode="&#x152;" horiz-adv-x="2277" d="M184 805q66 338 345 579q289 241 610 241q239 0 405 -125l23 114l997 -1l-73 -372h-617l-46 -241h466l-77 -393h-466l-43 -220h617l-76 -392h-997l23 117q-216 -123 -454 -123q-323 1 -517 238q-186 237 -120 578zM552 770q-36 -188 66 -322q53 -70 114.5 -102t151.5 -32 q182 0 338 134q111 96 161 219l39 205q-3 125 -75 220q-105 135 -285 135q-90 0 -164 -32t-154 -102q-156 -138 -192 -323z" />
<glyph unicode="&#x153;" horiz-adv-x="2450" d="M184 805q66 338 345 579q289 241 610 241q239 0 405 -125l23 114l997 -1l-73 -372h-617l-46 -241h466l-77 -393h-466l-43 -220h617l-76 -392h-997l23 117q-216 -123 -454 -123q-323 1 -517 238q-186 237 -120 578zM552 770q-36 -188 66 -322q53 -70 114.5 -102t151.5 -32 q182 0 338 134q111 96 161 219l39 205q-3 125 -75 220q-105 135 -285 135q-90 0 -164 -32t-154 -102q-156 -138 -192 -323z" />
<glyph unicode="&#x154;" horiz-adv-x="1358" d="M73 0l315 1621h548q135 0 252 -43q102 -42 169 -127q124 -158 81 -380l-10 -47q-31 -164 -161 -312q-46 -52 -87 -83t-98 -56l249 -573h-446l-324 626l-121 -626h-367zM603 842h98l117 -1q74 0 146 55q69 55 86 144q15 78 -32 134q-23 26 -74 40t-106 14h-160zM752 1818 l401 423l218 -196l-468 -355z" />
<glyph unicode="&#x155;" horiz-adv-x="1463" d="M73 0l315 1621h548q135 0 252 -43q102 -42 169 -127q124 -158 81 -380l-10 -47q-31 -164 -161 -312q-46 -52 -87 -83t-98 -56l249 -573h-446l-324 626l-121 -626h-367zM603 842h98l117 -1q74 0 146 55q69 55 86 144q15 78 -32 134q-23 26 -74 40t-106 14h-160zM752 1818 l401 423l218 -196l-468 -355z" />
<glyph unicode="&#x158;" horiz-adv-x="1358" d="M73 0l315 1621h548q135 0 252 -43q102 -42 169 -127q124 -158 81 -380l-10 -47q-31 -164 -161 -312q-46 -52 -87 -83t-98 -56l249 -573h-446l-324 626l-121 -626h-367zM603 842h98l117 -1q74 0 146 55q69 55 86 144q15 78 -32 134q-23 26 -74 40t-106 14h-160zM674 2157 h237l63 -128l115 128h261l-452 -515z" />
<glyph unicode="&#x159;" horiz-adv-x="1463" d="M73 0l315 1621h548q135 0 252 -43q102 -42 169 -127q124 -158 81 -380l-10 -47q-31 -164 -161 -312q-46 -52 -87 -83t-98 -56l249 -573h-446l-324 626l-121 -626h-367zM603 842h98l117 -1q74 0 146 55q69 55 86 144q15 78 -32 134q-23 26 -74 40t-106 14h-160zM674 2157 h237l63 -128l115 128h261l-452 -515z" />
<glyph unicode="&#x15e;" horiz-adv-x="1119" d="M133 492l7 34h386l-6 -34q-9 -48 19.5 -82t74.5 -40h17q52 0 100.5 36.5t58.5 87.5q15 76 -44 97q-31 11 -198 69q-187 64 -271 227q-50 97 -23 235q41 206 214 355q175 149 408 149t347 -155q115 -155 73 -371l-7 -35h-386l7 35q10 52 -23.5 89.5t-85.5 37.5 q-53 0 -101.5 -35t-58.5 -86q-13 -66 38 -98q67 -44 79 -47q6 -2 19.5 -5.5t39 -11t48.5 -13.5q195 -53 287 -213q52 -94 25 -234q-41 -206 -212 -352q-70 -59 -141 -91q90 -99 67 -250q-24 -147 -113 -218q-75 -54 -172 -80t-198 -17l-113 10l106 292l129 -8q56 -4 59 10 q11 85 -85 153l-108 77q-144 41 -220.5 175.5t-42.5 306.5z" />
<glyph unicode="&#x15f;" horiz-adv-x="1205" d="M133 492l7 34h386l-6 -34q-9 -48 19.5 -82t74.5 -40h17q52 0 100.5 36.5t58.5 87.5q15 76 -44 97q-31 11 -198 69q-187 64 -271 227q-50 97 -23 235q41 206 214 355q175 149 408 149t347 -155q115 -155 73 -371l-7 -35h-386l7 35q10 52 -23.5 89.5t-85.5 37.5 q-53 0 -101.5 -35t-58.5 -86q-13 -66 38 -98q67 -44 79 -47q6 -2 19.5 -5.5t39 -11t48.5 -13.5q195 -53 287 -213q52 -94 25 -234q-41 -206 -212 -352q-70 -59 -141 -91q90 -99 67 -250q-24 -147 -113 -218q-75 -54 -172 -80t-198 -17l-113 10l106 292l129 -8q56 -4 59 10 q11 85 -85 153l-108 77q-144 41 -220.5 175.5t-42.5 306.5z" />
<glyph unicode="&#x160;" horiz-adv-x="1119" d="M116 437l2 31l399 84l-8 -42q-9 -44 25.5 -82t87.5 -46h1h19q58 0 116 39t67 85q5 26 -4.5 46.5t-26 34t-47 26.5t-56.5 20.5t-65.5 18.5t-63.5 19q-156 53 -241 173t-54 282q40 208 217 352.5t401 144.5q203 0 321.5 -128.5t105.5 -323.5l-2 -31l-401 -84q15 79 -8 125 t-91 46q-54 0 -101 -36t-57 -87q-6 -28 5 -52t30.5 -40t53.5 -31t63 -24t69 -21q6 -1 9 -2l7.5 -2.5t8.5 -2.5q162 -46 251 -163t57 -283q-27 -136 -122 -251t-232.5 -181t-284.5 -66q-205 0 -333 129t-118 323zM641 2158h252l61 -128l110 128h253l-439 -515z" />
<glyph unicode="&#x161;" horiz-adv-x="1205" d="M116 437l2 31l399 84l-8 -42q-9 -44 25.5 -82t87.5 -46h1h19q58 0 116 39t67 85q5 26 -4.5 46.5t-26 34t-47 26.5t-56.5 20.5t-65.5 18.5t-63.5 19q-156 53 -241 173t-54 282q40 208 217 352.5t401 144.5q203 0 321.5 -128.5t105.5 -323.5l-2 -31l-401 -84q15 79 -8 125 t-91 46q-54 0 -101 -36t-57 -87q-6 -28 5 -52t30.5 -40t53.5 -31t63 -24t69 -21q6 -1 9 -2l7.5 -2.5t8.5 -2.5q162 -46 251 -163t57 -283q-27 -136 -122 -251t-232.5 -181t-284.5 -66q-205 0 -333 129t-118 323zM641 2158h252l61 -128l110 128h253l-439 -515z" />
<glyph unicode="&#x162;" horiz-adv-x="1305" d="M266 1226l76 393h1251l-77 -393h-432l-227 -1166q160 -112 138 -276q-22 -148 -140 -218q-102 -61 -209 -84q-85 -19 -157 -12l-106 10l105 292l115 -9q51 -4 53 11q12 84 -73 153l-124 89l235 1210h-428z" />
<glyph unicode="&#x163;" horiz-adv-x="1240" d="M266 1226l76 393h1186l-77 -393h-392l-226 -1166q123 -110 99 -276q-22 -148 -120 -218q-74 -54 -168.5 -79.5t-193.5 -16.5l-110 10l104 292l127 -9q55 -4 57 11q11 85 -83 153l-123 89l235 1210h-391z" />
<glyph unicode="&#x164;" horiz-adv-x="1240" d="M266 1226l76 393h1186l-77 -393h-392l-224 -1226h-412l234 1226h-391zM704 2157h251l58 -128l110 128h251l-436 -515z" />
<glyph unicode="&#x165;" horiz-adv-x="1335" d="M266 1226l76 393h1186l-77 -393h-392l-224 -1226h-412l234 1226h-391zM704 2157h251l58 -128l110 128h251l-436 -515z" />
<glyph unicode="&#x16a;" horiz-adv-x="1488" d="M198 646l189 969h379l-186 -956q-22 -114 51 -193.5t188 -79.5t219.5 79.5t126.5 193.5l185 956h380l-189 -969q-53 -272 -278 -466q-236 -192 -520 -192q-288 0 -448 192q-150 194 -97 466zM745 1686l45 232h654l-45 -232h-654z" />
<glyph unicode="&#x16b;" horiz-adv-x="1604" d="M198 646l189 969h379l-186 -956q-22 -114 51 -193.5t188 -79.5t219.5 79.5t126.5 193.5l185 956h380l-189 -969q-53 -272 -278 -466q-236 -192 -520 -192q-288 0 -448 192q-150 194 -97 466zM745 1686l45 232h654l-45 -232h-654z" />
<glyph unicode="&#x16e;" horiz-adv-x="1488" d="M198 646l189 969h379l-186 -956q-22 -114 51 -193.5t188 -79.5t219.5 79.5t126.5 193.5l185 956h380l-189 -969q-53 -272 -278 -466q-236 -192 -520 -192q-288 0 -448 192q-150 194 -97 466zM877 1841q18 93 97.5 158t170.5 65t145.5 -65t36.5 -158q-18 -94 -97.5 -159 t-170.5 -65t-145.5 65t-36.5 159zM1058 1840q-5 -27 1.5 -35.5t33.5 -8.5t37.5 8.5t15.5 35.5q5 26 -1.5 34.5t-34.5 8.5q-27 0 -37 -8t-15 -35z" />
<glyph unicode="&#x16f;" horiz-adv-x="1604" d="M198 646l189 969h379l-186 -956q-22 -114 51 -193.5t188 -79.5t219.5 79.5t126.5 193.5l185 956h380l-189 -969q-53 -272 -278 -466q-236 -192 -520 -192q-288 0 -448 192q-150 194 -97 466zM877 1841q18 93 97.5 158t170.5 65t145.5 -65t36.5 -158q-18 -94 -97.5 -159 t-170.5 -65t-145.5 65t-36.5 159zM1058 1840q-5 -27 1.5 -35.5t33.5 -8.5t37.5 8.5t15.5 35.5q5 26 -1.5 34.5t-34.5 8.5q-27 0 -37 -8t-15 -35z" />
<glyph unicode="&#x170;" horiz-adv-x="1488" d="M198 646l189 969h379l-186 -956q-22 -114 51 -193.5t188 -79.5t219.5 79.5t126.5 193.5l185 956h380l-189 -969q-53 -272 -278 -466q-236 -192 -520 -192q-288 0 -448 192q-150 194 -97 466zM745 1799l297 477l240 -130l82 130l257 -141l-382 -425l-174 89l154 245 l-301 -334z" />
<glyph unicode="&#x171;" horiz-adv-x="1604" d="M198 646l189 969h379l-186 -956q-22 -114 51 -193.5t188 -79.5t219.5 79.5t126.5 193.5l185 956h380l-189 -969q-53 -272 -278 -466q-236 -192 -520 -192q-288 0 -448 192q-150 194 -97 466zM745 1799l297 477l240 -130l82 130l257 -141l-382 -425l-174 89l154 245 l-301 -334z" />
<glyph unicode="&#x172;" horiz-adv-x="1488" d="M198 643l188 969h368l-196 -1010q-22 -117 50 -204q73 -85 197 -85q123 0 230 85q107 88 129 204l197 1010h368l-188 -970q-53 -272 -278 -466q-89 -77 -180 -120q-50 -28 -141 -89q-76 -54 -90 -114q-1 -4 4.5 -7t18 -4t31.5 1l130 9l-13 -296h-37q-7 0 -73 -6 q-104 -9 -191 17t-141 80q-54 56 -46 158.5t68 191.5q-197 34 -309 180q-149 193 -96 466z" />
<glyph unicode="&#x173;" horiz-adv-x="1604" d="M198 643l188 969h368l-196 -1010q-22 -117 50 -204q73 -85 197 -85q123 0 230 85q107 88 129 204l197 1010h368l-188 -970q-53 -272 -278 -466q-89 -77 -180 -120q-50 -28 -141 -89q-76 -54 -90 -114q-1 -4 4.5 -7t18 -4t31.5 1l130 9l-13 -296h-37q-7 0 -73 -6 q-104 -9 -191 17t-141 80q-54 56 -46 158.5t68 191.5q-197 34 -309 180q-149 193 -96 466z" />
<glyph unicode="&#x179;" horiz-adv-x="1277" d="M27 -2l847 1225h-590l76 393h1204l-850 -1242h590l-73 -376h-1204zM736 1818l387 423l215 -196l-457 -355z" />
<glyph unicode="&#x17a;" horiz-adv-x="1375" d="M27 -2l847 1225h-590l76 393h1204l-850 -1242h590l-73 -376h-1204zM736 1818l387 423l215 -196l-457 -355z" />
<glyph unicode="&#x17b;" horiz-adv-x="1277" d="M27 -2l847 1225h-590l76 393h1204l-850 -1242h590l-73 -376h-1204zM825 1878q14 74 77.5 125t135.5 51t115.5 -51.5t29.5 -124.5q-14 -74 -77.5 -125t-135.5 -51q-73 0 -116.5 51t-28.5 125z" />
<glyph unicode="&#x17c;" horiz-adv-x="1375" d="M27 -2l847 1225h-590l76 393h1204l-850 -1242h590l-73 -376h-1204zM825 1878q14 74 77.5 125t135.5 51t115.5 -51.5t29.5 -124.5q-14 -74 -77.5 -125t-135.5 -51q-73 0 -116.5 51t-28.5 125z" />
<glyph unicode="&#x17d;" horiz-adv-x="1277" d="M27 -2l847 1225h-590l76 393h1204l-850 -1242h590l-73 -376h-1204zM725 2157h249l58 -128l108 128h251l-434 -515z" />
<glyph unicode="&#x17e;" horiz-adv-x="1375" d="M27 -2l847 1225h-590l76 393h1204l-850 -1242h590l-73 -376h-1204zM725 2157h249l58 -128l108 128h251l-434 -515z" />
<glyph unicode="&#x18f;" horiz-adv-x="1705" d="M185 812q15 79 48 164l10 27h1207q-37 101 -134 162.5t-226 61.5q-138 0 -263 -77l-33 -20l-147 332l33 19q231 134 463 141l2 3h25q346 0 545 -241q185 -242 120 -579q-66 -338 -345 -578q-292 -239 -638 -239q-347 0 -546 241q-187 240 -121 583zM573 641 q31 -111 124.5 -184t228.5 -73q186 0 342 134q67 58 111 123h-806z" />
<glyph unicode="&#x1dd;" horiz-adv-x="1705" d="M185 812q15 79 48 164l10 27h1207q-37 101 -134 162.5t-226 61.5q-138 0 -263 -77l-33 -20l-147 332l33 19q231 134 463 141l2 3h25q346 0 545 -241q185 -242 120 -579q-66 -338 -345 -578q-292 -239 -638 -239q-347 0 -546 241q-187 240 -121 583zM573 641 q31 -111 124.5 -184t228.5 -73q186 0 342 134q67 58 111 123h-806z" />
<glyph unicode="&#x21a;" horiz-adv-x="1240" d="M266 1226l76 393h1186l-77 -393h-392l-224 -1226h-412l234 1226h-391zM348 -444l36 26q85 80 104 164q20 87 13 154l-4 46l311 1l1 -27q9 -121 -80 -285q-83 -154 -212 -235l-24 -16z" />
<glyph unicode="&#x21b;" horiz-adv-x="1335" d="M266 1226l76 393h1186l-77 -393h-392l-224 -1226h-412l234 1226h-391zM348 -444l36 26q85 80 104 164q20 87 13 154l-4 46l311 1l1 -27q9 -121 -80 -285q-83 -154 -212 -235l-24 -16z" />
<glyph unicode="&#x2000;" horiz-adv-x="1138" />
<glyph unicode="&#x2001;" horiz-adv-x="2276" />
<glyph unicode="&#x2002;" horiz-adv-x="1138" />
<glyph unicode="&#x2003;" horiz-adv-x="2276" />
<glyph unicode="&#x2004;" horiz-adv-x="758" />
<glyph unicode="&#x2005;" horiz-adv-x="569" />
<glyph unicode="&#x2006;" horiz-adv-x="379" />
<glyph unicode="&#x2007;" horiz-adv-x="379" />
<glyph unicode="&#x2008;" horiz-adv-x="284" />
<glyph unicode="&#x2009;" horiz-adv-x="455" />
<glyph unicode="&#x200a;" horiz-adv-x="126" />
<glyph unicode="&#x2010;" horiz-adv-x="863" d="M131 509l68 353h800l-68 -353h-800z" />
<glyph unicode="&#x2011;" horiz-adv-x="863" d="M131 509l68 353h800l-68 -353h-800z" />
<glyph unicode="&#x2012;" horiz-adv-x="956" d="M131 509l68 353h893l-68 -353h-893z" />
<glyph unicode="&#x2013;" horiz-adv-x="956" d="M131 509l68 353h893l-68 -353h-893z" />
<glyph unicode="&#x2014;" horiz-adv-x="1486" d="M131 509l68 353h1423l-68 -353h-1423z" />
<glyph unicode="&#x2015;" horiz-adv-x="1672" d="M131 509l68 353h1609l-68 -353h-1609z" />
<glyph unicode="&#x2018;" horiz-adv-x="587" d="M297 1340q36 189 187 336q76 74 176 104q43 13 103 0q3 -1 14 -3t15 -3t12.5 -3t12 -4.5t9.5 -6t9.5 -8.5t6.5 -11q5 -14 4.5 -26.5t-7.5 -24t-16.5 -20.5t-22 -17.5t-23.5 -14.5l-22 -12l-6 -3q-42 -21 -47 -50q61 -30 92.5 -91.5t15.5 -145.5q-18 -91 -84 -165 t-147 -99l-19 -8l-58 -4q-103 -8 -165 79t-40 201zM468 1688z" />
<glyph unicode="&#x2019;" horiz-adv-x="587" d="M297 1099q-25 56 86 114q5 3 7 4q42 22 47 49q-61 30 -93 92t-16 146q18 91 84.5 164.5t147.5 98.5l19 8l58 5q103 8 165 -79.5t40 -201.5q-36 -189 -187 -336q-74 -72 -177 -103q-43 -12 -102 0q-3 1 -14 3t-15 3t-12.5 3t-12 4.5t-9.5 6t-9.5 8.5t-6.5 11zM671 1151z " />
<glyph unicode="&#x201a;" horiz-adv-x="587" d="M35 -251q-25 56 86 114q5 3 7 4q41 21 46 49q-61 30 -92.5 92t-15.5 146q23 118 108 190t200 86q103 8 165.5 -79.5t40.5 -201.5q-20 -106 -67.5 -185t-120.5 -151q-74 -72 -176 -103q-43 -13 -103 0q-3 1 -14 3t-14.5 2.5t-12 3t-12 5t-9.5 6t-9.5 8.5t-6.5 11z" />
<glyph unicode="&#x201b;" horiz-adv-x="587" d="M317.5 1364q5.5 -64 21.5 -109.5t45 -91.5q47 -73 136 -103q39 -13 103 0q2 0 17 3t18.5 3.5t15 4t16.5 6.5t13 9t14 13q14 17 16 34t-1.5 27.5t-19.5 25t-20 17t-22 14.5q-33 21 -28 49q73 30 129 92t72 146q18 91 -20 164.5t-109 98.5l-16 8l-56 5q-100 8 -196 -79.5 t-118 -201.5q-16 -71 -10.5 -135zM363 1151z" />
<glyph unicode="&#x201c;" horiz-adv-x="1163" d="M297 1340q36 189 187 336q76 74 176 104q43 13 103 0q3 -1 14 -3t15 -3t12.5 -3t12 -4.5t9.5 -6t9.5 -8.5t6.5 -11q5 -14 4.5 -26.5t-7.5 -24t-16.5 -20.5t-22 -17.5t-23.5 -14.5l-22 -12l-6 -3q-42 -21 -47 -50q61 -30 92.5 -91.5t15.5 -145.5q-18 -91 -84 -165 t-147 -99l-19 -8l-58 -4q-103 -8 -165 79t-40 201zM468 1688zM873 1340q20 106 67.5 185t120.5 151q76 74 176 104q43 13 103 0q3 -1 14 -3t14.5 -2.5t12 -3t12 -5t9.5 -6t9.5 -8.5t6.5 -11q25 -55 -73 -108q-5 -2 -13 -6l-7 -4q-41 -21 -46 -50q61 -30 92.5 -91.5 t15.5 -145.5q-18 -91 -84 -165t-147 -99l-19 -8l-58 -4q-104 -8 -166 79.5t-40 200.5z" />
<glyph unicode="&#x201d;" horiz-adv-x="1163" d="M297 1099q-25 56 86 114q5 3 7 4q42 22 47 49q-61 30 -93 92t-16 146q18 91 84.5 164.5t147.5 98.5l19 8l58 5q103 8 165 -79.5t40 -201.5q-36 -189 -187 -336q-74 -72 -177 -103q-43 -12 -102 0q-3 1 -14 3t-15 3t-12.5 3t-12 4.5t-9.5 6t-9.5 8.5t-6.5 11zM671 1151z M874 1099q-25 55 73 108q5 2 13 6l7 4q41 21 46 49q-61 30 -92.5 92t-15.5 146q18 91 84 164.5t147 98.5l19 8l58 5q103 8 165.5 -79.5t40.5 -201.5q-20 -106 -67.5 -185t-120.5 -151q-74 -72 -176 -103q-43 -13 -103 0q-3 1 -14 3t-14.5 2.5t-12 3t-12 5t-9.5 6t-9.5 8.5 t-6.5 11z" />
<glyph unicode="&#x201e;" horiz-adv-x="1163" d="M35 -251q-25 56 86 114q5 3 7 4q41 21 46 49q-61 30 -92.5 92t-15.5 146q23 118 108 190t200 86q103 8 165.5 -79.5t40.5 -201.5q-20 -106 -67.5 -185t-120.5 -151q-74 -72 -176 -103q-43 -13 -103 0q-3 1 -14 3t-14.5 2.5t-12 3t-12 5t-9.5 6t-9.5 8.5t-6.5 11z M611 -251q-25 55 73 108q5 2 13 6l7 4q42 22 47 49q-61 30 -92.5 92t-15.5 146q23 118 108 190t200 86q103 8 165 -79.5t40 -201.5q-36 -189 -187 -336q-74 -72 -176 -103q-43 -13 -103 0q-3 1 -14 3t-15 3t-12.5 3t-12 4.5t-9.5 6t-9.5 8.5t-6.5 11z" />
<glyph unicode="&#x201f;" horiz-adv-x="1163" d="M317.5 1364q5.5 -64 21.5 -109.5t45 -91.5q47 -73 136 -103q39 -13 103 0q2 0 17 3t18.5 3.5t15 4t16.5 6.5t13 9t14 13q14 17 16 34t-1.5 27.5t-19.5 25t-20 17t-22 14.5q-33 21 -28 49q73 30 129 92t72 146q18 91 -20 164.5t-109 98.5l-16 8l-56 5q-100 8 -196 -79.5 t-118 -201.5q-16 -71 -10.5 -135zM894 1364q6 -64 22 -109t45 -92q47 -73 136 -103q39 -13 103 0q4 1 15 3t15 3t13.5 3t14 4.5t11.5 6t13 8.5t11 11q14 17 16 34t-1.5 27.5t-19.5 25t-20 17t-22 14.5q-32 21 -27 49q73 30 129 92t72 146q18 91 -20 164.5t-109 98.5l-16 8 l-56 5q-100 8 -196.5 -79.5t-118.5 -201.5q-16 -71 -10 -135zM940 1151z" />
<glyph unicode="&#x202f;" horiz-adv-x="455" />
<glyph unicode="&#x2030;" horiz-adv-x="2274" d="M30 -35l1316 1683h300l-1315 -1683h-301zM314 1289q19 96 80.5 179t147.5 131t175 48q134 0 213 -106.5t51 -251.5q-29 -145 -148.5 -252t-254.5 -107q-137 0 -215 105.5t-49 253.5zM567.5 1289q-7.5 -42 11.5 -63q20 -23 52 -23q50 0 82.5 56t-0.5 93q-22 24 -48 26 q-27 -1 -61 -26q-29 -21 -36.5 -63zM773 362q21 107 88.5 198.5t163 145.5t194.5 54q150 0 237 -118t56 -280q-32 -162 -163.5 -279.5t-282.5 -117.5q-152 0 -238.5 117t-54.5 280zM1016 362q-14 -72 9 -103t91 -31q67 0 101.5 31t48.5 103t-8.5 103t-89.5 31t-102.5 -31 t-49.5 -103zM1569 362q31 163 163 280.5t284 117.5q150 0 236.5 -118t55.5 -280q-32 -162 -163.5 -279.5t-282.5 -117.5q-152 0 -238.5 117t-54.5 280zM1812 362q-14 -72 9 -103t91 -31q67 0 102 31t49 103q14 73 -9 104t-90 31q-68 0 -103 -31t-49 -104z" />
<glyph unicode="&#x203f;" horiz-adv-x="1860" d="M44 41l298 1530h1787l-297 -1530h-1788zM160 143h953l-50 485l-9 -28h-184l-10 -31h138l-51 -169h-139l-9 -30h185l-52 -169h-343l174 563h-3l-192 -618l-189 284l-70 -231h-138zM207 383l117 381h-43zM347 1103l94 305l140 -376l379 383l-153 -498l342 472l56 -512 q52 164 78 247l62 204h179q62 0 102 -33.5t46 -89.5q31 53 87 89.5t113 36.5q69 0 106 -52l36 189h-1596zM379 764l151 -228l110 356l-143 -145l-55 152l-41 -135h-22zM873 769h174q-6 44 -8 71h-114zM1117 143h640l142 734q-31 -49 -85.5 -83t-108.5 -34q-72 0 -108 55 t-12 133l10 31h128q-64 27 -81 93q-41 -80 -114 -119l55 -190h-20zM1216 763q1 -6 21 -214l154 218h5l-33 111l-35 -115h-112zM1430 1089h30q17 0 34.5 23.5t7.5 39.5q-5 8 -28 8h-22q-4 -14 -12 -38.5t-10 -32.5zM1741 938q-3 -10 7 -10q8 0 16 8t9 17q-18 8 -22 10z M1805 1135q7 -7 23 -15l6 30q2 10 1 12t-7 2q-9 0 -19 -11.5t-4 -17.5zM1848 1113q58 -27 82 -79l15 79h-97z" />
<glyph unicode="&#x205f;" horiz-adv-x="569" />
<glyph unicode="&#x20ac;" horiz-adv-x="1620" d="M182 566l64 212h75q0 10 6 28q1 3 8 41h-98l64 212h108q93 196 267 350q280 251 610 251h42l-3 -5q154 -8 273 -76t199 -172l19 -25l-316 -280l-18 24q-101 134 -273 134q-177 0 -326 -134q-41 -37 -65 -67h636l-64 -212h-685q-1 -4 -4 -21t-4 -21q0 -1 -3 -13.5 t-3 -13.5h683l-64 -212h-598q19 -48 46 -83q97 -134 274 -134q175 0 326 135l28 25l206 -282l-28 -25q-127 -112 -282.5 -180t-327.5 -68q-330 2 -512 248q-118 159 -132 364h-128z" />
<glyph unicode="&#x25fc;" horiz-adv-x="1610" d="M0 0v1610h1610v-1610h-1610z" />
<glyph horiz-adv-x="0" />
<glyph horiz-adv-x="1863" />
<glyph horiz-adv-x="1436" d="M-56 -35l1077 1766l392 -1766h-398l-54 245h-470l-150 -245h-397zM599 496l273 460l91 -460h-364zM719 1734l45 232h606l-45 -232h-606z" />
<glyph horiz-adv-x="1436" d="M-56 -35l1077 1766l392 -1766h-398l-54 245h-470l-150 -245h-397zM599 496l273 460l91 -460h-364zM785 2072l7 35h205l-7 -35q-8 -44 14.5 -74.5t62.5 -30.5q41 0 76 31t43 74l7 35h204l-6 -35q-26 -134 -134.5 -230t-232.5 -96t-194.5 96t-44.5 230z" />
</font>
</defs>
</svg>
